STARTFONT 2.1
COMMENT
COMMENT Converted from OpenType font "Q:\font stuff\winfont\Nanosecond Thick BRK.ttf" by "otf2bdf 3.0".
COMMENT
FONT -FreeType-Nanosecond Thick BRK-Medium-R-Normal--179-1800-72-72-P-675-ISO10646-1
SIZE 180 72 72
FONTBOUNDINGBOX 132 180 0 -27
STARTPROPERTIES 19
FOUNDRY "FreeType"
FAMILY_NAME "Nanosecond Thick BRK"
WEIGHT_NAME "Medium"
SLANT "R"
SETWIDTH_NAME "Normal"
ADD_STYLE_NAME ""
PIXEL_SIZE 179
POINT_SIZE 1800
RESOLUTION_X 72
RESOLUTION_Y 72
SPACING "P"
AVERAGE_WIDTH 675
CHARSET_REGISTRY "ISO10646"
CHARSET_ENCODING "1"
FONT_ASCENT 153
FONT_DESCENT 26
COPYRIGHT "ÆNIGMA FONTS   [e-mail]  kentpw@norwich.net"
_OTF_FONTFILE "Q:\font stuff\winfont\Nanosecond Thick BRK.ttf"
_OTF_PSNAME "NanosecondThickBRK"
ENDPROPERTIES
CHARS 99
STARTCHAR 0020
ENCODING 32
SWIDTH 461 0
DWIDTH 83 0
BBX 0 0 0 0
BITMAP
ENDCHAR
STARTCHAR 0021
ENCODING 33
SWIDTH 166 0
DWIDTH 30 0
BBX 21 127 4 0
BITMAP
01FC00
07FF00
0FFF80
1FFFC0
3FFFE0
7FFFF0
7FFFF0
FFFFF8
FFFFF8
FFFFF8
FFFFF8
FFFFF8
FFFFF8
FFFFF8
FFFFF8
FFFFF8
FFFFF8
FFFFF8
FFFFF8
FFFFF8
FFFFF8
FFFFF8
FFFFF8
FFFFF8
FFFFF8
FFFFF8
FFFFF8
FFFFF8
FFFFF8
FFFFF8
FFFFF8
FFFFF8
FFFFF8
FFFFF8
FFFFF8
FFFFF8
FFFFF8
FFFFF8
FFFFF8
FFFFF8
FFFFF8
FFFFF8
FFFFF8
FFFFF8
FFFFF8
FFFFF8
FFFFF8
FFFFF8
FFFFF8
FFFFF8
FFFFF8
FFFFF8
FFFFF8
FFFFF8
FFFFF8
FFFFF8
FFFFF8
FFFFF8
FFFFF8
FFFFF8
FFFFF8
FFFFF8
FFFFF8
FFFFF8
FFFFF8
FFFFF8
FFFFF8
FFFFF8
FFFFF8
FFFFF8
FFFFF8
FFFFF8
FFFFF8
FFFFF8
FFFFF8
FFFFF8
FFFFF8
FFFFF8
FFFFF8
FFFFF8
FFFFF8
FFFFF8
FFFFF8
FFFFF8
FFFFF8
FFFFF8
FFFFF8
FFFFF8
FFFFF8
FFFFF8
FFFFF8
FFFFF8
FFFFF8
7FFFF0
7FFFF0
3FFFE0
3FFFE0
1FFFC0
07FF80
01FE00
000000
000000
000000
000000
000000
000000
01FC00
07FF00
0FFF80
1FFFC0
3FFFE0
7FFFF0
7FFFF0
FFFFF8
FFFFF8
FFFFF8
FFFFF8
FFFFF8
FFFFF8
FFFFF8
7FFFF0
7FFFF0
3FFFE0
1FFFC0
0FFF80
07FF00
01FC00
ENDCHAR
STARTCHAR 0022
ENCODING 34
SWIDTH 311 0
DWIDTH 56 0
BBX 48 47 4 79
BITMAP
01FC00003F80
07FF0000FFE0
0FFF8001FFF0
1FFFC003FFF8
3FFFE007FFFC
7FFFF00FFFFE
7FFFF00FFFFE
FFFFF81FFFFF
FFFFF81FFFFF
FFFFF81FFFFF
FFFFF81FFFFF
FFFFF81FFFFF
FFFFF81FFFFF
FFFFF81FFFFF
FFFFF81FFFFF
FFFFF81FFFFF
FFFFF81FFFFF
FFFFF81FFFFF
FFFFF81FFFFF
FFFFF81FFFFF
FFFFF81FFFFF
FFFFF81FFFFF
FFFFF81FFFFF
FFFFF81FFFFF
FFFFF81FFFFF
FFFFF81FFFFF
FFFFF81FFFFF
FFFFF81FFFFF
FFFFF81FFFFF
FFFFF81FFFFF
FFFFF81FFFFF
FFFFF81FFFFF
FFFFF81FFFFF
FFFFF81FFFFF
FFFFF81FFFFF
FFFFF81FFFFF
FFFFF81FFFFF
FFFFF81FFFFF
FFFFF81FFFFF
FFFFF81FFFFF
7FFFF00FFFFE
7FFFF00FFFFE
3FFFE007FFFC
1FFFC003FFF8
1FFF8001FFF0
07FF0000FFE0
01FC00003F80
ENDCHAR
STARTCHAR 0023
ENCODING 35
SWIDTH 505 0
DWIDTH 91 0
BBX 81 127 5 0
BITMAP
000000FE00003F80000000
000003FF8000FFE0000000
000007FFC001FFF0000000
00000FFFE003FFF8000000
00001FFFF007FFFC000000
00003FFFF80FFFFE000000
00003FFFF80FFFFE000000
00007FFFFC1FFFFF000000
00007FFFFC1FFFFF000000
00007FFFFC1FFFFF000000
00007FFFFC1FFFFF000000
00007FFFFC1FFFFF000000
00007FFFFC1FFFFF000000
00007FFFFC1FFFFF000000
00007FFFFC1FFFFF000000
00007FFFFC1FFFFF000000
00007FFFFC1FFFFF000000
00007FFFFC1FFFFF000000
00007FFFFC1FFFFF000000
00007FFFFC1FFFFF000000
00007FFFFC1FFFFF000000
00007FFFFC1FFFFF000000
00007FFFFC1FFFFF000000
00007FFFFC1FFFFF000000
00007FFFFC1FFFFF000000
00007FFFFC1FFFFF000000
00007FFFFC1FFFFF000000
01FFFFFFFFFFFFFFFFC000
07FFFFFFFFFFFFFFFFF000
1FFFFFFFFFFFFFFFFFFC00
3FFFFFFFFFFFFFFFFFFE00
7FFFFFFFFFFFFFFFFFFF00
7FFFFFFFFFFFFFFFFFFF00
FFFFFFFFFFFFFFFFFFFF80
FFFFFFFFFFFFFFFFFFFF80
FFFFFFFFFFFFFFFFFFFF80
FFFFFFFFFFFFFFFFFFFF80
FFFFFFFFFFFFFFFFFFFF80
FFFFFFFFFFFFFFFFFFFF80
FFFFFFFFFFFFFFFFFFFF80
FFFFFFFFFFFFFFFFFFFF80
FFFFFFFFFFFFFFFFFFFF80
7FFFFFFFFFFFFFFFFFFF00
7FFFFFFFFFFFFFFFFFFF00
3FFFFFFFFFFFFFFFFFFE00
1FFFFFFFFFFFFFFFFFFC00
07FFFFFFFFFFFFFFFFF800
01FFFFFFFFFFFFFFFFE000
00007FFFFC1FFFFF000000
00007FFFFC1FFFFF000000
00007FFFFC1FFFFF000000
00007FFFFC1FFFFF000000
00007FFFFC1FFFFF000000
00007FFFFC1FFFFF000000
00007FFFFC1FFFFF000000
00007FFFFC1FFFFF000000
00007FFFFC1FFFFF000000
00007FFFFC1FFFFF000000
00007FFFFC1FFFFF000000
00007FFFFC1FFFFF000000
00007FFFFC1FFFFF000000
00007FFFFC1FFFFF000000
00007FFFFC1FFFFF000000
00007FFFFC1FFFFF000000
00007FFFFC1FFFFF000000
00007FFFFC1FFFFF000000
00007FFFFC1FFFFF000000
00007FFFFC1FFFFF000000
00007FFFFC1FFFFF000000
00007FFFFC1FFFFF000000
00007FFFFC1FFFFF000000
00007FFFFC1FFFFF000000
00007FFFFC1FFFFF000000
00007FFFFC1FFFFF000000
00007FFFFC1FFFFF000000
00007FFFFC1FFFFF000000
00007FFFFC1FFFFF000000
00007FFFFC1FFFFF000000
00007FFFFC1FFFFF000000
00007FFFFC1FFFFF000000
01FFFFFFFFFFFFFFFFC000
07FFFFFFFFFFFFFFFFF000
1FFFFFFFFFFFFFFFFFFC00
3FFFFFFFFFFFFFFFFFFE00
7FFFFFFFFFFFFFFFFFFF00
7FFFFFFFFFFFFFFFFFFF00
FFFFFFFFFFFFFFFFFFFF80
FFFFFFFFFFFFFFFFFFFF80
FFFFFFFFFFFFFFFFFFFF80
FFFFFFFFFFFFFFFFFFFF80
FFFFFFFFFFFFFFFFFFFF80
FFFFFFFFFFFFFFFFFFFF80
FFFFFFFFFFFFFFFFFFFF80
FFFFFFFFFFFFFFFFFFFF80
FFFFFFFFFFFFFFFFFFFF80
7FFFFFFFFFFFFFFFFFFF00
7FFFFFFFFFFFFFFFFFFF00
3FFFFFFFFFFFFFFFFFFE00
1FFFFFFFFFFFFFFFFFFC00
07FFFFFFFFFFFFFFFFF800
01FFFFFFFFFFFFFFFFE000
00007FFFFC1FFFFF000000
00007FFFFC1FFFFF000000
00007FFFFC1FFFFF000000
00007FFFFC1FFFFF000000
00007FFFFC1FFFFF000000
00007FFFFC1FFFFF000000
00007FFFFC1FFFFF000000
00007FFFFC1FFFFF000000
00007FFFFC1FFFFF000000
00007FFFFC1FFFFF000000
00007FFFFC1FFFFF000000
00007FFFFC1FFFFF000000
00007FFFFC1FFFFF000000
00007FFFFC1FFFFF000000
00007FFFFC1FFFFF000000
00007FFFFC1FFFFF000000
00007FFFFC1FFFFF000000
00007FFFFC1FFFFF000000
00007FFFFC1FFFFF000000
00003FFFF80FFFFE000000
00003FFFF80FFFFE000000
00001FFFF007FFFC000000
00001FFFE007FFF8000000
00000FFFC003FFF0000000
000003FF8000FFE0000000
000000FE00003F80000000
ENDCHAR
STARTCHAR 0024
ENCODING 36
SWIDTH 461 0
DWIDTH 83 0
BBX 75 180 4 -27
BITMAP
000000003F8000000000
00000000FFE000000000
00000001FFF000000000
00000003FFF800000000
00000007FFFC00000000
0000000FFFFE00000000
0000000FFFFE00000000
0000001FFFFF00000000
0000001FFFFF00000000
0000001FFFFF00000000
0000001FFFFF00000000
0000001FFFFF00000000
0000001FFFFF00000000
0000001FFFFF00000000
0000001FFFFF00000000
0000001FFFFF00000000
0000001FFFFF00000000
0000001FFFFF00000000
0000001FFFFF00000000
0000001FFFFF00000000
0000001FFFFF00000000
0000001FFFFF00000000
0000001FFFFF00000000
0000001FFFFF00000000
0000001FFFFF00000000
0000001FFFFF00000000
0000001FFFFF00000000
0000001FFFFF00000000
000000FFFFFFF0000000
000007FFFFFFFC000000
00001FFFFFFFFF000000
00007FFFFFFFFFC00000
0000FFFFFFFFFFF00000
0003FFFFFFFFFFF80000
0007FFFFFFFFFFFC0000
000FFFFFFFFFFFFE0000
001FFFFFFFFFFFFF0000
003FFFFFFFFFFFFF8000
007FFFFFFFFFFFFFC000
00FFFFFFFFFFFFFFE000
01FFFFFFFFFFFFFFF000
01FFFFFFFFFFFFFFF000
03FFFFFFFFFFFFFFF800
07FFFFFFFFFFFFFFFC00
07FFFFFFFFFFFFFFFC00
0FFFFFFFFBFFFFFFFE00
0FFFFFFFE0FFFFFFFE00
1FFFFFFF001FFFFFFF00
1FFFFFF80003FFFFFF00
1FFFFFE00000FFFFFF80
3FFFFFC000007FFFFF80
3FFFFF8000003FFFFF80
3FFFFF0000001FFFFFC0
7FFFFF0000001FFFFFC0
7FFFFE0000000FFFFFC0
7FFFFE0000000FFFFFC0
7FFFFC00000007FFFFC0
FFFFFC00000007FFFFE0
FFFFFC00000007FFFFE0
FFFFF800000003FFFFE0
FFFFF800000003FFFFE0
FFFFF800000003FFFFE0
FFFFF800000003FFFFE0
FFFFF800000003FFFFE0
FFFFF800000003FFFFE0
FFFFF800000003FFFFE0
FFFFF800000001FFFFC0
FFFFF800000001FFFFC0
FFFFFC00000000FFFF80
FFFFFC000000007FFF80
7FFFFC000000003FFF00
7FFFFE000000001FFC00
7FFFFF0000000007F000
7FFFFF00000000000000
3FFFFF80000000000000
3FFFFFC0000000000000
3FFFFFF0000000000000
1FFFFFF8000000000000
1FFFFFFF800000000000
1FFFFFFFFFF000000000
0FFFFFFFFFFF80000000
0FFFFFFFFFFFF0000000
07FFFFFFFFFFFE000000
03FFFFFFFFFFFF800000
03FFFFFFFFFFFFC00000
01FFFFFFFFFFFFF00000
00FFFFFFFFFFFFF80000
007FFFFFFFFFFFFC0000
007FFFFFFFFFFFFE0000
003FFFFFFFFFFFFF0000
001FFFFFFFFFFFFF8000
000FFFFFFFFFFFFFC000
0003FFFFFFFFFFFFE000
0001FFFFFFFFFFFFF000
0000FFFFFFFFFFFFF000
00003FFFFFFFFFFFF800
00000FFFFFFFFFFFFC00
000003FFFFFFFFFFFC00
0000007FFFFFFFFFFE00
00000003FFFFFFFFFE00
00000000003FFFFFFF00
000000000007FFFFFF00
000000000001FFFFFF80
0000000000007FFFFF80
0000000000003FFFFF80
0000000000001FFFFFC0
01FC000000001FFFFFC0
07FF000000000FFFFFC0
0FFF800000000FFFFFC0
1FFFC000000007FFFFC0
3FFFE000000007FFFFE0
7FFFF000000007FFFFE0
7FFFF000000003FFFFE0
FFFFF800000003FFFFE0
FFFFF800000003FFFFE0
FFFFF800000003FFFFE0
FFFFF800000003FFFFE0
FFFFF800000003FFFFE0
FFFFF800000003FFFFE0
FFFFF800000003FFFFE0
FFFFF800000007FFFFE0
FFFFFC00000007FFFFE0
7FFFFC00000007FFFFC0
7FFFFC0000000FFFFFC0
7FFFFE0000000FFFFFC0
7FFFFE0000001FFFFFC0
7FFFFF0000001FFFFFC0
3FFFFF8000003FFFFF80
3FFFFFC000007FFFFF80
3FFFFFE00000FFFFFF80
1FFFFFF00001FFFFFF00
1FFFFFFC0007FFFFFF00
0FFFFFFFC07FFFFFFE00
0FFFFFFFF3FFFFFFFE00
07FFFFFFFFFFFFFFFC00
07FFFFFFFFFFFFFFFC00
03FFFFFFFFFFFFFFF800
03FFFFFFFFFFFFFFF800
01FFFFFFFFFFFFFFF000
00FFFFFFFFFFFFFFE000
00FFFFFFFFFFFFFFC000
007FFFFFFFFFFFFFC000
003FFFFFFFFFFFFF8000
001FFFFFFFFFFFFF0000
000FFFFFFFFFFFFE0000
0007FFFFFFFFFFF80000
0003FFFFFFFFFFF00000
0000FFFFFFFFFFE00000
00003FFFFFFFFF800000
00001FFFFFFFFE000000
000003FFFFFFF8000000
000000FFFFFFC0000000
0000001FFFFF00000000
0000001FFFFF00000000
0000001FFFFF00000000
0000001FFFFF00000000
0000001FFFFF00000000
0000001FFFFF00000000
0000001FFFFF00000000
0000001FFFFF00000000
0000001FFFFF00000000
0000001FFFFF00000000
0000001FFFFF00000000
0000001FFFFF00000000
0000001FFFFF00000000
0000001FFFFF00000000
0000001FFFFF00000000
0000001FFFFF00000000
0000001FFFFF00000000
0000001FFFFF00000000
0000001FFFFF00000000
0000001FFFFF00000000
0000001FFFFE00000000
0000000FFFFE00000000
0000000FFFFE00000000
00000007FFFC00000000
00000003FFF800000000
00000001FFF000000000
00000000FFE000000000
000000003F8000000000
ENDCHAR
STARTCHAR 0025
ENCODING 37
SWIDTH 461 0
DWIDTH 83 0
BBX 75 127 4 0
BITMAP
00001FF800000007F000
0001FFFF8000001FFC00
0007FFFFE000003FFE00
001FFFFFF800007FFF00
003FFFFFFC0000FFFF80
00FFFFFFFE0001FFFFC0
01FFFFFFFF0001FFFFC0
03FFFFFFFF8003FFFFE0
07FFFFFFFFC003FFFFE0
07FFFFFFFFE003FFFFE0
0FFFFFFFFFF003FFFFE0
1FFFFFFFFFF803FFFFE0
1FFFFFFFFFF803FFFFE0
3FFFFFFFFFFC03FFFFE0
3FFFFFFFFFFC07FFFFE0
7FFFFFFFFFFE07FFFFE0
7FFFFFFFFFFE07FFFFC0
7FFFFFFFFFFE0FFFFFC0
FFFFFFFFFFFE0FFFFFC0
FFFFFFFFFFFF0FFFFFC0
FFFFFFFFFFFF1FFFFFC0
FFFFFC3FFFFF1FFFFF80
FFFFF81FFFFF3FFFFF80
FFFFF81FFFFF3FFFFF80
FFFFF81FFFFF7FFFFF00
FFFFF81FFFFF7FFFFF00
FFFFFE7FFFFFFFFFFF00
FFFFFFFFFFFFFFFFFE00
FFFFFFFFFFFFFFFFFE00
7FFFFFFFFFFFFFFFFC00
7FFFFFFFFFFFFFFFFC00
7FFFFFFFFFFFFFFFF800
3FFFFFFFFFFFFFFFF800
3FFFFFFFFFFFFFFFF800
3FFFFFFFFFFFFFFFF000
1FFFFFFFFFFFFFFFE000
0FFFFFFFFFFFFFFFE000
0FFFFFFFFFFFFFFFC000
07FFFFFFFFFFFFFFC000
03FFFFFFFFFFFFFF8000
01FFFFFFFFFFFFFF8000
00FFFFFFFFFFFFFF0000
007FFFFFFFFFFFFF0000
001FFFFFF3FFFFFE0000
0007FFFFE7FFFFFE0000
0001FFFF8FFFFFFC0000
00003FFC0FFFFFF80000
000000001FFFFFF80000
000000003FFFFFF00000
000000003FFFFFF00000
000000007FFFFFE00000
00000000FFFFFFC00000
00000000FFFFFFC00000
00000001FFFFFF800000
00000001FFFFFF000000
00000003FFFFFF000000
00000007FFFFFE000000
00000007FFFFFE000000
0000000FFFFFFC000000
0000001FFFFFF8000000
0000001FFFFFF8000000
0000003FFFFFF0000000
0000007FFFFFE0000000
0000007FFFFFE0000000
000000FFFFFFC0000000
000001FFFFFF80000000
000001FFFFFF80000000
000003FFFFFF00000000
000007FFFFFE00000000
000007FFFFFE00000000
00000FFFFFFC00000000
00001FFFFFF800000000
00001FFFFFF800000000
00003FFFFFF000000000
00003FFFFFE000000000
00007FFFFFE000000000
0000FFFFFFC000000000
0000FFFFFF8000000000
0001FFFFFF8000000000
0003FFFFFF0000000000
0003FFFFFE07FF800000
0007FFFFFE1FFFF00000
0007FFFFFCFFFFFC0000
000FFFFFF9FFFFFF0000
001FFFFFFFFFFFFF8000
001FFFFFFFFFFFFFE000
003FFFFFFFFFFFFFF000
003FFFFFFFFFFFFFF800
007FFFFFFFFFFFFFFC00
007FFFFFFFFFFFFFFC00
00FFFFFFFFFFFFFFFE00
00FFFFFFFFFFFFFFFF00
01FFFFFFFFFFFFFFFF00
01FFFFFFFFFFFFFFFF80
03FFFFFFFFFFFFFFFF80
03FFFFFFFFFFFFFFFFC0
07FFFFFFFFFFFFFFFFC0
07FFFFFFFFFFFFFFFFC0
0FFFFFFFFFFFFFFFFFE0
0FFFFFFFFFFFFFFFFFE0
0FFFFFFFFFFFFFFFFFE0
1FFFFFDFFFFF87FFFFE0
1FFFFFDFFFFF03FFFFE0
3FFFFF9FFFFF03FFFFE0
3FFFFF9FFFFF03FFFFE0
3FFFFF1FFFFF87FFFFE0
3FFFFF1FFFFFFFFFFFE0
7FFFFE1FFFFFFFFFFFE0
7FFFFE1FFFFFFFFFFFC0
7FFFFE0FFFFFFFFFFFC0
7FFFFC0FFFFFFFFFFFC0
FFFFFC0FFFFFFFFFFFC0
FFFFFC07FFFFFFFFFF80
FFFFF807FFFFFFFFFF80
FFFFF803FFFFFFFFFF00
FFFFF803FFFFFFFFFF00
FFFFF801FFFFFFFFFE00
FFFFF800FFFFFFFFFC00
FFFFF8007FFFFFFFFC00
FFFFF8007FFFFFFFF800
7FFFF0003FFFFFFFF000
7FFFF0000FFFFFFFE000
3FFFE00007FFFFFF8000
3FFFC00003FFFFFF0000
1FFF800000FFFFFC0000
07FF0000003FFFF00000
01FC00000003FF000000
ENDCHAR
STARTCHAR 0026
ENCODING 38
SWIDTH 461 0
DWIDTH 83 0
BBX 75 180 4 -27
BITMAP
000000003F8000000000
00000000FFE000000000
00000001FFF000000000
00000003FFF800000000
00000007FFFC00000000
0000000FFFFE00000000
0000000FFFFE00000000
0000001FFFFF00000000
0000001FFFFF00000000
0000001FFFFF00000000
0000001FFFFF00000000
0000001FFFFF00000000
0000001FFFFF00000000
0000001FFFFF00000000
0000001FFFFF00000000
0000001FFFFF00000000
0000001FFFFF00000000
0000001FFFFF00000000
0000001FFFFF00000000
0000001FFFFF00000000
0000001FFFFF00000000
0000001FFFFF00000000
0000001FFFFF00000000
0000001FFFFF00000000
0000001FFFFF00000000
0000001FFFFF00000000
0000001FFFFF00000000
0000001FFFFF00000000
000000FFFFFFF0000000
000003FFFFFFFC000000
00001FFFFFFFFF000000
00003FFFFFFFFFC00000
0000FFFFFFFFFFF00000
0001FFFFFFFFFFF80000
0007FFFFFFFFFFFC0000
000FFFFFFFFFFFFE0000
001FFFFFFFFFFFFF0000
003FFFFFFFFFFFFF8000
007FFFFFFFFFFFFFC000
00FFFFFFFFFFFFFFE000
00FFFFFFFFFFFFFFF000
01FFFFFFFFFFFFFFF000
03FFFFFFFFFFFFFFF800
03FFFFFFFFFFFFFFFC00
07FFFFFFFFFFFFFFFC00
0FFFFFFFFBFFFFFFFE00
0FFFFFFFE0FFFFFFFE00
1FFFFFFF001FFFFFFF00
1FFFFFF80003FFFFFF00
1FFFFFE00000FFFFFF80
3FFFFFC000007FFFFF80
3FFFFF8000003FFFFF80
3FFFFF0000001FFFFFC0
7FFFFF0000001FFFFFC0
7FFFFE0000000FFFFFC0
7FFFFE0000000FFFFFC0
7FFFFC00000007FFFFC0
FFFFFC00000007FFFFE0
FFFFFC00000007FFFFE0
FFFFF800000003FFFFE0
FFFFF800000003FFFFE0
FFFFF800000003FFFFE0
FFFFF800000003FFFFE0
FFFFF800000003FFFFE0
FFFFF800000003FFFFE0
FFFFF800000003FFFFE0
FFFFF800000001FFFFC0
FFFFF800000001FFFFC0
FFFFFC00000000FFFF80
FFFFFC000000007FFF80
7FFFFC000000003FFF00
7FFFFE000000001FFC00
7FFFFF0000000007F000
7FFFFF00000000000000
3FFFFF80000000000000
3FFFFFC0000000000000
3FFFFFE0000000000000
1FFFFFF8000000000000
1FFFFFFF800000000000
1FFFFFFFFF8000000000
0FFFFFFFFFE000000000
0FFFFFFFFFF000000000
07FFFFFFFFF800000000
03FFFFFFFFFC00000000
03FFFFFFFFFE00000000
01FFFFFFFFFE00000000
00FFFFFFFFFF00000000
00FFFFFFFFFF00000000
007FFFFFFFFF00000000
003FFFFFFFFF00000000
003FFFFFFFFF00000000
007FFFFFFFFF00000000
00FFFFFFFFFF00000000
01FFFFFFFFFE00000000
01FFFFFFFFFE00000000
03FFFFFFFFFC00000000
07FFFFFFFFF800000000
07FFFFFFFFF000000000
0FFFFFFFFFE000000000
0FFFFFFFFF0000000000
1FFFFFFF000000000000
1FFFFFF8000000000000
3FFFFFE0000000000000
3FFFFFC0000000000000
3FFFFF80000000000000
7FFFFF00000000000000
7FFFFE000000000FF800
7FFFFE000000003FFC00
7FFFFC000000007FFF00
FFFFFC00000000FFFF80
FFFFFC00000000FFFF80
FFFFF800000001FFFFC0
FFFFF800000001FFFFC0
FFFFF800000003FFFFE0
FFFFF800000003FFFFE0
FFFFF800000003FFFFE0
FFFFF800000003FFFFE0
FFFFF800000003FFFFE0
FFFFF800000003FFFFE0
FFFFF800000003FFFFE0
FFFFF800000003FFFFE0
FFFFFC00000007FFFFE0
FFFFFC00000007FFFFE0
FFFFFC00000007FFFFC0
7FFFFE0000000FFFFFC0
7FFFFE0000000FFFFFC0
7FFFFF0000001FFFFFC0
7FFFFF8000003FFFFFC0
3FFFFFC000007FFFFF80
3FFFFFF00001FFFFFF80
3FFFFFF80003FFFFFF80
1FFFFFFF001FFFFFFF00
1FFFFFFFE0FFFFFFFF00
0FFFFFFFFBFFFFFFFE00
0FFFFFFFFFFFFFFFFE00
07FFFFFFFFFFFFFFFC00
07FFFFFFFFFFFFFFFC00
03FFFFFFFFFFFFFFF800
01FFFFFFFFFFFFFFF000
01FFFFFFFFFFFFFFF000
00FFFFFFFFFFFFFFE000
007FFFFFFFFFFFFFC000
003FFFFFFFFFFFFF8000
001FFFFFFFFFFFFF0000
000FFFFFFFFFFFFE0000
0003FFFFFFFFFFF80000
0001FFFFFFFFFFF00000
00007FFFFFFFFFC00000
00003FFFFFFFFF000000
00000FFFFFFFFC000000
000001FFFFFFF0000000
0000003FFFFF00000000
0000001FFFFF00000000
0000001FFFFF00000000
0000001FFFFF00000000
0000001FFFFF00000000
0000001FFFFF00000000
0000001FFFFF00000000
0000001FFFFF00000000
0000001FFFFF00000000
0000001FFFFF00000000
0000001FFFFF00000000
0000001FFFFF00000000
0000001FFFFF00000000
0000001FFFFF00000000
0000001FFFFF00000000
0000001FFFFF00000000
0000001FFFFF00000000
0000001FFFFF00000000
0000001FFFFF00000000
0000001FFFFF00000000
0000001FFFFF00000000
0000001FFFFF00000000
0000000FFFFE00000000
0000000FFFFE00000000
00000007FFFC00000000
00000003FFF800000000
00000001FFF000000000
00000000FFE000000000
000000003F8000000000
ENDCHAR
STARTCHAR 0027
ENCODING 39
SWIDTH 166 0
DWIDTH 30 0
BBX 21 47 4 80
BITMAP
01FC00
07FF00
0FFF80
1FFFC0
3FFFE0
7FFFF0
7FFFF0
FFFFF8
FFFFF8
FFFFF8
FFFFF8
FFFFF8
FFFFF8
FFFFF8
FFFFF8
FFFFF8
FFFFF8
FFFFF8
FFFFF8
FFFFF8
FFFFF8
FFFFF8
FFFFF8
FFFFF8
FFFFF8
FFFFF8
FFFFF8
FFFFF8
FFFFF8
FFFFF8
FFFFF8
FFFFF8
FFFFF8
FFFFF8
FFFFF8
FFFFF8
FFFFF8
FFFFF8
FFFFF8
FFFFF8
7FFFF0
7FFFF0
3FFFE0
1FFFC0
0FFF80
07FF00
01FC00
ENDCHAR
STARTCHAR 0028
ENCODING 40
SWIDTH 311 0
DWIDTH 56 0
BBX 47 127 4 0
BITMAP
00000001FF00
0000003FFFE0
000001FFFFF0
000007FFFFF8
00001FFFFFFC
00007FFFFFFC
0001FFFFFFFE
0003FFFFFFFE
0007FFFFFFFE
000FFFFFFFFE
003FFFFFFFFE
007FFFFFFFFE
00FFFFFFFFFE
00FFFFFFFFFE
01FFFFFFFFFE
03FFFFFFFFFC
07FFFFFFFFF8
07FFFFFFFFF0
0FFFFFFFFFE0
0FFFFFFFFFC0
1FFFFFFFF800
1FFFFFFE0000
3FFFFFF00000
3FFFFFE00000
3FFFFFC00000
7FFFFF800000
7FFFFF000000
7FFFFE000000
7FFFFE000000
7FFFFC000000
FFFFFC000000
FFFFFC000000
FFFFF8000000
FFFFF8000000
FFFFF8000000
FFFFF8000000
FFFFF8000000
FFFFF8000000
FFFFF8000000
FFFFF8000000
FFFFF8000000
FFFFF8000000
FFFFF8000000
FFFFF8000000
FFFFF8000000
FFFFF8000000
FFFFF8000000
FFFFF8000000
FFFFF8000000
FFFFF8000000
FFFFF8000000
FFFFF8000000
FFFFF8000000
FFFFF8000000
FFFFF8000000
FFFFF8000000
FFFFF8000000
FFFFF8000000
FFFFF8000000
FFFFF8000000
FFFFF8000000
FFFFF8000000
FFFFF8000000
FFFFF8000000
FFFFF8000000
FFFFF8000000
FFFFF8000000
FFFFF8000000
FFFFF8000000
FFFFF8000000
FFFFF8000000
FFFFF8000000
FFFFF8000000
FFFFF8000000
FFFFF8000000
FFFFF8000000
FFFFF8000000
FFFFF8000000
FFFFF8000000
FFFFF8000000
FFFFF8000000
FFFFF8000000
FFFFF8000000
FFFFF8000000
FFFFF8000000
FFFFF8000000
FFFFF8000000
FFFFF8000000
FFFFF8000000
FFFFF8000000
FFFFF8000000
FFFFF8000000
FFFFF8000000
FFFFF8000000
FFFFFC000000
FFFFFC000000
FFFFFC000000
7FFFFE000000
7FFFFE000000
7FFFFF000000
7FFFFF000000
3FFFFF800000
3FFFFFC00000
3FFFFFE00000
1FFFFFF80000
1FFFFFFF0000
0FFFFFFFFF00
0FFFFFFFFFE0
07FFFFFFFFF0
07FFFFFFFFF8
03FFFFFFFFFC
03FFFFFFFFFC
01FFFFFFFFFE
00FFFFFFFFFE
007FFFFFFFFE
007FFFFFFFFE
003FFFFFFFFE
001FFFFFFFFE
000FFFFFFFFE
0003FFFFFFFE
0001FFFFFFFE
0000FFFFFFFC
00003FFFFFFC
00000FFFFFF8
000003FFFFF0
0000007FFFE0
00000003FF00
ENDCHAR
STARTCHAR 0029
ENCODING 41
SWIDTH 311 0
DWIDTH 56 0
BBX 48 127 4 0
BITMAP
01FF80000000
07FFFC000000
0FFFFF800000
1FFFFFE00000
3FFFFFF80000
3FFFFFFE0000
7FFFFFFF0000
7FFFFFFFC000
7FFFFFFFE000
FFFFFFFFF000
FFFFFFFFFC00
FFFFFFFFFE00
7FFFFFFFFE00
7FFFFFFFFF00
7FFFFFFFFF80
3FFFFFFFFFC0
3FFFFFFFFFE0
1FFFFFFFFFE0
0FFFFFFFFFF0
03FFFFFFFFF0
001FFFFFFFF8
00007FFFFFF8
00001FFFFFFC
000007FFFFFC
000003FFFFFC
000001FFFFFE
000000FFFFFE
0000007FFFFE
0000007FFFFE
0000003FFFFE
0000003FFFFF
0000003FFFFF
0000001FFFFF
0000001FFFFF
0000001FFFFF
0000001FFFFF
0000001FFFFF
0000001FFFFF
0000001FFFFF
0000001FFFFF
0000001FFFFF
0000001FFFFF
0000001FFFFF
0000001FFFFF
0000001FFFFF
0000001FFFFF
0000001FFFFF
0000001FFFFF
0000001FFFFF
0000001FFFFF
0000001FFFFF
0000001FFFFF
0000001FFFFF
0000001FFFFF
0000001FFFFF
0000001FFFFF
0000001FFFFF
0000001FFFFF
0000001FFFFF
0000001FFFFF
0000001FFFFF
0000001FFFFF
0000001FFFFF
0000001FFFFF
0000001FFFFF
0000001FFFFF
0000001FFFFF
0000001FFFFF
0000001FFFFF
0000001FFFFF
0000001FFFFF
0000001FFFFF
0000001FFFFF
0000001FFFFF
0000001FFFFF
0000001FFFFF
0000001FFFFF
0000001FFFFF
0000001FFFFF
0000001FFFFF
0000001FFFFF
0000001FFFFF
0000001FFFFF
0000001FFFFF
0000001FFFFF
0000001FFFFF
0000001FFFFF
0000001FFFFF
0000001FFFFF
0000001FFFFF
0000001FFFFF
0000001FFFFF
0000001FFFFF
0000001FFFFF
0000003FFFFF
0000003FFFFF
0000003FFFFF
0000007FFFFE
0000007FFFFE
000000FFFFFE
000000FFFFFE
000001FFFFFC
000003FFFFFC
00000FFFFFFC
00001FFFFFF8
0001FFFFFFF8
00FFFFFFFFF0
07FFFFFFFFF0
0FFFFFFFFFE0
1FFFFFFFFFE0
3FFFFFFFFFC0
3FFFFFFFFFC0
7FFFFFFFFF80
7FFFFFFFFF00
7FFFFFFFFE00
FFFFFFFFFC00
FFFFFFFFFC00
FFFFFFFFF000
FFFFFFFFE000
7FFFFFFFC000
7FFFFFFF8000
7FFFFFFE0000
3FFFFFFC0000
1FFFFFF00000
0FFFFF800000
07FFFC000000
01FFC0000000
ENDCHAR
STARTCHAR 002A
ENCODING 42
SWIDTH 444 0
DWIDTH 80 0
BBX 71 69 5 58
BITMAP
00000000FE00000000
00000003FF80000000
00000007FFC0000000
0000000FFFE0000000
0000001FFFF0000000
0000003FFFF8000000
0000003FFFF8000000
0000007FFFFC000000
0000007FFFFC000000
0000007FFFFC000000
0000007FFFFC000000
0000007FFFFC000000
0000007FFFFC000000
0000007FFFFC000000
0000007FFFFC000000
0000007FFFFC000000
0000007FFFFC000000
0000007FFFFC000000
0000007FFFFC001E00
07FE007FFFFC00FFC0
0FFFC07FFFFC07FFE0
1FFFF87FFFFC3FFFF0
3FFFFF7FFFFFFFFFF8
7FFFFFFFFFFFFFFFFC
7FFFFFFFFFFFFFFFFC
FFFFFFFFFFFFFFFFFE
FFFFFFFFFFFFFFFFFE
FFFFFFFFFFFFFFFFFE
FFFFFFFFFFFFFFFFFE
FFFFFFFFFFFFFFFFFE
FFFFFFFFFFFFFFFFFE
FFFFFFFFFFFFFFFFFE
FFFFFFFFFFFFFFFFFE
7FFFFFFFFFFFFFFFFC
7FFFFFFFFFFFFFFFFC
3FFFFFFFFFFFFFFFF8
1FFFFFFFFFFFFFFFF0
0FFFFFFFFFFFFFFFC0
03FFFFFFFFFFFFFF00
007FFFFFFFFFFFF800
000FFFFFFFFFFFC000
0001FFFFFFFFFE0000
00003FFFFFFFF00000
00003FFFFFFFF80000
00007FFFFFFFFC0000
0000FFFFFFFFFC0000
0000FFFFFFFFFE0000
0001FFFFFFFFFF0000
0003FFFFFFFFFF8000
0003FFFFFFFFFF8000
0007FFFFFFFFFFC000
000FFFFFFFFFFFE000
001FFFFFFFFFFFF000
001FFFFFFFFFFFF000
003FFFFFFFFFFFF800
003FFFFFEFFFFFF800
003FFFFFC7FFFFF800
007FFFFF87FFFFF800
007FFFFF83FFFFF800
007FFFFF01FFFFF800
007FFFFE00FFFFF800
003FFFFC00FFFFF800
003FFFFC007FFFF800
003FFFF8003FFFF000
001FFFF0001FFFF000
000FFFE0001FFFE000
0007FFC0000FFFC000
0003FF800003FF8000
00007E000000FE0000
ENDCHAR
STARTCHAR 002B
ENCODING 43
SWIDTH 461 0
DWIDTH 83 0
BBX 74 74 4 26
BITMAP
000000003F8000000000
00000000FFE000000000
00000001FFF000000000
00000003FFF800000000
00000007FFFC00000000
0000000FFFFE00000000
0000000FFFFE00000000
0000001FFFFF00000000
0000001FFFFF00000000
0000001FFFFF00000000
0000001FFFFF00000000
0000001FFFFF00000000
0000001FFFFF00000000
0000001FFFFF00000000
0000001FFFFF00000000
0000001FFFFF00000000
0000001FFFFF00000000
0000001FFFFF00000000
0000001FFFFF00000000
0000001FFFFF00000000
0000001FFFFF00000000
0000001FFFFF00000000
0000001FFFFF00000000
0000001FFFFF00000000
0000001FFFFF00000000
0000001FFFFF00000000
00FFFFFFFFFFFFFFE000
07FFFFFFFFFFFFFFFC00
0FFFFFFFFFFFFFFFFE00
1FFFFFFFFFFFFFFFFF00
3FFFFFFFFFFFFFFFFF80
3FFFFFFFFFFFFFFFFF80
7FFFFFFFFFFFFFFFFFC0
7FFFFFFFFFFFFFFFFFC0
7FFFFFFFFFFFFFFFFFC0
FFFFFFFFFFFFFFFFFFC0
FFFFFFFFFFFFFFFFFFC0
FFFFFFFFFFFFFFFFFFC0
FFFFFFFFFFFFFFFFFFC0
7FFFFFFFFFFFFFFFFFC0
7FFFFFFFFFFFFFFFFFC0
7FFFFFFFFFFFFFFFFF80
3FFFFFFFFFFFFFFFFF80
1FFFFFFFFFFFFFFFFF00
0FFFFFFFFFFFFFFFFE00
07FFFFFFFFFFFFFFFC00
01FFFFFFFFFFFFFFE000
0000001FFFFF00000000
0000001FFFFF00000000
0000001FFFFF00000000
0000001FFFFF00000000
0000001FFFFF00000000
0000001FFFFF00000000
0000001FFFFF00000000
0000001FFFFF00000000
0000001FFFFF00000000
0000001FFFFF00000000
0000001FFFFF00000000
0000001FFFFF00000000
0000001FFFFF00000000
0000001FFFFF00000000
0000001FFFFF00000000
0000001FFFFF00000000
0000001FFFFF00000000
0000001FFFFF00000000
0000001FFFFF00000000
0000001FFFFF00000000
0000000FFFFE00000000
0000000FFFFE00000000
00000007FFFC00000000
00000003FFF800000000
00000001FFF000000000
00000000FFE000000000
000000003F8000000000
ENDCHAR
STARTCHAR 002C
ENCODING 44
SWIDTH 166 0
DWIDTH 30 0
BBX 21 48 4 -27
BITMAP
01FC00
07FF00
0FFF80
1FFFC0
3FFFE0
7FFFF0
7FFFF0
FFFFF8
FFFFF8
FFFFF8
FFFFF8
FFFFF8
FFFFF8
FFFFF8
FFFFF8
FFFFF8
FFFFF8
FFFFF8
FFFFF8
FFFFF8
FFFFF8
FFFFF8
FFFFF8
FFFFF8
FFFFF8
FFFFF8
FFFFF8
FFFFF8
FFFFF8
FFFFF8
FFFFF8
FFFFF8
FFFFF8
FFFFF8
FFFFF8
FFFFF8
FFFFF8
FFFFF8
FFFFF8
FFFFF8
FFFFF8
7FFFF0
7FFFF0
3FFFE0
1FFFC0
0FFF80
07FF00
01FC00
ENDCHAR
STARTCHAR 002D
ENCODING 45
SWIDTH 461 0
DWIDTH 83 0
BBX 74 21 4 53
BITMAP
00FFFFFFFFFFFFFFE000
03FFFFFFFFFFFFFFF800
0FFFFFFFFFFFFFFFFE00
1FFFFFFFFFFFFFFFFF00
3FFFFFFFFFFFFFFFFF80
3FFFFFFFFFFFFFFFFF80
7FFFFFFFFFFFFFFFFFC0
7FFFFFFFFFFFFFFFFFC0
7FFFFFFFFFFFFFFFFFC0
7FFFFFFFFFFFFFFFFFC0
FFFFFFFFFFFFFFFFFFC0
7FFFFFFFFFFFFFFFFFC0
7FFFFFFFFFFFFFFFFFC0
7FFFFFFFFFFFFFFFFFC0
7FFFFFFFFFFFFFFFFFC0
3FFFFFFFFFFFFFFFFF80
3FFFFFFFFFFFFFFFFF80
1FFFFFFFFFFFFFFFFF00
0FFFFFFFFFFFFFFFFE00
07FFFFFFFFFFFFFFF800
00FFFFFFFFFFFFFFE000
ENDCHAR
STARTCHAR 002E
ENCODING 46
SWIDTH 166 0
DWIDTH 30 0
BBX 21 21 4 0
BITMAP
01FC00
07FF00
0FFF80
1FFFC0
3FFFE0
7FFFF0
7FFFF0
FFFFF8
FFFFF8
FFFFF8
FFFFF8
FFFFF8
FFFFF8
FFFFF8
7FFFF0
7FFFF0
3FFFE0
1FFFC0
0FFF80
07FF00
01FC00
ENDCHAR
STARTCHAR 002F
ENCODING 47
SWIDTH 461 0
DWIDTH 83 0
BBX 74 127 4 0
BITMAP
0000000000000007E000
000000000000001FF800
000000000000007FFE00
00000000000000FFFF00
00000000000001FFFF80
00000000000001FFFF80
00000000000003FFFFC0
00000000000003FFFFC0
00000000000003FFFFC0
00000000000003FFFFC0
00000000000003FFFFC0
00000000000003FFFFC0
00000000000003FFFFC0
00000000000007FFFFC0
00000000000007FFFFC0
00000000000007FFFFC0
00000000000007FFFFC0
0000000000000FFFFFC0
0000000000000FFFFF80
0000000000000FFFFF80
0000000000001FFFFF80
0000000000001FFFFF80
0000000000003FFFFF00
0000000000003FFFFF00
0000000000007FFFFF00
0000000000007FFFFE00
000000000000FFFFFE00
000000000000FFFFFE00
000000000001FFFFFC00
000000000001FFFFFC00
000000000003FFFFF800
000000000003FFFFF800
000000000007FFFFF000
00000000000FFFFFF000
00000000000FFFFFE000
00000000001FFFFFE000
00000000001FFFFFC000
00000000003FFFFFC000
00000000007FFFFF8000
00000000007FFFFF8000
0000000000FFFFFF0000
0000000001FFFFFF0000
0000000001FFFFFE0000
0000000003FFFFFC0000
0000000007FFFFFC0000
0000000007FFFFF80000
000000000FFFFFF80000
000000000FFFFFF00000
000000001FFFFFE00000
000000003FFFFFE00000
000000003FFFFFC00000
000000007FFFFFC00000
00000000FFFFFF800000
00000000FFFFFF000000
00000001FFFFFF000000
00000003FFFFFE000000
00000003FFFFFC000000
00000007FFFFFC000000
0000000FFFFFF8000000
0000000FFFFFF8000000
0000001FFFFFF0000000
0000003FFFFFE0000000
0000003FFFFFE0000000
0000007FFFFFC0000000
0000007FFFFF80000000
000000FFFFFF80000000
000001FFFFFF00000000
000001FFFFFE00000000
000003FFFFFE00000000
000007FFFFFC00000000
000007FFFFF800000000
00000FFFFFF800000000
00001FFFFFF000000000
00001FFFFFE000000000
00003FFFFFE000000000
00007FFFFFC000000000
00007FFFFF8000000000
0000FFFFFF8000000000
0000FFFFFF0000000000
0001FFFFFE0000000000
0003FFFFFE0000000000
0003FFFFFC0000000000
0007FFFFF80000000000
000FFFFFF80000000000
000FFFFFF00000000000
001FFFFFF00000000000
001FFFFFE00000000000
003FFFFFC00000000000
003FFFFFC00000000000
007FFFFF800000000000
007FFFFF000000000000
00FFFFFF000000000000
00FFFFFE000000000000
01FFFFFE000000000000
01FFFFFC000000000000
03FFFFF8000000000000
03FFFFF8000000000000
07FFFFF0000000000000
07FFFFF0000000000000
0FFFFFE0000000000000
0FFFFFE0000000000000
0FFFFFC0000000000000
1FFFFFC0000000000000
1FFFFF80000000000000
1FFFFF80000000000000
3FFFFF00000000000000
3FFFFF00000000000000
3FFFFE00000000000000
3FFFFE00000000000000
7FFFFE00000000000000
7FFFFC00000000000000
7FFFFC00000000000000
7FFFFC00000000000000
7FFFFC00000000000000
7FFFF800000000000000
7FFFF800000000000000
FFFFF800000000000000
FFFFF800000000000000
7FFFF800000000000000
7FFFF800000000000000
7FFFF800000000000000
3FFFF000000000000000
3FFFE000000000000000
1FFFE000000000000000
0FFFC000000000000000
07FF0000000000000000
00FC0000000000000000
ENDCHAR
STARTCHAR 0030
ENCODING 48
SWIDTH 461 0
DWIDTH 83 0
BBX 75 127 4 0
BITMAP
00000001FFF000000000
0000003FFFFF80000000
000001FFFFFFF0000000
00000FFFFFFFFE000000
00003FFFFFFFFF800000
00007FFFFFFFFFC00000
0001FFFFFFFFFFF00000
0003FFFFFFFFFFF80000
0007FFFFFFFFFFFC0000
000FFFFFFFFFFFFF0000
001FFFFFFFFFFFFF8000
003FFFFFFFFFFFFF8000
007FFFFFFFFFFFFFC000
00FFFFFFFFFFFFFFE000
01FFFFFFFFFFFFFFF000
01FFFFFFFFFFFFFFF800
03FFFFFFFFFFFFFFF800
07FFFFFFFFFFFFFFFC00
07FFFFFFFFFFFFFFFC00
0FFFFFFFFFFFFFFFFE00
0FFFFFFFFFFFFFFFFE00
1FFFFFFF803FFFFFFF00
1FFFFFFC0007FFFFFF00
3FFFFFF00001FFFFFF80
3FFFFFC000007FFFFF80
3FFFFF8000003FFFFF80
7FFFFF0000001FFFFFC0
7FFFFF0000001FFFFFC0
7FFFFE0000000FFFFFC0
7FFFFE0000000FFFFFC0
FFFFFC00000007FFFFE0
FFFFFC00000007FFFFE0
FFFFFC00000007FFFFE0
FFFFF800000003FFFFE0
FFFFF800000003FFFFE0
FFFFF800000003FFFFE0
FFFFF800000003FFFFE0
FFFFF800000003FFFFE0
FFFFF800000003FFFFE0
FFFFF800000003FFFFE0
FFFFF800000003FFFFE0
FFFFF800000003FFFFE0
FFFFF800000003FFFFE0
FFFFF800000003FFFFE0
FFFFF800000003FFFFE0
FFFFF800000003FFFFE0
FFFFF800000003FFFFE0
FFFFF800000003FFFFE0
FFFFF800000003FFFFE0
FFFFF800000003FFFFE0
FFFFF800000003FFFFE0
FFFFF800000003FFFFE0
FFFFF800000003FFFFE0
FFFFF800000003FFFFE0
FFFFF800000003FFFFE0
FFFFF800000003FFFFE0
FFFFF800000003FFFFE0
FFFFF800000003FFFFE0
FFFFF800000003FFFFE0
FFFFF800000003FFFFE0
FFFFF800000003FFFFE0
FFFFF800000003FFFFE0
FFFFF800000003FFFFE0
FFFFF800000003FFFFE0
FFFFF800000003FFFFE0
FFFFF800000003FFFFE0
FFFFF800000003FFFFE0
FFFFF800000003FFFFE0
FFFFF800000003FFFFE0
FFFFF800000003FFFFE0
FFFFF800000003FFFFE0
FFFFF800000003FFFFE0
FFFFF800000003FFFFE0
FFFFF800000003FFFFE0
FFFFF800000003FFFFE0
FFFFF800000003FFFFE0
FFFFF800000003FFFFE0
FFFFF800000003FFFFE0
FFFFF800000003FFFFE0
FFFFF800000003FFFFE0
FFFFF800000003FFFFE0
FFFFF800000003FFFFE0
FFFFF800000003FFFFE0
FFFFF800000003FFFFE0
FFFFF800000003FFFFE0
FFFFF800000003FFFFE0
FFFFF800000003FFFFE0
FFFFF800000003FFFFE0
FFFFF800000003FFFFE0
FFFFF800000003FFFFE0
FFFFF800000003FFFFE0
FFFFF800000003FFFFE0
FFFFF800000003FFFFE0
FFFFF800000003FFFFE0
FFFFFC00000007FFFFE0
FFFFFC00000007FFFFE0
FFFFFC00000007FFFFE0
7FFFFE0000000FFFFFC0
7FFFFE0000000FFFFFC0
7FFFFF0000001FFFFFC0
7FFFFF0000001FFFFFC0
3FFFFF8000003FFFFF80
3FFFFFC000007FFFFF80
3FFFFFF00001FFFFFF80
1FFFFFF80007FFFFFF00
1FFFFFFF003FFFFFFF00
0FFFFFFFFFFFFFFFFE00
0FFFFFFFFFFFFFFFFE00
07FFFFFFFFFFFFFFFC00
07FFFFFFFFFFFFFFFC00
03FFFFFFFFFFFFFFF800
03FFFFFFFFFFFFFFF800
01FFFFFFFFFFFFFFF000
00FFFFFFFFFFFFFFE000
007FFFFFFFFFFFFFC000
007FFFFFFFFFFFFFC000
003FFFFFFFFFFFFF8000
001FFFFFFFFFFFFF0000
0007FFFFFFFFFFFC0000
0003FFFFFFFFFFF80000
0001FFFFFFFFFFF00000
00007FFFFFFFFFC00000
00003FFFFFFFFF800000
00000FFFFFFFFE000000
000001FFFFFFF0000000
0000003FFFFF80000000
00000003FFF800000000
ENDCHAR
STARTCHAR 0031
ENCODING 49
SWIDTH 166 0
DWIDTH 30 0
BBX 21 127 4 0
BITMAP
01FC00
07FF00
0FFF80
1FFFC0
3FFFE0
7FFFF0
7FFFF0
FFFFF8
FFFFF8
FFFFF8
FFFFF8
FFFFF8
FFFFF8
FFFFF8
FFFFF8
FFFFF8
FFFFF8
FFFFF8
FFFFF8
FFFFF8
FFFFF8
FFFFF8
FFFFF8
FFFFF8
FFFFF8
FFFFF8
FFFFF8
FFFFF8
FFFFF8
FFFFF8
FFFFF8
FFFFF8
FFFFF8
FFFFF8
FFFFF8
FFFFF8
FFFFF8
FFFFF8
FFFFF8
FFFFF8
FFFFF8
FFFFF8
FFFFF8
FFFFF8
FFFFF8
FFFFF8
FFFFF8
FFFFF8
FFFFF8
FFFFF8
FFFFF8
FFFFF8
FFFFF8
FFFFF8
FFFFF8
FFFFF8
FFFFF8
FFFFF8
FFFFF8
FFFFF8
FFFFF8
FFFFF8
FFFFF8
FFFFF8
FFFFF8
FFFFF8
FFFFF8
FFFFF8
FFFFF8
FFFFF8
FFFFF8
FFFFF8
FFFFF8
FFFFF8
FFFFF8
FFFFF8
FFFFF8
FFFFF8
FFFFF8
FFFFF8
FFFFF8
FFFFF8
FFFFF8
FFFFF8
FFFFF8
FFFFF8
FFFFF8
FFFFF8
FFFFF8
FFFFF8
FFFFF8
FFFFF8
FFFFF8
FFFFF8
FFFFF8
FFFFF8
FFFFF8
FFFFF8
FFFFF8
FFFFF8
FFFFF8
FFFFF8
FFFFF8
FFFFF8
FFFFF8
FFFFF8
FFFFF8
FFFFF8
FFFFF8
FFFFF8
FFFFF8
FFFFF8
FFFFF8
FFFFF8
FFFFF8
FFFFF8
FFFFF8
FFFFF8
FFFFF8
FFFFF8
7FFFF0
7FFFF0
3FFFE0
3FFFC0
0FFF80
07FF00
01FC00
ENDCHAR
STARTCHAR 0032
ENCODING 50
SWIDTH 461 0
DWIDTH 83 0
BBX 74 127 4 0
BITMAP
00000003FFF000000000
0000003FFFFF80000000
000001FFFFFFF0000000
00000FFFFFFFFC000000
00001FFFFFFFFF000000
00007FFFFFFFFFC00000
0001FFFFFFFFFFE00000
0003FFFFFFFFFFF80000
0007FFFFFFFFFFFC0000
000FFFFFFFFFFFFE0000
001FFFFFFFFFFFFF0000
003FFFFFFFFFFFFF8000
007FFFFFFFFFFFFFC000
00FFFFFFFFFFFFFFC000
01FFFFFFFFFFFFFFE000
01FFFFFFFFFFFFFFF000
03FFFFFFFFFFFFFFF000
07FFFFFFFFFFFFFFF800
07FFFFFFFFFFFFFFFC00
0FFFFFFFFFFFFFFFFC00
0FFFFFFFFFFFFFFFFE00
1FFFFFFF803FFFFFFE00
1FFFFFF80007FFFFFE00
3FFFFFF00001FFFFFF00
3FFFFFC00000FFFFFF00
3FFFFF8000007FFFFF00
7FFFFF0000003FFFFF80
7FFFFF0000001FFFFF80
7FFFFE0000000FFFFF80
7FFFFE0000000FFFFF80
7FFFFC0000000FFFFFC0
FFFFFC00000007FFFFC0
FFFFFC00000007FFFFC0
FFFFF800000007FFFFC0
FFFFF800000007FFFFC0
FFFFF800000003FFFFC0
FFFFF800000003FFFFC0
FFFFF800000003FFFFC0
FFFFF800000003FFFFC0
FFFFF800000007FFFFC0
FFFFF800000007FFFFC0
7FFFF000000007FFFFC0
7FFFF000000007FFFFC0
3FFFE00000000FFFFFC0
1FFFC00000000FFFFF80
0FFF800000000FFFFF80
03FF000000001FFFFF80
0070000000003FFFFF80
0000000000007FFFFF00
000000000000FFFFFF00
000000000001FFFFFF00
000000000007FFFFFE00
00000000003FFFFFFE00
00000003FFFFFFFFFE00
0000003FFFFFFFFFFC00
000001FFFFFFFFFFFC00
00000FFFFFFFFFFFF800
00003FFFFFFFFFFFF000
00007FFFFFFFFFFFF000
0001FFFFFFFFFFFFE000
0003FFFFFFFFFFFFC000
0007FFFFFFFFFFFFC000
000FFFFFFFFFFFFF8000
001FFFFFFFFFFFFF0000
003FFFFFFFFFFFFE0000
007FFFFFFFFFFFFC0000
00FFFFFFFFFFFFF80000
01FFFFFFFFFFFFE00000
01FFFFFFFFFFFFC00000
03FFFFFFFFFFFF000000
07FFFFFFFFFFFC000000
07FFFFFFFFFFF0000000
0FFFFFFFFFFF80000000
0FFFFFFFFFF000000000
1FFFFFFF000000000000
1FFFFFF8000000000000
3FFFFFF0000000000000
3FFFFFC0000000000000
3FFFFF80000000000000
7FFFFF00000000000000
7FFFFF00000000000000
7FFFFE00000000000000
7FFFFE00000000000000
7FFFFC00000000000000
FFFFFC00000000000000
FFFFF800000000000000
FFFFF800000000000000
FFFFF800000000000000
FFFFF800000000000000
FFFFF800000000000000
FFFFF800000000000000
FFFFF800000000000000
FFFFF800000000000000
FFFFF800000000000000
FFFFF800000000000000
FFFFF800000000000000
FFFFF800000000000000
FFFFF800000000000000
FFFFF800000000000000
FFFFF800000000000000
FFFFF800000000000000
FFFFF800000000000000
FFFFF800000000000000
FFFFF800000000000000
FFFFF800000000000000
FFFFF800000000000000
FFFFFFFFFFFFFFFFE000
FFFFFFFFFFFFFFFFF800
FFFFFFFFFFFFFFFFFE00
FFFFFFFFFFFFFFFFFF00
FFFFFFFFFFFFFFFFFF00
FFFFFFFFFFFFFFFFFF80
7FFFFFFFFFFFFFFFFF80
7FFFFFFFFFFFFFFFFFC0
7FFFFFFFFFFFFFFFFFC0
3FFFFFFFFFFFFFFFFFC0
3FFFFFFFFFFFFFFFFFC0
3FFFFFFFFFFFFFFFFFC0
1FFFFFFFFFFFFFFFFFC0
0FFFFFFFFFFFFFFFFFC0
07FFFFFFFFFFFFFFFF80
03FFFFFFFFFFFFFFFF80
01FFFFFFFFFFFFFFFF00
00FFFFFFFFFFFFFFFF00
007FFFFFFFFFFFFFFE00
000FFFFFFFFFFFFFF800
0001FFFFFFFFFFFFE000
ENDCHAR
STARTCHAR 0033
ENCODING 51
SWIDTH 461 0
DWIDTH 83 0
BBX 75 127 4 0
BITMAP
00000001FFF000000000
0000003FFFFF80000000
000001FFFFFFF0000000
00000FFFFFFFFC000000
00003FFFFFFFFF000000
00007FFFFFFFFFC00000
0001FFFFFFFFFFF00000
0003FFFFFFFFFFF80000
0007FFFFFFFFFFFC0000
000FFFFFFFFFFFFE0000
001FFFFFFFFFFFFF0000
003FFFFFFFFFFFFF8000
007FFFFFFFFFFFFFC000
00FFFFFFFFFFFFFFE000
01FFFFFFFFFFFFFFE000
01FFFFFFFFFFFFFFF000
03FFFFFFFFFFFFFFF800
07FFFFFFFFFFFFFFF800
07FFFFFFFFFFFFFFFC00
0FFFFFFFFFFFFFFFFC00
0FFFFFFFFFFFFFFFFE00
1FFFFFFF801FFFFFFE00
1FFFFFFC0003FFFFFF00
3FFFFFF00000FFFFFF00
3FFFFFC000007FFFFF80
3FFFFF8000003FFFFF80
7FFFFF8000001FFFFF80
7FFFFF0000000FFFFF80
7FFFFE0000000FFFFFC0
7FFFFE00000007FFFFC0
7FFFFC00000007FFFFC0
FFFFFC00000003FFFFC0
FFFFFC00000003FFFFC0
FFFFF800000003FFFFC0
FFFFF800000003FFFFC0
FFFFF800000003FFFFC0
FFFFF800000003FFFFE0
FFFFF800000003FFFFE0
FFFFF800000003FFFFE0
FFFFF800000003FFFFE0
FFFFF800000003FFFFE0
7FFFF000000003FFFFC0
7FFFF000000003FFFFC0
3FFFE000000007FFFFC0
1FFFC000000007FFFFC0
0FFF800000000FFFFFC0
03FF000000000FFFFFC0
0070000000001FFFFFC0
0000000000003FFFFF80
0000000000007FFFFF80
000000000000FFFFFF80
000000000003FFFFFF00
00000000001FFFFFFF00
000000001FFFFFFFFE00
000000007FFFFFFFFE00
00000000FFFFFFFFFC00
00000001FFFFFFFFFC00
00000003FFFFFFFFF800
00000007FFFFFFFFF800
00000007FFFFFFFFF000
0000000FFFFFFFFFE000
0000000FFFFFFFFFC000
0000000FFFFFFFFFC000
0000000FFFFFFFFF8000
0000000FFFFFFFFFC000
0000000FFFFFFFFFC000
0000000FFFFFFFFFE000
00000007FFFFFFFFF000
00000007FFFFFFFFF800
00000003FFFFFFFFF800
00000001FFFFFFFFFC00
00000000FFFFFFFFFE00
000000007FFFFFFFFE00
000000000FFFFFFFFF00
00000000000FFFFFFF00
000000000003FFFFFF80
000000000000FFFFFF80
0000000000007FFFFF80
0000000000003FFFFFC0
0000000000001FFFFFC0
03FE000000000FFFFFC0
07FF0000000007FFFFC0
1FFFC000000007FFFFC0
3FFFE000000007FFFFE0
3FFFE000000003FFFFE0
7FFFF000000003FFFFE0
7FFFF000000003FFFFE0
FFFFF800000003FFFFE0
FFFFF800000003FFFFE0
FFFFF800000003FFFFE0
FFFFF800000003FFFFE0
FFFFF800000003FFFFE0
FFFFF800000003FFFFE0
FFFFF800000003FFFFE0
FFFFF800000003FFFFE0
FFFFFC00000007FFFFE0
FFFFFC00000007FFFFE0
7FFFFC00000007FFFFC0
7FFFFE0000000FFFFFC0
7FFFFE0000000FFFFFC0
7FFFFF0000001FFFFFC0
7FFFFF8000003FFFFFC0
3FFFFFC000007FFFFF80
3FFFFFE00000FFFFFF80
3FFFFFF80003FFFFFF80
1FFFFFFE000FFFFFFF00
1FFFFFFFFFFFFFFFFF00
0FFFFFFFFFFFFFFFFE00
0FFFFFFFFFFFFFFFFE00
07FFFFFFFFFFFFFFFC00
07FFFFFFFFFFFFFFFC00
03FFFFFFFFFFFFFFF800
01FFFFFFFFFFFFFFF000
01FFFFFFFFFFFFFFE000
00FFFFFFFFFFFFFFE000
007FFFFFFFFFFFFFC000
003FFFFFFFFFFFFF8000
001FFFFFFFFFFFFE0000
0007FFFFFFFFFFFC0000
0003FFFFFFFFFFF80000
0001FFFFFFFFFFF00000
00007FFFFFFFFFC00000
00001FFFFFFFFF000000
000007FFFFFFFC000000
000001FFFFFFF0000000
0000003FFFFF80000000
00000001FFF000000000
ENDCHAR
STARTCHAR 0034
ENCODING 52
SWIDTH 461 0
DWIDTH 83 0
BBX 75 127 4 0
BITMAP
01FC000000000007F000
07FF00000000001FFC00
0FFF80000000003FFE00
1FFFC0000000007FFF00
3FFFE000000000FFFF80
7FFFF000000001FFFFC0
7FFFF000000001FFFFC0
FFFFF800000003FFFFE0
FFFFF800000003FFFFE0
FFFFF800000003FFFFE0
FFFFF800000003FFFFE0
FFFFF800000003FFFFE0
FFFFF800000003FFFFE0
FFFFF800000003FFFFE0
FFFFF800000003FFFFE0
FFFFF800000003FFFFE0
FFFFF800000003FFFFE0
FFFFF800000003FFFFE0
FFFFF800000003FFFFE0
FFFFF800000003FFFFE0
FFFFF800000003FFFFE0
FFFFF800000003FFFFE0
FFFFF800000003FFFFE0
FFFFF800000003FFFFE0
FFFFF800000003FFFFE0
FFFFF800000003FFFFE0
FFFFF800000003FFFFE0
FFFFF800000003FFFFE0
FFFFF800000003FFFFE0
FFFFF800000003FFFFE0
FFFFF800000003FFFFE0
FFFFF800000003FFFFE0
FFFFF800000003FFFFE0
FFFFF800000003FFFFE0
FFFFF800000003FFFFE0
FFFFF800000003FFFFE0
FFFFF800000003FFFFE0
FFFFF800000003FFFFE0
FFFFF800000003FFFFE0
FFFFF800000003FFFFE0
FFFFF800000003FFFFE0
FFFFF800000003FFFFE0
FFFFF800000003FFFFE0
FFFFF800000003FFFFE0
FFFFF800000003FFFFE0
FFFFF800000003FFFFE0
FFFFF800000003FFFFE0
FFFFF800000003FFFFE0
FFFFF800000003FFFFE0
FFFFF800000003FFFFE0
FFFFF800000003FFFFE0
FFFFF800000003FFFFE0
FFFFF800000003FFFFE0
FFFFFFFFFFFFFFFFFFE0
FFFFFFFFFFFFFFFFFFE0
FFFFFFFFFFFFFFFFFFE0
FFFFFFFFFFFFFFFFFFE0
FFFFFFFFFFFFFFFFFFE0
FFFFFFFFFFFFFFFFFFE0
7FFFFFFFFFFFFFFFFFC0
7FFFFFFFFFFFFFFFFFC0
7FFFFFFFFFFFFFFFFFC0
3FFFFFFFFFFFFFFFFF80
3FFFFFFFFFFFFFFFFF80
1FFFFFFFFFFFFFFFFF80
1FFFFFFFFFFFFFFFFFC0
0FFFFFFFFFFFFFFFFFC0
07FFFFFFFFFFFFFFFFC0
03FFFFFFFFFFFFFFFFE0
01FFFFFFFFFFFFFFFFE0
00FFFFFFFFFFFFFFFFE0
007FFFFFFFFFFFFFFFE0
001FFFFFFFFFFFFFFFE0
0001FFFFFFFFFFFFFFE0
00000000000003FFFFE0
00000000000003FFFFE0
00000000000003FFFFE0
00000000000003FFFFE0
00000000000003FFFFE0
00000000000003FFFFE0
00000000000003FFFFE0
00000000000003FFFFE0
00000000000003FFFFE0
00000000000003FFFFE0
00000000000003FFFFE0
00000000000003FFFFE0
00000000000003FFFFE0
00000000000003FFFFE0
00000000000003FFFFE0
00000000000003FFFFE0
00000000000003FFFFE0
00000000000003FFFFE0
00000000000003FFFFE0
00000000000003FFFFE0
00000000000003FFFFE0
00000000000003FFFFE0
00000000000003FFFFE0
00000000000003FFFFE0
00000000000003FFFFE0
00000000000003FFFFE0
00000000000003FFFFE0
00000000000003FFFFE0
00000000000003FFFFE0
00000000000003FFFFE0
00000000000003FFFFE0
00000000000003FFFFE0
00000000000003FFFFE0
00000000000003FFFFE0
00000000000003FFFFE0
00000000000003FFFFE0
00000000000003FFFFE0
00000000000003FFFFE0
00000000000003FFFFE0
00000000000003FFFFE0
00000000000003FFFFE0
00000000000003FFFFE0
00000000000003FFFFE0
00000000000003FFFFE0
00000000000003FFFFE0
00000000000003FFFFE0
00000000000001FFFFC0
00000000000001FFFFC0
00000000000000FFFF80
00000000000000FFFF00
000000000000007FFE00
000000000000001FFC00
0000000000000007F000
ENDCHAR
STARTCHAR 0035
ENCODING 53
SWIDTH 461 0
DWIDTH 83 0
BBX 75 127 4 0
BITMAP
0001FFFFFFFFFFFFF000
000FFFFFFFFFFFFFFC00
003FFFFFFFFFFFFFFE00
00FFFFFFFFFFFFFFFF00
01FFFFFFFFFFFFFFFF80
07FFFFFFFFFFFFFFFFC0
0FFFFFFFFFFFFFFFFFC0
0FFFFFFFFFFFFFFFFFE0
1FFFFFFFFFFFFFFFFFE0
3FFFFFFFFFFFFFFFFFE0
3FFFFFFFFFFFFFFFFFE0
7FFFFFFFFFFFFFFFFFE0
7FFFFFFFFFFFFFFFFFE0
7FFFFFFFFFFFFFFFFFE0
FFFFFFFFFFFFFFFFFFC0
FFFFFFFFFFFFFFFFFFC0
FFFFFFFFFFFFFFFFFF80
FFFFFFFFFFFFFFFFFF00
FFFFFFFFFFFFFFFFFE00
FFFFFFFFFFFFFFFFFC00
FFFFFFFFFFFFFFFFF000
FFFFF800000000000000
FFFFF800000000000000
FFFFF800000000000000
FFFFF800000000000000
FFFFF800000000000000
FFFFF800000000000000
FFFFF800000000000000
FFFFF800000000000000
FFFFF800000000000000
FFFFF800000000000000
FFFFF800000000000000
FFFFF800000000000000
FFFFF800000000000000
FFFFF800000000000000
FFFFF800000000000000
FFFFF800000000000000
FFFFF800000000000000
FFFFF800000000000000
FFFFF800000000000000
FFFFF800000000000000
FFFFF800000000000000
FFFFF800000000000000
FFFFF800000000000000
FFFFF800000000000000
FFFFF800000000000000
FFFFF800000000000000
FFFFF800000000000000
FFFFF800000000000000
FFFFF800000000000000
FFFFF800000000000000
FFFFF800000000000000
FFFFF800000000000000
FFFFFFFFFFF000000000
FFFFFFFFFFFF80000000
FFFFFFFFFFFFF0000000
FFFFFFFFFFFFFC000000
FFFFFFFFFFFFFF000000
FFFFFFFFFFFFFFC00000
7FFFFFFFFFFFFFF00000
7FFFFFFFFFFFFFF80000
7FFFFFFFFFFFFFFC0000
3FFFFFFFFFFFFFFE0000
3FFFFFFFFFFFFFFF8000
1FFFFFFFFFFFFFFFC000
1FFFFFFFFFFFFFFFC000
0FFFFFFFFFFFFFFFE000
07FFFFFFFFFFFFFFF000
03FFFFFFFFFFFFFFF800
01FFFFFFFFFFFFFFF800
00FFFFFFFFFFFFFFFC00
007FFFFFFFFFFFFFFE00
001FFFFFFFFFFFFFFE00
0001FFFFFFFFFFFFFF00
00000000003FFFFFFF00
000000000007FFFFFF00
000000000001FFFFFF80
0000000000007FFFFF80
0000000000003FFFFF80
0000000000001FFFFFC0
0000000000001FFFFFC0
0000000000000FFFFFC0
00000000000007FFFFC0
00000000000007FFFFE0
00000000000007FFFFE0
00000000000007FFFFE0
00000000000003FFFFE0
00000000000003FFFFE0
00000000000003FFFFE0
00000000000003FFFFE0
00000000000003FFFFE0
00000000000003FFFFE0
00000000000003FFFFE0
00000000000003FFFFE0
00000000000003FFFFE0
00000000000007FFFFE0
00000000000007FFFFE0
00000000000007FFFFC0
0000000000000FFFFFC0
0000000000000FFFFFC0
0000000000001FFFFFC0
0000000000003FFFFFC0
0000000000007FFFFF80
000000000001FFFFFF80
000000000007FFFFFF80
00000000003FFFFFFF00
01FFFFFFFFFFFFFFFF00
07FFFFFFFFFFFFFFFE00
0FFFFFFFFFFFFFFFFE00
1FFFFFFFFFFFFFFFFC00
3FFFFFFFFFFFFFFFFC00
7FFFFFFFFFFFFFFFF800
7FFFFFFFFFFFFFFFF000
FFFFFFFFFFFFFFFFE000
FFFFFFFFFFFFFFFFC000
FFFFFFFFFFFFFFFFC000
FFFFFFFFFFFFFFFF8000
FFFFFFFFFFFFFFFE0000
FFFFFFFFFFFFFFFC0000
FFFFFFFFFFFFFFF80000
7FFFFFFFFFFFFFF00000
7FFFFFFFFFFFFFC00000
3FFFFFFFFFFFFF000000
1FFFFFFFFFFFFC000000
0FFFFFFFFFFFF0000000
07FFFFFFFFFF80000000
01FFFFFFFFF000000000
ENDCHAR
STARTCHAR 0036
ENCODING 54
SWIDTH 461 0
DWIDTH 83 0
BBX 75 127 4 0
BITMAP
00000001FFF000000000
0000003FFFFF80000000
000001FFFFFFF0000000
00000FFFFFFFFE000000
00003FFFFFFFFF800000
00007FFFFFFFFFC00000
0001FFFFFFFFFFF00000
0003FFFFFFFFFFF80000
0007FFFFFFFFFFFC0000
000FFFFFFFFFFFFE0000
001FFFFFFFFFFFFF0000
003FFFFFFFFFFFFF8000
007FFFFFFFFFFFFFC000
00FFFFFFFFFFFFFFE000
01FFFFFFFFFFFFFFF000
01FFFFFFFFFFFFFFF000
03FFFFFFFFFFFFFFF800
07FFFFFFFFFFFFFFFC00
07FFFFFFFFFFFFFFFC00
0FFFFFFFFFFFFFFFFE00
0FFFFFFFFFFFFFFFFE00
1FFFFFFF803FFFFFFF00
1FFFFFF80007FFFFFF00
3FFFFFF00001FFFFFF80
3FFFFFC000007FFFFF80
3FFFFF8000003FFFFF80
7FFFFF0000003FFFFFC0
7FFFFF0000001FFFFFC0
7FFFFE0000000FFFFFC0
7FFFFE0000000FFFFFC0
FFFFFC00000007FFFFC0
FFFFFC00000007FFFFE0
FFFFF800000007FFFFE0
FFFFF800000003FFFFE0
FFFFF800000003FFFFE0
FFFFF800000003FFFFE0
FFFFF800000003FFFFE0
FFFFF800000003FFFFE0
FFFFF800000003FFFFE0
FFFFF800000003FFFFE0
FFFFF800000003FFFFE0
FFFFF800000001FFFFC0
FFFFF800000001FFFFC0
FFFFF800000000FFFF80
FFFFF8000000007FFF00
FFFFF8000000003FFE00
FFFFF8000000000FF800
FFFFF80000000001C000
FFFFF800000000000000
FFFFF800000000000000
FFFFF800000000000000
FFFFF800000000000000
FFFFF800000000000000
FFFFFFFFFFF000000000
FFFFFFFFFFFF80000000
FFFFFFFFFFFFF0000000
FFFFFFFFFFFFFC000000
FFFFFFFFFFFFFF000000
FFFFFFFFFFFFFFC00000
7FFFFFFFFFFFFFF00000
7FFFFFFFFFFFFFF80000
7FFFFFFFFFFFFFFC0000
3FFFFFFFFFFFFFFE0000
3FFFFFFFFFFFFFFF8000
3FFFFFFFFFFFFFFFC000
7FFFFFFFFFFFFFFFC000
7FFFFFFFFFFFFFFFE000
7FFFFFFFFFFFFFFFF000
FFFFFFFFFFFFFFFFF800
FFFFFFFFFFFFFFFFF800
FFFFFFFFFFFFFFFFFC00
FFFFFFFFFFFFFFFFFE00
FFFFFFFFFFFFFFFFFE00
FFFFFFFFFFFFFFFFFF00
FFFFF800003FFFFFFF00
FFFFF8000007FFFFFF00
FFFFF8000001FFFFFF80
FFFFF8000000FFFFFF80
FFFFF80000003FFFFF80
FFFFF80000001FFFFFC0
FFFFF80000001FFFFFC0
FFFFF80000000FFFFFC0
FFFFF80000000FFFFFC0
FFFFF800000007FFFFE0
FFFFF800000007FFFFE0
FFFFF800000007FFFFE0
FFFFF800000003FFFFE0
FFFFF800000003FFFFE0
FFFFF800000003FFFFE0
FFFFF800000003FFFFE0
FFFFF800000003FFFFE0
FFFFF800000003FFFFE0
FFFFF800000003FFFFE0
FFFFF800000003FFFFE0
FFFFF800000003FFFFE0
FFFFFC00000007FFFFE0
FFFFFC00000007FFFFE0
7FFFFC00000007FFFFC0
7FFFFE0000000FFFFFC0
7FFFFE0000000FFFFFC0
7FFFFF0000001FFFFFC0
7FFFFF8000003FFFFFC0
3FFFFFC000007FFFFF80
3FFFFFE00000FFFFFF80
3FFFFFF80001FFFFFF80
1FFFFFFE000FFFFFFF00
1FFFFFFFF1FFFFFFFF00
0FFFFFFFFFFFFFFFFE00
0FFFFFFFFFFFFFFFFE00
07FFFFFFFFFFFFFFFC00
07FFFFFFFFFFFFFFFC00
03FFFFFFFFFFFFFFF800
01FFFFFFFFFFFFFFF000
01FFFFFFFFFFFFFFE000
00FFFFFFFFFFFFFFC000
007FFFFFFFFFFFFFC000
003FFFFFFFFFFFFF8000
001FFFFFFFFFFFFE0000
0007FFFFFFFFFFFC0000
0003FFFFFFFFFFF80000
0001FFFFFFFFFFF00000
00007FFFFFFFFFC00000
00001FFFFFFFFF000000
000007FFFFFFFC000000
000001FFFFFFF0000000
0000003FFFFF80000000
00000001FFF000000000
ENDCHAR
STARTCHAR 0037
ENCODING 55
SWIDTH 461 0
DWIDTH 83 0
BBX 74 127 4 0
BITMAP
00FFFFFFFFFFFFF00000
03FFFFFFFFFFFFFE0000
0FFFFFFFFFFFFFFF8000
1FFFFFFFFFFFFFFFC000
3FFFFFFFFFFFFFFFE000
3FFFFFFFFFFFFFFFF800
7FFFFFFFFFFFFFFFFC00
7FFFFFFFFFFFFFFFFC00
7FFFFFFFFFFFFFFFFE00
7FFFFFFFFFFFFFFFFF00
FFFFFFFFFFFFFFFFFF00
7FFFFFFFFFFFFFFFFF80
7FFFFFFFFFFFFFFFFF80
7FFFFFFFFFFFFFFFFFC0
7FFFFFFFFFFFFFFFFFC0
3FFFFFFFFFFFFFFFFFC0
3FFFFFFFFFFFFFFFFFC0
1FFFFFFFFFFFFFFFFFC0
0FFFFFFFFFFFFFFFFFC0
07FFFFFFFFFFFFFFFFC0
00FFFFFFFFFFFFFFFFC0
00000000000007FFFFC0
00000000000007FFFFC0
00000000000007FFFFC0
00000000000007FFFFC0
0000000000000FFFFF80
0000000000000FFFFF80
0000000000000FFFFF80
0000000000000FFFFF80
0000000000001FFFFF00
0000000000001FFFFF00
0000000000001FFFFF00
0000000000001FFFFF00
0000000000003FFFFE00
0000000000003FFFFE00
0000000000003FFFFE00
0000000000007FFFFE00
0000000000007FFFFC00
0000000000007FFFFC00
0000000000007FFFFC00
000000000000FFFFF800
000000000000FFFFF800
000000000000FFFFF800
000000000001FFFFF800
000000000001FFFFF000
000000000001FFFFF000
000000000003FFFFF000
000000000003FFFFE000
000000000003FFFFE000
000000000003FFFFE000
000000000007FFFFE000
000000000007FFFFC000
000000000007FFFFC000
00000000000FFFFFC000
00000000000FFFFF8000
00000000000FFFFF8000
00000000001FFFFF8000
00000000001FFFFF8000
00000000001FFFFF0000
00000000001FFFFF0000
00000000003FFFFF0000
00000000003FFFFE0000
00000000003FFFFE0000
00000000007FFFFE0000
00000000007FFFFC0000
00000000007FFFFC0000
0000000000FFFFFC0000
0000000000FFFFFC0000
0000000000FFFFF80000
0000000000FFFFF80000
0000000001FFFFF80000
0000000001FFFFF00000
0000000001FFFFF00000
0000000003FFFFF00000
0000000003FFFFF00000
0000000003FFFFE00000
0000000007FFFFE00000
0000000007FFFFE00000
0000000007FFFFC00000
0000000007FFFFC00000
000000000FFFFFC00000
000000000FFFFF800000
000000000FFFFF800000
000000001FFFFF800000
000000001FFFFF800000
000000001FFFFF000000
000000003FFFFF000000
000000003FFFFF000000
000000003FFFFE000000
000000003FFFFE000000
000000007FFFFE000000
000000007FFFFE000000
000000007FFFFC000000
00000000FFFFFC000000
00000000FFFFFC000000
00000000FFFFF8000000
00000000FFFFF8000000
00000001FFFFF8000000
00000001FFFFF0000000
00000001FFFFF0000000
00000003FFFFF0000000
00000003FFFFF0000000
00000003FFFFE0000000
00000003FFFFE0000000
00000007FFFFE0000000
00000007FFFFC0000000
00000007FFFFC0000000
00000007FFFFC0000000
0000000FFFFFC0000000
0000000FFFFF80000000
0000000FFFFF80000000
0000000FFFFF80000000
0000000FFFFF80000000
0000001FFFFF00000000
0000001FFFFF00000000
0000001FFFFF00000000
0000001FFFFF00000000
0000001FFFFF00000000
0000001FFFFF00000000
0000001FFFFF00000000
0000000FFFFE00000000
0000000FFFFE00000000
00000007FFFC00000000
00000003FFF800000000
00000001FFF000000000
00000000FFE000000000
000000003F8000000000
ENDCHAR
STARTCHAR 0038
ENCODING 56
SWIDTH 461 0
DWIDTH 83 0
BBX 75 127 4 0
BITMAP
00000001FFF000000000
0000003FFFFF80000000
000001FFFFFFF0000000
00000FFFFFFFFE000000
00003FFFFFFFFF800000
00007FFFFFFFFFC00000
0001FFFFFFFFFFF00000
0003FFFFFFFFFFF80000
0007FFFFFFFFFFFC0000
000FFFFFFFFFFFFF0000
001FFFFFFFFFFFFF8000
003FFFFFFFFFFFFF8000
007FFFFFFFFFFFFFC000
00FFFFFFFFFFFFFFE000
01FFFFFFFFFFFFFFF000
01FFFFFFFFFFFFFFF800
03FFFFFFFFFFFFFFF800
07FFFFFFFFFFFFFFFC00
07FFFFFFFFFFFFFFFC00
0FFFFFFFFFFFFFFFFE00
0FFFFFFFFFFFFFFFFE00
1FFFFFFF803FFFFFFF00
1FFFFFF80003FFFFFF00
3FFFFFF00001FFFFFF80
3FFFFFC000007FFFFF80
3FFFFF8000003FFFFF80
7FFFFF0000001FFFFFC0
7FFFFF0000001FFFFFC0
7FFFFE0000000FFFFFC0
7FFFFE00000007FFFFC0
FFFFFC00000007FFFFE0
FFFFFC00000007FFFFE0
FFFFF800000007FFFFE0
FFFFF800000003FFFFE0
FFFFF800000003FFFFE0
FFFFF800000003FFFFE0
FFFFF800000003FFFFE0
FFFFF800000003FFFFE0
FFFFF800000003FFFFE0
FFFFF800000003FFFFE0
FFFFF800000003FFFFE0
FFFFF800000007FFFFE0
FFFFFC00000007FFFFE0
7FFFFC00000007FFFFC0
7FFFFC0000000FFFFFC0
7FFFFE0000000FFFFFC0
7FFFFF0000001FFFFFC0
7FFFFF0000001FFFFFC0
3FFFFF8000003FFFFF80
3FFFFFC000007FFFFF80
3FFFFFE00001FFFFFF80
1FFFFFF80007FFFFFF00
1FFFFFFF003FFFFFFF00
0FFFFFFFFFFFFFFFFE00
0FFFFFFFFFFFFFFFFE00
07FFFFFFFFFFFFFFFC00
07FFFFFFFFFFFFFFFC00
03FFFFFFFFFFFFFFF800
03FFFFFFFFFFFFFFF800
01FFFFFFFFFFFFFFF000
00FFFFFFFFFFFFFFE000
007FFFFFFFFFFFFFC000
003FFFFFFFFFFFFFC000
001FFFFFFFFFFFFF8000
003FFFFFFFFFFFFFC000
007FFFFFFFFFFFFFC000
00FFFFFFFFFFFFFFE000
01FFFFFFFFFFFFFFF000
03FFFFFFFFFFFFFFF800
03FFFFFFFFFFFFFFF800
07FFFFFFFFFFFFFFFC00
0FFFFFFFFFFFFFFFFE00
0FFFFFFFFFFFFFFFFE00
1FFFFFFFFFFFFFFFFF00
1FFFFFFF003FFFFFFF00
3FFFFFF80007FFFFFF80
3FFFFFF00001FFFFFF80
3FFFFFC000007FFFFF80
7FFFFF8000003FFFFFC0
7FFFFF0000001FFFFFC0
7FFFFE0000001FFFFFC0
7FFFFE0000000FFFFFC0
7FFFFC0000000FFFFFC0
FFFFFC00000007FFFFE0
FFFFFC00000007FFFFE0
FFFFF800000007FFFFE0
FFFFF800000003FFFFE0
FFFFF800000003FFFFE0
FFFFF800000003FFFFE0
FFFFF800000003FFFFE0
FFFFF800000003FFFFE0
FFFFF800000003FFFFE0
FFFFF800000003FFFFE0
FFFFF800000003FFFFE0
FFFFF800000003FFFFE0
FFFFFC00000007FFFFE0
FFFFFC00000007FFFFE0
7FFFFC00000007FFFFC0
7FFFFE0000000FFFFFC0
7FFFFE0000000FFFFFC0
7FFFFF0000001FFFFFC0
7FFFFF8000003FFFFFC0
3FFFFFC000007FFFFF80
3FFFFFE00000FFFFFF80
3FFFFFF80003FFFFFF80
1FFFFFFE000FFFFFFF00
1FFFFFFFFFFFFFFFFF00
0FFFFFFFFFFFFFFFFE00
0FFFFFFFFFFFFFFFFE00
07FFFFFFFFFFFFFFFC00
07FFFFFFFFFFFFFFFC00
03FFFFFFFFFFFFFFF800
01FFFFFFFFFFFFFFF000
01FFFFFFFFFFFFFFE000
00FFFFFFFFFFFFFFE000
007FFFFFFFFFFFFFC000
003FFFFFFFFFFFFF8000
001FFFFFFFFFFFFE0000
0007FFFFFFFFFFFC0000
0003FFFFFFFFFFF80000
0001FFFFFFFFFFF00000
00007FFFFFFFFFC00000
00001FFFFFFFFF000000
000007FFFFFFFC000000
000001FFFFFFF0000000
0000003FFFFF80000000
00000001FFF000000000
ENDCHAR
STARTCHAR 0039
ENCODING 57
SWIDTH 461 0
DWIDTH 83 0
BBX 75 127 4 0
BITMAP
00000001FFF000000000
0000003FFFFF80000000
000001FFFFFFF0000000
000007FFFFFFFE000000
00001FFFFFFFFF800000
00007FFFFFFFFFC00000
0000FFFFFFFFFFF00000
0003FFFFFFFFFFF80000
0007FFFFFFFFFFFC0000
000FFFFFFFFFFFFF0000
003FFFFFFFFFFFFF8000
007FFFFFFFFFFFFF8000
007FFFFFFFFFFFFFC000
00FFFFFFFFFFFFFFE000
01FFFFFFFFFFFFFFF000
03FFFFFFFFFFFFFFF800
07FFFFFFFFFFFFFFF800
07FFFFFFFFFFFFFFFC00
0FFFFFFFFFFFFFFFFC00
0FFFFFFFFFFFFFFFFE00
1FFFFFFFFFFFFFFFFE00
1FFFFFFF803FFFFFFF00
3FFFFFFC0007FFFFFF00
3FFFFFF00001FFFFFF80
3FFFFFC000007FFFFF80
7FFFFF8000003FFFFF80
7FFFFF0000001FFFFFC0
7FFFFF0000001FFFFFC0
7FFFFE0000000FFFFFC0
7FFFFC0000000FFFFFC0
FFFFFC00000007FFFFE0
FFFFFC00000007FFFFE0
FFFFF800000007FFFFE0
FFFFF800000003FFFFE0
FFFFF800000003FFFFE0
FFFFF800000003FFFFE0
FFFFF800000003FFFFE0
FFFFF800000003FFFFE0
FFFFF800000003FFFFE0
FFFFF800000003FFFFE0
FFFFF800000003FFFFE0
FFFFF800000003FFFFE0
FFFFFC00000003FFFFE0
FFFFFC00000003FFFFE0
7FFFFC00000003FFFFE0
7FFFFE00000003FFFFE0
7FFFFF00000003FFFFE0
7FFFFF00000003FFFFE0
7FFFFF80000003FFFFE0
3FFFFFC0000003FFFFE0
3FFFFFF0000003FFFFE0
3FFFFFFC000003FFFFE0
1FFFFFFF800003FFFFE0
1FFFFFFFFFFFFFFFFFE0
0FFFFFFFFFFFFFFFFFE0
0FFFFFFFFFFFFFFFFFE0
07FFFFFFFFFFFFFFFFE0
07FFFFFFFFFFFFFFFFE0
03FFFFFFFFFFFFFFFFE0
01FFFFFFFFFFFFFFFFC0
00FFFFFFFFFFFFFFFFC0
00FFFFFFFFFFFFFFFFC0
007FFFFFFFFFFFFFFF80
003FFFFFFFFFFFFFFF80
001FFFFFFFFFFFFFFF80
0007FFFFFFFFFFFFFFC0
0003FFFFFFFFFFFFFFC0
0001FFFFFFFFFFFFFFC0
00007FFFFFFFFFFFFFE0
00001FFFFFFFFFFFFFE0
000007FFFFFFFFFFFFE0
000001FFFFFFFFFFFFE0
0000003FFFFFFFFFFFE0
00000001FFFFFFFFFFE0
00000000000003FFFFE0
00000000000003FFFFE0
00000000000003FFFFE0
00000000000003FFFFE0
00000000000003FFFFE0
00000000000003FFFFE0
00000000000003FFFFE0
00000000000003FFFFE0
00000000000003FFFFE0
00000000000003FFFFE0
00000000000003FFFFE0
00000000000003FFFFE0
00000000000003FFFFE0
00000000000003FFFFE0
00000000000003FFFFE0
00000000000003FFFFE0
00000000000003FFFFE0
00000000000003FFFFE0
00000000000003FFFFE0
00000000000003FFFFE0
00000000000003FFFFE0
00000000000003FFFFE0
00000000000003FFFFE0
00000000000003FFFFE0
00000000000003FFFFE0
00000000000003FFFFE0
00000000000003FFFFE0
00000000000003FFFFE0
00000000000003FFFFE0
00000000000003FFFFE0
00000000000003FFFFE0
00000000000003FFFFE0
00000000000003FFFFE0
00000000000003FFFFE0
00000000000003FFFFE0
00000000000003FFFFE0
00000000000003FFFFE0
00000000000003FFFFE0
00000000000003FFFFE0
00000000000003FFFFE0
00000000000003FFFFE0
00000000000003FFFFE0
00000000000003FFFFE0
00000000000003FFFFE0
00000000000003FFFFE0
00000000000003FFFFE0
00000000000001FFFFC0
00000000000001FFFFC0
00000000000000FFFF80
00000000000000FFFF00
000000000000007FFE00
000000000000001FFC00
0000000000000007F000
ENDCHAR
STARTCHAR 003A
ENCODING 58
SWIDTH 166 0
DWIDTH 30 0
BBX 21 100 4 0
BITMAP
01FC00
07FF00
0FFF80
1FFFC0
3FFFE0
7FFFF0
7FFFF0
FFFFF8
FFFFF8
FFFFF8
FFFFF8
FFFFF8
FFFFF8
FFFFF8
7FFFF0
7FFFF0
3FFFE0
1FFFC0
0FFF80
07FF00
01FC00
000000
000000
000000
000000
000000
000000
000000
000000
000000
000000
000000
000000
000000
000000
000000
000000
000000
000000
000000
000000
000000
000000
000000
000000
000000
000000
000000
000000
000000
000000
000000
000000
000000
000000
000000
000000
000000
000000
000000
000000
000000
000000
000000
000000
000000
000000
000000
000000
000000
000000
000000
000000
000000
000000
000000
000000
000000
000000
01FC00
07FF00
0FFF80
1FFFC0
3FFFE0
7FFFF0
7FFFF0
FFFFF8
FFFFF8
FFFFF8
FFFFF8
FFFFF8
FFFFF8
FFFFF8
7FFFF0
7FFFF0
3FFFE0
1FFFC0
0FFF80
07FF00
01FC00
ENDCHAR
STARTCHAR 003B
ENCODING 59
SWIDTH 166 0
DWIDTH 30 0
BBX 21 127 4 -27
BITMAP
01FC00
07FF00
0FFF80
1FFFC0
3FFFE0
7FFFF0
7FFFF0
FFFFF8
FFFFF8
FFFFF8
FFFFF8
FFFFF8
FFFFF8
FFFFF8
7FFFF0
7FFFF0
3FFFE0
1FFFC0
0FFF80
07FF00
01FC00
000000
000000
000000
000000
000000
000000
000000
000000
000000
000000
000000
000000
000000
000000
000000
000000
000000
000000
000000
000000
000000
000000
000000
000000
000000
000000
000000
000000
000000
000000
000000
000000
000000
000000
000000
000000
000000
000000
000000
000000
000000
000000
000000
000000
000000
000000
000000
000000
000000
000000
000000
000000
000000
000000
000000
000000
000000
000000
000000
01FC00
07FF00
1FFFC0
3FFFE0
3FFFE0
7FFFF0
7FFFF0
FFFFF8
FFFFF8
FFFFF8
FFFFF8
FFFFF8
FFFFF8
FFFFF8
FFFFF8
FFFFF8
FFFFF8
FFFFF8
FFFFF8
FFFFF8
FFFFF8
FFFFF8
FFFFF8
FFFFF8
FFFFF8
FFFFF8
FFFFF8
FFFFF8
FFFFF8
FFFFF8
FFFFF8
FFFFF8
FFFFF8
FFFFF8
FFFFF8
FFFFF8
FFFFF8
FFFFF8
FFFFF8
FFFFF8
7FFFF0
7FFFF0
3FFFE0
1FFFC0
0FFF80
07FF00
01FC00
ENDCHAR
STARTCHAR 003C
ENCODING 60
SWIDTH 461 0
DWIDTH 83 0
BBX 74 74 4 26
BITMAP
000000000000007FE000
0000000000000FFFF800
0000000000007FFFFE00
000000000003FFFFFF00
00000000001FFFFFFF00
00000000007FFFFFFF80
0000000001FFFFFFFFC0
0000000007FFFFFFFFC0
000000001FFFFFFFFFC0
000000003FFFFFFFFFC0
00000000FFFFFFFFFFC0
00000003FFFFFFFFFFC0
00000007FFFFFFFFFFC0
0000000FFFFFFFFFFFC0
0000003FFFFFFFFFFFC0
0000007FFFFFFFFFFF80
000001FFFFFFFFFFFF80
000003FFFFFFFFFFFF00
000007FFFFFFFFFFFE00
00000FFFFFFFFFFFFC00
00003FFFFFFFFFFFE000
00007FFFFFFFFFE00000
0000FFFFFFFFFC000000
0001FFFFFFFFE0000000
0003FFFFFFFF80000000
000FFFFFFFFE00000000
001FFFFFFFF800000000
01FFFFFFFFF000000000
07FFFFFFFFC000000000
0FFFFFFFFF8000000000
1FFFFFFFFE0000000000
3FFFFFFFFC0000000000
7FFFFFFFF80000000000
7FFFFFFFE00000000000
7FFFFFFFC00000000000
7FFFFFFF800000000000
FFFFFFFE000000000000
FFFFFFFE000000000000
7FFFFFFF800000000000
7FFFFFFFC00000000000
7FFFFFFFE00000000000
7FFFFFFFF00000000000
3FFFFFFFFC0000000000
1FFFFFFFFE0000000000
0FFFFFFFFF0000000000
07FFFFFFFFC000000000
01FFFFFFFFF000000000
001FFFFFFFF800000000
000FFFFFFFFE00000000
0003FFFFFFFF80000000
0001FFFFFFFFF0000000
0000FFFFFFFFFC000000
00007FFFFFFFFFE00000
00003FFFFFFFFFFFE000
00000FFFFFFFFFFFF800
000007FFFFFFFFFFFE00
000003FFFFFFFFFFFF00
000001FFFFFFFFFFFF00
0000007FFFFFFFFFFF80
0000003FFFFFFFFFFFC0
0000001FFFFFFFFFFFC0
00000007FFFFFFFFFFC0
00000003FFFFFFFFFFC0
00000000FFFFFFFFFFC0
000000007FFFFFFFFFC0
000000001FFFFFFFFFC0
0000000007FFFFFFFFC0
0000000003FFFFFFFFC0
00000000007FFFFFFF80
00000000001FFFFFFF80
000000000007FFFFFF00
000000000000FFFFFE00
0000000000000FFFFC00
000000000000007FE000
ENDCHAR
STARTCHAR 003D
ENCODING 61
SWIDTH 461 0
DWIDTH 83 0
BBX 74 57 4 35
BITMAP
00FFFFFFFFFFFFFFE000
03FFFFFFFFFFFFFFF800
0FFFFFFFFFFFFFFFFE00
1FFFFFFFFFFFFFFFFF00
3FFFFFFFFFFFFFFFFF00
3FFFFFFFFFFFFFFFFF80
7FFFFFFFFFFFFFFFFFC0
7FFFFFFFFFFFFFFFFFC0
7FFFFFFFFFFFFFFFFFC0
7FFFFFFFFFFFFFFFFFC0
FFFFFFFFFFFFFFFFFFC0
7FFFFFFFFFFFFFFFFFC0
7FFFFFFFFFFFFFFFFFC0
7FFFFFFFFFFFFFFFFFC0
7FFFFFFFFFFFFFFFFFC0
3FFFFFFFFFFFFFFFFF80
3FFFFFFFFFFFFFFFFF80
1FFFFFFFFFFFFFFFFF00
0FFFFFFFFFFFFFFFFE00
07FFFFFFFFFFFFFFFC00
00FFFFFFFFFFFFFFE000
00000000000000000000
00000000000000000000
00000000000000000000
00000000000000000000
00000000000000000000
00000000000000000000
00000000000000000000
00000000000000000000
00000000000000000000
00000000000000000000
00000000000000000000
00000000000000000000
00000000000000000000
00000000000000000000
00000000000000000000
00FFFFFFFFFFFFFFE000
03FFFFFFFFFFFFFFF800
0FFFFFFFFFFFFFFFFE00
1FFFFFFFFFFFFFFFFF00
3FFFFFFFFFFFFFFFFF00
3FFFFFFFFFFFFFFFFF80
7FFFFFFFFFFFFFFFFFC0
7FFFFFFFFFFFFFFFFFC0
7FFFFFFFFFFFFFFFFFC0
7FFFFFFFFFFFFFFFFFC0
FFFFFFFFFFFFFFFFFFC0
7FFFFFFFFFFFFFFFFFC0
7FFFFFFFFFFFFFFFFFC0
7FFFFFFFFFFFFFFFFFC0
7FFFFFFFFFFFFFFFFFC0
3FFFFFFFFFFFFFFFFF80
3FFFFFFFFFFFFFFFFF80
1FFFFFFFFFFFFFFFFF00
0FFFFFFFFFFFFFFFFE00
07FFFFFFFFFFFFFFFC00
00FFFFFFFFFFFFFFE000
ENDCHAR
STARTCHAR 003E
ENCODING 62
SWIDTH 461 0
DWIDTH 83 0
BBX 74 74 4 26
BITMAP
00FFC000000000000000
03FFFE00000000000000
0FFFFFE0000000000000
1FFFFFFC000000000000
3FFFFFFF000000000000
3FFFFFFFC00000000000
7FFFFFFFF00000000000
7FFFFFFFFC0000000000
7FFFFFFFFF0000000000
7FFFFFFFFFC000000000
FFFFFFFFFFE000000000
7FFFFFFFFFF800000000
7FFFFFFFFFFC00000000
7FFFFFFFFFFF00000000
7FFFFFFFFFFF80000000
3FFFFFFFFFFFC0000000
3FFFFFFFFFFFF0000000
1FFFFFFFFFFFF8000000
0FFFFFFFFFFFFC000000
07FFFFFFFFFFFE000000
00FFFFFFFFFFFF800000
0000FFFFFFFFFFC00000
00000FFFFFFFFFE00000
000001FFFFFFFFF00000
0000007FFFFFFFF80000
0000001FFFFFFFFE0000
00000007FFFFFFFF0000
00000001FFFFFFFFF000
000000007FFFFFFFFC00
000000003FFFFFFFFE00
000000000FFFFFFFFF00
0000000007FFFFFFFF80
0000000003FFFFFFFF80
0000000000FFFFFFFFC0
00000000007FFFFFFFC0
00000000003FFFFFFFC0
00000000000FFFFFFFC0
00000000000FFFFFFFC0
00000000003FFFFFFFC0
00000000007FFFFFFFC0
0000000000FFFFFFFFC0
0000000001FFFFFFFF80
0000000007FFFFFFFF80
000000000FFFFFFFFF00
000000003FFFFFFFFE00
000000007FFFFFFFFC00
00000001FFFFFFFFF000
00000007FFFFFFFF0000
0000000FFFFFFFFE0000
0000003FFFFFFFF80000
000001FFFFFFFFF00000
00000FFFFFFFFFE00000
0000FFFFFFFFFFC00000
00FFFFFFFFFFFF800000
03FFFFFFFFFFFE000000
0FFFFFFFFFFFFC000000
1FFFFFFFFFFFF8000000
3FFFFFFFFFFFE0000000
3FFFFFFFFFFFC0000000
7FFFFFFFFFFF80000000
7FFFFFFFFFFE00000000
7FFFFFFFFFFC00000000
7FFFFFFFFFF800000000
FFFFFFFFFFE000000000
7FFFFFFFFF8000000000
7FFFFFFFFF0000000000
7FFFFFFFFC0000000000
7FFFFFFFF00000000000
3FFFFFFFC00000000000
3FFFFFFF000000000000
1FFFFFF8000000000000
0FFFFFC0000000000000
07FFFE00000000000000
00FFC000000000000000
ENDCHAR
STARTCHAR 003F
ENCODING 63
SWIDTH 461 0
DWIDTH 83 0
BBX 74 127 4 0
BITMAP
00000001FFF000000000
0000003FFFFF80000000
000001FFFFFFF0000000
000007FFFFFFFC000000
00001FFFFFFFFF000000
00007FFFFFFFFFC00000
0000FFFFFFFFFFE00000
0003FFFFFFFFFFF80000
0007FFFFFFFFFFFC0000
000FFFFFFFFFFFFE0000
001FFFFFFFFFFFFF0000
003FFFFFFFFFFFFF8000
007FFFFFFFFFFFFFC000
00FFFFFFFFFFFFFFC000
00FFFFFFFFFFFFFFE000
01FFFFFFFFFFFFFFF000
03FFFFFFFFFFFFFFF800
03FFFFFFFFFFFFFFF800
07FFFFFFFFFFFFFFFC00
07FFFFFFFFFFFFFFFC00
0FFFFFFFFFFFFFFFFE00
0FFFFFFF803FFFFFFE00
1FFFFFFC0007FFFFFF00
1FFFFFF00001FFFFFF00
3FFFFFC000007FFFFF00
3FFFFF8000003FFFFF80
3FFFFF8000001FFFFF80
3FFFFF0000001FFFFF80
7FFFFE0000000FFFFF80
7FFFFE0000000FFFFFC0
7FFFFC00000007FFFFC0
7FFFFC00000007FFFFC0
7FFFFC00000007FFFFC0
7FFFF800000003FFFFC0
FFFFF800000003FFFFC0
FFFFF800000003FFFFC0
FFFFF800000003FFFFC0
FFFFF800000003FFFFC0
FFFFF800000003FFFFC0
7FFFF800000003FFFFC0
7FFFF800000007FFFFC0
7FFFF000000007FFFFC0
3FFFF000000007FFFFC0
3FFFE000000007FFFFC0
1FFFC00000000FFFFFC0
0FFF800000000FFFFFC0
03FF000000001FFFFF80
0070000000001FFFFF80
0000000000003FFFFF80
0000000000007FFFFF00
000000000000FFFFFF00
000000000001FFFFFF00
00000000000FFFFFFE00
00000000007FFFFFFE00
0000000001FFFFFFFC00
0000000007FFFFFFFC00
000000001FFFFFFFF800
000000003FFFFFFFF800
000000007FFFFFFFF000
00000000FFFFFFFFF000
00000001FFFFFFFFE000
00000003FFFFFFFFC000
00000003FFFFFFFF8000
00000007FFFFFFFF0000
00000007FFFFFFFE0000
0000000FFFFFFFFC0000
0000000FFFFFFFF80000
0000000FFFFFFFF00000
0000001FFFFFFFE00000
0000001FFFFFFF800000
0000001FFFFFFE000000
0000001FFFFFF8000000
0000001FFFFFC0000000
0000001FFFFF00000000
0000001FFFFF00000000
0000001FFFFF00000000
0000001FFFFF00000000
0000001FFFFF00000000
0000001FFFFF00000000
0000001FFFFF00000000
0000001FFFFF00000000
0000001FFFFF00000000
0000001FFFFF00000000
0000001FFFFF00000000
0000001FFFFF00000000
0000001FFFFF00000000
0000001FFFFF00000000
0000001FFFFF00000000
0000001FFFFF00000000
0000001FFFFF00000000
0000001FFFFF00000000
0000001FFFFF00000000
0000001FFFFF00000000
0000001FFFFF00000000
0000000FFFFE00000000
0000000FFFFE00000000
00000007FFFC00000000
00000003FFF800000000
00000001FFF000000000
00000000FFC000000000
000000001F0000000000
00000000000000000000
00000000000000000000
00000000000000000000
00000000000000000000
00000000000000000000
000000003F8000000000
00000000FFE000000000
00000001FFF000000000
00000003FFF800000000
00000007FFFC00000000
0000000FFFFE00000000
0000000FFFFE00000000
0000001FFFFF00000000
0000001FFFFF00000000
0000001FFFFF00000000
0000001FFFFF00000000
0000001FFFFF00000000
0000001FFFFF00000000
0000001FFFFF00000000
0000000FFFFE00000000
0000000FFFFE00000000
00000007FFFC00000000
00000003FFF800000000
00000001FFF000000000
00000000FFE000000000
000000003F8000000000
ENDCHAR
STARTCHAR 0040
ENCODING 64
SWIDTH 755 0
DWIDTH 136 0
BBX 128 127 4 0
BITMAP
00000001FFFFFFFFFFFFFFFFC0000000
0000003FFFFFFFFFFFFFFFFFFC000000
000001FFFFFFFFFFFFFFFFFFFFC00000
000007FFFFFFFFFFFFFFFFFFFFF00000
00001FFFFFFFFFFFFFFFFFFFFFFC0000
00007FFFFFFFFFFFFFFFFFFFFFFF0000
0001FFFFFFFFFFFFFFFFFFFFFFFF8000
0003FFFFFFFFFFFFFFFFFFFFFFFFC000
0007FFFFFFFFFFFFFFFFFFFFFFFFF000
001FFFFFFFFFFFFFFFFFFFFFFFFFF800
003FFFFFFFFFFFFFFFFFFFFFFFFFFC00
007FFFFFFFFFFFFFFFFFFFFFFFFFFC00
00FFFFFFFFFFFFFFFFFFFFFFFFFFFE00
00FFFFFFFFFFFFFFFFFFFFFFFFFFFF00
01FFFFFFFFFFFFFFFFFFFFFFFFFFFF80
03FFFFFFFFFFFFFFFFFFFFFFFFFFFFC0
07FFFFFFFFFFFFFFFFFFFFFFFFFFFFC0
07FFFFFFFFFFFFFFFFFFFFFFFFFFFFE0
0FFFFFFFFFFFFFFFFFFFFFFFFFFFFFE0
0FFFFFFFFFFFFFFFFFFFFFFFFFFFFFF0
1FFFFFFFFFFFFFFFFFFFFFFFFFFFFFF0
1FFFFFFF8000000000000001FFFFFFF8
3FFFFFF800000000000000003FFFFFF8
3FFFFFF000000000000000000FFFFFFC
3FFFFFC0000000000000000003FFFFFC
7FFFFF80000000000000000001FFFFFC
7FFFFF00000000000000000000FFFFFE
7FFFFE0000000007FFFE000000FFFFFE
7FFFFE000000001FFFFFE000007FFFFE
7FFFFC000000003FFFFFFC00007FFFFE
FFFFFC000000007FFFFFFF00003FFFFE
FFFFFC00000000FFFFFFFF80003FFFFF
FFFFF800000001FFFFFFFFE0003FFFFF
FFFFF800000001FFFFFFFFF0001FFFFF
FFFFF800000003FFFFFFFFF8001FFFFF
FFFFF800000003FFFFFFFFFC001FFFFF
FFFFF800000003FFFFFFFFFE001FFFFF
FFFFF800000003FFFFFFFFFF001FFFFF
FFFFF800000003FFFFFFFFFF001FFFFF
FFFFF800000003FFFFFFFFFF801FFFFF
FFFFF800000003FFFFFFFFFF801FFFFF
FFFFF800000001FFFFFFFFFFC01FFFFF
FFFFF800000001FFFFFFFFFFE01FFFFF
FFFFF800000000FFFFFFFFFFE01FFFFF
FFFFF8000000007FFFFFFFFFE01FFFFF
FFFFF8000000003FFFFFFFFFF01FFFFF
FFFFF8000000001FFFFFFFFFF01FFFFF
FFFFF80000000007FFFFFFFFF01FFFFF
FFFFF800000000000007FFFFF81FFFFF
FFFFF800000000000001FFFFF81FFFFF
FFFFF800000000000001FFFFF81FFFFF
FFFFF800000000000000FFFFF81FFFFF
FFFFF800000000000000FFFFF81FFFFF
FFFFF800003FFFFFFFFFFFFFF81FFFFF
FFFFF80001FFFFFFFFFFFFFFF81FFFFF
FFFFF80007FFFFFFFFFFFFFFF81FFFFF
FFFFF8001FFFFFFFFFFFFFFFF81FFFFF
FFFFF8003FFFFFFFFFFFFFFFF81FFFFF
FFFFF8007FFFFFFFFFFFFFFFF81FFFFF
FFFFF800FFFFFFFFFFFFFFFFF81FFFFF
FFFFF801FFFFFFFFFFFFFFFFF01FFFFF
FFFFF803FFFFFFFFFFFFFFFFF01FFFFF
FFFFF803FFFFFFFFFFFFFFFFF01FFFFF
FFFFF807FFFFFFFFFFFFFFFFE01FFFFF
FFFFF807FFFFFFFFFFFFFFFFE01FFFFF
FFFFF807FFFFFFFFFFFFFFFFF01FFFFF
FFFFF80FFFFFFFFFFFFFFFFFF01FFFFF
FFFFF80FFFFFFFFFFFFFFFFFF01FFFFF
FFFFF80FFFFFFFFFFFFFFFFFF81FFFFF
FFFFF80FFFFFFFFFFFFFFFFFF81FFFFF
FFFFF80FFFFFFFFFFFFFFFFFF81FFFFF
FFFFF81FFFFFFFFFFFFFFFFFF81FFFFF
FFFFF81FFFFFFFFFFFFFFFFFF81FFFFF
FFFFF81FFFFFFFFFFFFFFFFFF81FFFFF
FFFFF81FFFFF00000000FFFFF81FFFFF
FFFFF80FFFFF00000000FFFFF81FFFFF
FFFFF80FFFFF80000000FFFFF81FFFFF
FFFFF80FFFFF80000000FFFFF81FFFFF
FFFFF80FFFFFC0000000FFFFF81FFFFF
FFFFF80FFFFFF0000000FFFFF81FFFFF
FFFFF80FFFFFFFFFFFFFFFFFFFFFFFFF
FFFFF807FFFFFFFFFFFFFFFFFFFFFFFF
FFFFF807FFFFFFFFFFFFFFFFFFFFFFFF
FFFFF807FFFFFFFFFFFFFFFFFFFFFFFF
FFFFF803FFFFFFFFFFFFFFFFFFFFFFFF
FFFFF803FFFFFFFFFFFFFFFFFFFFFFFF
FFFFF801FFFFFFFFFFFFFFFFFFFFFFFE
FFFFF801FFFFFFFFFFFFFFFFFFFFFFFE
FFFFF800FFFFFFFFFFFFFFFFFFFFFFFE
FFFFF8007FFFFFFFFFFFFFFFFFFFFFFE
FFFFF8007FFFFFFFFFFFFFFFFFFFFFFC
FFFFF8003FFFFFFFFFFFFFFFFFFFFFFC
FFFFF8001FFFFFFFFFFFFFFFFFFFFFF8
FFFFF8000FFFFFFFFFFFFFFFFFFFFFF0
FFFFFC0007FFFFFFFFFFFFFFFFFFFFE0
FFFFFC0003FFFFFFFFFFFFFFFFFFFFC0
FFFFFC0001FFFFFFFFFFFFFFFFFFFF80
7FFFFE00007FFFFFFFFFFFFFFFFFFF00
7FFFFE00001FFFFFFFFFFFFFFFFFFC00
7FFFFF000007FFFFFFFFFFCFFFFFF000
7FFFFF0000003FFFFFFFFC01FFFF8000
3FFFFF80000000000000000000000000
3FFFFFC0000000000000000000000000
3FFFFFE0000000000000000000000000
1FFFFFF8000000000000000000000000
1FFFFFFF000000000000000000000000
0FFFFFFFFFFFFFFFFFFFFFFC00000000
0FFFFFFFFFFFFFFFFFFFFFFF00000000
07FFFFFFFFFFFFFFFFFFFFFF80000000
07FFFFFFFFFFFFFFFFFFFFFFC0000000
03FFFFFFFFFFFFFFFFFFFFFFE0000000
03FFFFFFFFFFFFFFFFFFFFFFF0000000
01FFFFFFFFFFFFFFFFFFFFFFF0000000
00FFFFFFFFFFFFFFFFFFFFFFF0000000
007FFFFFFFFFFFFFFFFFFFFFF8000000
007FFFFFFFFFFFFFFFFFFFFFF8000000
003FFFFFFFFFFFFFFFFFFFFFF8000000
001FFFFFFFFFFFFFFFFFFFFFF8000000
000FFFFFFFFFFFFFFFFFFFFFF8000000
0003FFFFFFFFFFFFFFFFFFFFF0000000
0001FFFFFFFFFFFFFFFFFFFFF0000000
0000FFFFFFFFFFFFFFFFFFFFE0000000
00003FFFFFFFFFFFFFFFFFFFE0000000
00000FFFFFFFFFFFFFFFFFFFC0000000
000003FFFFFFFFFFFFFFFFFF80000000
0000007FFFFFFFFFFFFFFFFF00000000
00000003FFFFFFFFFFFFFFFC00000000
ENDCHAR
STARTCHAR 0041
ENCODING 65
SWIDTH 461 0
DWIDTH 83 0
BBX 75 127 4 0
BITMAP
00000001FFF000000000
0000003FFFFF80000000
000001FFFFFFF0000000
00000FFFFFFFFE000000
00003FFFFFFFFF800000
00007FFFFFFFFFC00000
0001FFFFFFFFFFF00000
0003FFFFFFFFFFF80000
0007FFFFFFFFFFFC0000
000FFFFFFFFFFFFF0000
001FFFFFFFFFFFFF8000
003FFFFFFFFFFFFF8000
007FFFFFFFFFFFFFC000
00FFFFFFFFFFFFFFE000
01FFFFFFFFFFFFFFF000
01FFFFFFFFFFFFFFF800
03FFFFFFFFFFFFFFF800
07FFFFFFFFFFFFFFFC00
07FFFFFFFFFFFFFFFC00
0FFFFFFFFFFFFFFFFE00
0FFFFFFFFFFFFFFFFE00
1FFFFFFF803FFFFFFF00
1FFFFFF80007FFFFFF00
3FFFFFF00001FFFFFF80
3FFFFFC000007FFFFF80
3FFFFF8000003FFFFF80
7FFFFF0000001FFFFFC0
7FFFFF0000001FFFFFC0
7FFFFE0000000FFFFFC0
7FFFFE0000000FFFFFC0
FFFFFC00000007FFFFE0
FFFFFC00000007FFFFE0
FFFFF800000007FFFFE0
FFFFF800000003FFFFE0
FFFFF800000003FFFFE0
FFFFF800000003FFFFE0
FFFFF800000003FFFFE0
FFFFF800000003FFFFE0
FFFFF800000003FFFFE0
FFFFF800000003FFFFE0
FFFFF800000003FFFFE0
FFFFF800000003FFFFE0
FFFFF800000003FFFFE0
FFFFF800000003FFFFE0
FFFFF800000003FFFFE0
FFFFF800000003FFFFE0
FFFFF800000003FFFFE0
FFFFF800000003FFFFE0
FFFFF800000003FFFFE0
FFFFF800000003FFFFE0
FFFFF800000003FFFFE0
FFFFF800000003FFFFE0
FFFFF800000003FFFFE0
FFFFFFFFFFFFFFFFFFE0
FFFFFFFFFFFFFFFFFFE0
FFFFFFFFFFFFFFFFFFE0
FFFFFFFFFFFFFFFFFFE0
FFFFFFFFFFFFFFFFFFE0
FFFFFFFFFFFFFFFFFFE0
7FFFFFFFFFFFFFFFFFC0
7FFFFFFFFFFFFFFFFFC0
7FFFFFFFFFFFFFFFFFC0
3FFFFFFFFFFFFFFFFF80
3FFFFFFFFFFFFFFFFF80
3FFFFFFFFFFFFFFFFF80
7FFFFFFFFFFFFFFFFFC0
7FFFFFFFFFFFFFFFFFC0
7FFFFFFFFFFFFFFFFFC0
FFFFFFFFFFFFFFFFFFE0
FFFFFFFFFFFFFFFFFFE0
FFFFFFFFFFFFFFFFFFE0
FFFFFFFFFFFFFFFFFFE0
FFFFFFFFFFFFFFFFFFE0
FFFFFFFFFFFFFFFFFFE0
FFFFF800000003FFFFE0
FFFFF800000003FFFFE0
FFFFF800000003FFFFE0
FFFFF800000003FFFFE0
FFFFF800000003FFFFE0
FFFFF800000003FFFFE0
FFFFF800000003FFFFE0
FFFFF800000003FFFFE0
FFFFF800000003FFFFE0
FFFFF800000003FFFFE0
FFFFF800000003FFFFE0
FFFFF800000003FFFFE0
FFFFF800000003FFFFE0
FFFFF800000003FFFFE0
FFFFF800000003FFFFE0
FFFFF800000003FFFFE0
FFFFF800000003FFFFE0
FFFFF800000003FFFFE0
FFFFF800000003FFFFE0
FFFFF800000003FFFFE0
FFFFF800000003FFFFE0
FFFFF800000003FFFFE0
FFFFF800000003FFFFE0
FFFFF800000003FFFFE0
FFFFF800000003FFFFE0
FFFFF800000003FFFFE0
FFFFF800000003FFFFE0
FFFFF800000003FFFFE0
FFFFF800000003FFFFE0
FFFFF800000003FFFFE0
FFFFF800000003FFFFE0
FFFFF800000003FFFFE0
FFFFF800000003FFFFE0
FFFFF800000003FFFFE0
FFFFF800000003FFFFE0
FFFFF800000003FFFFE0
FFFFF800000003FFFFE0
FFFFF800000003FFFFE0
FFFFF800000003FFFFE0
FFFFF800000003FFFFE0
FFFFF800000003FFFFE0
FFFFF800000003FFFFE0
FFFFF800000003FFFFE0
FFFFF800000003FFFFE0
FFFFF800000003FFFFE0
FFFFF800000003FFFFE0
7FFFF000000001FFFFC0
7FFFF000000001FFFFC0
3FFFE000000000FFFF80
3FFFE000000000FFFF00
1FFFC0000000007FFE00
07FF00000000001FFC00
01FC000000000007F000
ENDCHAR
STARTCHAR 0042
ENCODING 66
SWIDTH 461 0
DWIDTH 83 0
BBX 75 127 4 0
BITMAP
0001FFFFFFF000000000
000FFFFFFFFF80000000
003FFFFFFFFFF0000000
00FFFFFFFFFFFC000000
01FFFFFFFFFFFF000000
03FFFFFFFFFFFFC00000
07FFFFFFFFFFFFF00000
0FFFFFFFFFFFFFF80000
1FFFFFFFFFFFFFFC0000
3FFFFFFFFFFFFFFF0000
3FFFFFFFFFFFFFFF8000
7FFFFFFFFFFFFFFFC000
7FFFFFFFFFFFFFFFE000
7FFFFFFFFFFFFFFFE000
7FFFFFFFFFFFFFFFF000
FFFFFFFFFFFFFFFFF800
FFFFFFFFFFFFFFFFFC00
FFFFFFFFFFFFFFFFFC00
FFFFFFFFFFFFFFFFFE00
FFFFFFFFFFFFFFFFFE00
FFFFFFFFFFFFFFFFFF00
FFFFF800003FFFFFFF00
FFFFF8000007FFFFFF80
FFFFF8000001FFFFFF80
FFFFF80000007FFFFF80
FFFFF80000003FFFFFC0
FFFFF80000001FFFFFC0
FFFFF80000001FFFFFC0
FFFFF80000000FFFFFC0
FFFFF800000007FFFFC0
FFFFF800000007FFFFE0
FFFFF800000007FFFFE0
FFFFF800000003FFFFE0
FFFFF800000003FFFFE0
FFFFF800000003FFFFE0
FFFFF800000003FFFFE0
FFFFF800000003FFFFE0
FFFFF800000003FFFFE0
FFFFF800000003FFFFE0
FFFFF800000003FFFFE0
FFFFF800000003FFFFE0
FFFFF800000003FFFFE0
FFFFF800000007FFFFE0
FFFFF800000007FFFFE0
FFFFF800000007FFFFC0
FFFFF80000000FFFFFC0
FFFFF80000001FFFFFC0
FFFFF80000001FFFFFC0
FFFFF80000003FFFFFC0
FFFFF80000007FFFFF80
FFFFF8000001FFFFFF80
FFFFF8000007FFFFFF80
FFFFF800003FFFFFFF00
FFFFFFFFFFFFFFFFFF00
FFFFFFFFFFFFFFFFFE00
FFFFFFFFFFFFFFFFFE00
FFFFFFFFFFFFFFFFFC00
FFFFFFFFFFFFFFFFF800
FFFFFFFFFFFFFFFFF800
7FFFFFFFFFFFFFFFF000
7FFFFFFFFFFFFFFFE000
7FFFFFFFFFFFFFFFC000
3FFFFFFFFFFFFFFFC000
3FFFFFFFFFFFFFFF8000
3FFFFFFFFFFFFFFFC000
7FFFFFFFFFFFFFFFC000
7FFFFFFFFFFFFFFFE000
7FFFFFFFFFFFFFFFF000
FFFFFFFFFFFFFFFFF800
FFFFFFFFFFFFFFFFF800
FFFFFFFFFFFFFFFFFC00
FFFFFFFFFFFFFFFFFE00
FFFFFFFFFFFFFFFFFE00
FFFFFFFFFFFFFFFFFF00
FFFFF800003FFFFFFF00
FFFFF8000007FFFFFF80
FFFFF8000001FFFFFF80
FFFFF80000007FFFFF80
FFFFF80000003FFFFFC0
FFFFF80000001FFFFFC0
FFFFF80000001FFFFFC0
FFFFF80000000FFFFFC0
FFFFF800000007FFFFC0
FFFFF800000007FFFFE0
FFFFF800000007FFFFE0
FFFFF800000007FFFFE0
FFFFF800000003FFFFE0
FFFFF800000003FFFFE0
FFFFF800000003FFFFE0
FFFFF800000003FFFFE0
FFFFF800000003FFFFE0
FFFFF800000003FFFFE0
FFFFF800000003FFFFE0
FFFFF800000003FFFFE0
FFFFF800000003FFFFE0
FFFFF800000007FFFFE0
FFFFF800000007FFFFE0
FFFFF800000007FFFFC0
FFFFF80000000FFFFFC0
FFFFF80000000FFFFFC0
FFFFF80000001FFFFFC0
FFFFF80000003FFFFFC0
FFFFF80000007FFFFF80
FFFFF8000001FFFFFF80
FFFFF8000007FFFFFF80
FFFFF800003FFFFFFF00
FFFFFFFFFFFFFFFFFF00
FFFFFFFFFFFFFFFFFE00
FFFFFFFFFFFFFFFFFE00
FFFFFFFFFFFFFFFFFC00
FFFFFFFFFFFFFFFFFC00
FFFFFFFFFFFFFFFFF800
FFFFFFFFFFFFFFFFF000
7FFFFFFFFFFFFFFFE000
7FFFFFFFFFFFFFFFE000
7FFFFFFFFFFFFFFFC000
3FFFFFFFFFFFFFFF8000
3FFFFFFFFFFFFFFE0000
1FFFFFFFFFFFFFFC0000
0FFFFFFFFFFFFFF80000
07FFFFFFFFFFFFF00000
07FFFFFFFFFFFFC00000
01FFFFFFFFFFFF000000
00FFFFFFFFFFFC000000
003FFFFFFFFFF0000000
000FFFFFFFFF80000000
0001FFFFFFF000000000
ENDCHAR
STARTCHAR 0043
ENCODING 67
SWIDTH 461 0
DWIDTH 83 0
BBX 75 127 4 0
BITMAP
00000001FFF000000000
0000003FFFFF80000000
000001FFFFFFF0000000
00000FFFFFFFFE000000
00003FFFFFFFFF800000
00007FFFFFFFFFC00000
0001FFFFFFFFFFF00000
0003FFFFFFFFFFF80000
0007FFFFFFFFFFFC0000
000FFFFFFFFFFFFE0000
001FFFFFFFFFFFFF0000
003FFFFFFFFFFFFF8000
007FFFFFFFFFFFFFC000
00FFFFFFFFFFFFFFE000
01FFFFFFFFFFFFFFF000
01FFFFFFFFFFFFFFF000
03FFFFFFFFFFFFFFF800
07FFFFFFFFFFFFFFFC00
07FFFFFFFFFFFFFFFC00
0FFFFFFFFFFFFFFFFE00
0FFFFFFFFFFFFFFFFE00
1FFFFFFF803FFFFFFF00
1FFFFFFC0007FFFFFF00
3FFFFFF00001FFFFFF80
3FFFFFC000007FFFFF80
3FFFFF8000003FFFFF80
7FFFFF0000003FFFFFC0
7FFFFF0000001FFFFFC0
7FFFFE0000000FFFFFC0
7FFFFE0000000FFFFFC0
FFFFFC00000007FFFFC0
FFFFFC00000007FFFFE0
FFFFFC00000007FFFFE0
FFFFF800000003FFFFE0
FFFFF800000003FFFFE0
FFFFF800000003FFFFE0
FFFFF800000003FFFFE0
FFFFF800000003FFFFE0
FFFFF800000003FFFFE0
FFFFF800000003FFFFE0
FFFFF800000003FFFFE0
FFFFF800000001FFFFC0
FFFFF800000001FFFFC0
FFFFF800000000FFFF80
FFFFF8000000007FFF00
FFFFF8000000003FFE00
FFFFF8000000000FF800
FFFFF80000000001C000
FFFFF800000000000000
FFFFF800000000000000
FFFFF800000000000000
FFFFF800000000000000
FFFFF800000000000000
FFFFF800000000000000
FFFFF800000000000000
FFFFF800000000000000
FFFFF800000000000000
FFFFF800000000000000
FFFFF800000000000000
FFFFF800000000000000
FFFFF800000000000000
FFFFF800000000000000
FFFFF800000000000000
FFFFF800000000000000
FFFFF800000000000000
FFFFF800000000000000
FFFFF800000000000000
FFFFF800000000000000
FFFFF800000000000000
FFFFF800000000000000
FFFFF800000000000000
FFFFF800000000000000
FFFFF800000000000000
FFFFF800000000000000
FFFFF800000000000000
FFFFF800000000000000
FFFFF800000000000000
FFFFF800000000000000
FFFFF800000000000000
FFFFF80000000001C000
FFFFF8000000000FF800
FFFFF8000000003FFE00
FFFFF8000000007FFF00
FFFFF800000000FFFF80
FFFFF800000001FFFFC0
FFFFF800000001FFFFC0
FFFFF800000003FFFFC0
FFFFF800000003FFFFE0
FFFFF800000003FFFFE0
FFFFF800000003FFFFE0
FFFFF800000003FFFFE0
FFFFF800000003FFFFE0
FFFFF800000003FFFFE0
FFFFF800000003FFFFE0
FFFFFC00000007FFFFE0
FFFFFC00000007FFFFE0
FFFFFC00000007FFFFC0
7FFFFE0000000FFFFFC0
7FFFFE0000000FFFFFC0
7FFFFF0000001FFFFFC0
7FFFFF0000001FFFFFC0
3FFFFF8000003FFFFF80
3FFFFFC000007FFFFF80
3FFFFFF00001FFFFFF80
1FFFFFF80007FFFFFF00
1FFFFFFF003FFFFFFF00
0FFFFFFFFFFFFFFFFE00
0FFFFFFFFFFFFFFFFE00
07FFFFFFFFFFFFFFFC00
07FFFFFFFFFFFFFFFC00
03FFFFFFFFFFFFFFF800
03FFFFFFFFFFFFFFF000
01FFFFFFFFFFFFFFF000
00FFFFFFFFFFFFFFE000
007FFFFFFFFFFFFFC000
007FFFFFFFFFFFFF8000
003FFFFFFFFFFFFF0000
001FFFFFFFFFFFFE0000
0007FFFFFFFFFFFC0000
0003FFFFFFFFFFF80000
0001FFFFFFFFFFF00000
00007FFFFFFFFFC00000
00003FFFFFFFFF800000
00000FFFFFFFFE000000
000001FFFFFFF0000000
0000003FFFFF80000000
00000003FFF000000000
ENDCHAR
STARTCHAR 0044
ENCODING 68
SWIDTH 461 0
DWIDTH 83 0
BBX 75 127 4 0
BITMAP
0001FFFFFFF000000000
000FFFFFFFFF80000000
003FFFFFFFFFF0000000
00FFFFFFFFFFFC000000
01FFFFFFFFFFFF000000
03FFFFFFFFFFFFC00000
07FFFFFFFFFFFFF00000
0FFFFFFFFFFFFFF80000
1FFFFFFFFFFFFFFC0000
3FFFFFFFFFFFFFFF0000
3FFFFFFFFFFFFFFF8000
7FFFFFFFFFFFFFFFC000
7FFFFFFFFFFFFFFFE000
7FFFFFFFFFFFFFFFE000
7FFFFFFFFFFFFFFFF000
FFFFFFFFFFFFFFFFF800
FFFFFFFFFFFFFFFFFC00
FFFFFFFFFFFFFFFFFC00
FFFFFFFFFFFFFFFFFE00
FFFFFFFFFFFFFFFFFE00
FFFFFFFFFFFFFFFFFF00
FFFFF800003FFFFFFF00
FFFFF8000007FFFFFF80
FFFFF8000001FFFFFF80
FFFFF8000000FFFFFF80
FFFFF80000003FFFFFC0
FFFFF80000001FFFFFC0
FFFFF80000001FFFFFC0
FFFFF80000000FFFFFC0
FFFFF800000007FFFFC0
FFFFF800000007FFFFE0
FFFFF800000007FFFFE0
FFFFF800000007FFFFE0
FFFFF800000003FFFFE0
FFFFF800000003FFFFE0
FFFFF800000003FFFFE0
FFFFF800000003FFFFE0
FFFFF800000003FFFFE0
FFFFF800000003FFFFE0
FFFFF800000003FFFFE0
FFFFF800000003FFFFE0
FFFFF800000003FFFFE0
FFFFF800000003FFFFE0
FFFFF800000003FFFFE0
FFFFF800000003FFFFE0
FFFFF800000003FFFFE0
FFFFF800000003FFFFE0
FFFFF800000003FFFFE0
FFFFF800000003FFFFE0
FFFFF800000003FFFFE0
FFFFF800000003FFFFE0
FFFFF800000003FFFFE0
FFFFF800000003FFFFE0
FFFFF800000003FFFFE0
FFFFF800000003FFFFE0
FFFFF800000003FFFFE0
FFFFF800000003FFFFE0
FFFFF800000003FFFFE0
FFFFF800000003FFFFE0
FFFFF800000003FFFFE0
FFFFF800000003FFFFE0
FFFFF800000003FFFFE0
FFFFF800000003FFFFE0
FFFFF800000003FFFFE0
FFFFF800000003FFFFE0
FFFFF800000003FFFFE0
FFFFF800000003FFFFE0
FFFFF800000003FFFFE0
FFFFF800000003FFFFE0
FFFFF800000003FFFFE0
FFFFF800000003FFFFE0
FFFFF800000003FFFFE0
FFFFF800000003FFFFE0
FFFFF800000003FFFFE0
FFFFF800000003FFFFE0
FFFFF800000003FFFFE0
FFFFF800000003FFFFE0
FFFFF800000003FFFFE0
FFFFF800000003FFFFE0
FFFFF800000003FFFFE0
FFFFF800000003FFFFE0
FFFFF800000003FFFFE0
FFFFF800000003FFFFE0
FFFFF800000003FFFFE0
FFFFF800000003FFFFE0
FFFFF800000003FFFFE0
FFFFF800000003FFFFE0
FFFFF800000003FFFFE0
FFFFF800000003FFFFE0
FFFFF800000003FFFFE0
FFFFF800000003FFFFE0
FFFFF800000003FFFFE0
FFFFF800000003FFFFE0
FFFFF800000003FFFFE0
FFFFF800000007FFFFE0
FFFFF800000007FFFFE0
FFFFF800000007FFFFE0
FFFFF80000000FFFFFC0
FFFFF80000000FFFFFC0
FFFFF80000001FFFFFC0
FFFFF80000001FFFFFC0
FFFFF80000003FFFFF80
FFFFF80000007FFFFF80
FFFFF8000001FFFFFF80
FFFFF8000007FFFFFF00
FFFFF800003FFFFFFF00
FFFFFFFFFFFFFFFFFE00
FFFFFFFFFFFFFFFFFE00
FFFFFFFFFFFFFFFFFC00
FFFFFFFFFFFFFFFFFC00
FFFFFFFFFFFFFFFFF800
FFFFFFFFFFFFFFFFF800
FFFFFFFFFFFFFFFFF000
7FFFFFFFFFFFFFFFE000
7FFFFFFFFFFFFFFFC000
7FFFFFFFFFFFFFFFC000
3FFFFFFFFFFFFFFF8000
3FFFFFFFFFFFFFFF0000
1FFFFFFFFFFFFFFC0000
0FFFFFFFFFFFFFF80000
07FFFFFFFFFFFFF00000
07FFFFFFFFFFFFC00000
01FFFFFFFFFFFF800000
00FFFFFFFFFFFE000000
003FFFFFFFFFF0000000
000FFFFFFFFF80000000
0001FFFFFFF800000000
ENDCHAR
STARTCHAR 0045
ENCODING 69
SWIDTH 461 0
DWIDTH 83 0
BBX 74 127 4 0
BITMAP
0001FFFFFFFFFFFFE000
000FFFFFFFFFFFFFF800
003FFFFFFFFFFFFFFE00
00FFFFFFFFFFFFFFFF00
01FFFFFFFFFFFFFFFF00
07FFFFFFFFFFFFFFFF80
0FFFFFFFFFFFFFFFFF80
0FFFFFFFFFFFFFFFFFC0
1FFFFFFFFFFFFFFFFFC0
3FFFFFFFFFFFFFFFFFC0
3FFFFFFFFFFFFFFFFFC0
7FFFFFFFFFFFFFFFFFC0
7FFFFFFFFFFFFFFFFFC0
7FFFFFFFFFFFFFFFFFC0
FFFFFFFFFFFFFFFFFF80
FFFFFFFFFFFFFFFFFF80
FFFFFFFFFFFFFFFFFF00
FFFFFFFFFFFFFFFFFF00
FFFFFFFFFFFFFFFFFE00
FFFFFFFFFFFFFFFFF800
FFFFFFFFFFFFFFFFE000
FFFFF800000000000000
FFFFF800000000000000
FFFFF800000000000000
FFFFF800000000000000
FFFFF800000000000000
FFFFF800000000000000
FFFFF800000000000000
FFFFF800000000000000
FFFFF800000000000000
FFFFF800000000000000
FFFFF800000000000000
FFFFF800000000000000
FFFFF800000000000000
FFFFF800000000000000
FFFFF800000000000000
FFFFF800000000000000
FFFFF800000000000000
FFFFF800000000000000
FFFFF800000000000000
FFFFF800000000000000
FFFFF800000000000000
FFFFF800000000000000
FFFFF800000000000000
FFFFF800000000000000
FFFFF800000000000000
FFFFF800000000000000
FFFFF800000000000000
FFFFF800000000000000
FFFFF800000000000000
FFFFF800000000000000
FFFFF800000000000000
FFFFF800000000000000
FFFFFFFFFF0000000000
FFFFFFFFFFE000000000
FFFFFFFFFFF000000000
FFFFFFFFFFF800000000
FFFFFFFFFFFC00000000
FFFFFFFFFFFC00000000
7FFFFFFFFFFE00000000
7FFFFFFFFFFE00000000
7FFFFFFFFFFE00000000
3FFFFFFFFFFF00000000
3FFFFFFFFFFF00000000
3FFFFFFFFFFF00000000
7FFFFFFFFFFE00000000
7FFFFFFFFFFE00000000
7FFFFFFFFFFE00000000
FFFFFFFFFFFC00000000
FFFFFFFFFFFC00000000
FFFFFFFFFFF800000000
FFFFFFFFFFF000000000
FFFFFFFFFFE000000000
FFFFFFFFFF0000000000
FFFFF800000000000000
FFFFF800000000000000
FFFFF800000000000000
FFFFF800000000000000
FFFFF800000000000000
FFFFF800000000000000
FFFFF800000000000000
FFFFF800000000000000
FFFFF800000000000000
FFFFF800000000000000
FFFFF800000000000000
FFFFF800000000000000
FFFFF800000000000000
FFFFF800000000000000
FFFFF800000000000000
FFFFF800000000000000
FFFFF800000000000000
FFFFF800000000000000
FFFFF800000000000000
FFFFF800000000000000
FFFFF800000000000000
FFFFF800000000000000
FFFFF800000000000000
FFFFF800000000000000
FFFFF800000000000000
FFFFF800000000000000
FFFFF800000000000000
FFFFF800000000000000
FFFFF800000000000000
FFFFF800000000000000
FFFFF800000000000000
FFFFF800000000000000
FFFFFFFFFFFFFFFFE000
FFFFFFFFFFFFFFFFF800
FFFFFFFFFFFFFFFFFE00
FFFFFFFFFFFFFFFFFF00
FFFFFFFFFFFFFFFFFF00
FFFFFFFFFFFFFFFFFF80
7FFFFFFFFFFFFFFFFF80
7FFFFFFFFFFFFFFFFFC0
7FFFFFFFFFFFFFFFFFC0
7FFFFFFFFFFFFFFFFFC0
3FFFFFFFFFFFFFFFFFC0
3FFFFFFFFFFFFFFFFFC0
1FFFFFFFFFFFFFFFFFC0
0FFFFFFFFFFFFFFFFFC0
07FFFFFFFFFFFFFFFF80
03FFFFFFFFFFFFFFFF80
01FFFFFFFFFFFFFFFF00
00FFFFFFFFFFFFFFFF00
007FFFFFFFFFFFFFFE00
000FFFFFFFFFFFFFF800
0001FFFFFFFFFFFFE000
ENDCHAR
STARTCHAR 0046
ENCODING 70
SWIDTH 461 0
DWIDTH 83 0
BBX 74 127 4 0
BITMAP
0001FFFFFFFFFFFFE000
000FFFFFFFFFFFFFF800
003FFFFFFFFFFFFFFE00
00FFFFFFFFFFFFFFFF00
01FFFFFFFFFFFFFFFF00
07FFFFFFFFFFFFFFFF80
0FFFFFFFFFFFFFFFFF80
0FFFFFFFFFFFFFFFFFC0
1FFFFFFFFFFFFFFFFFC0
3FFFFFFFFFFFFFFFFFC0
3FFFFFFFFFFFFFFFFFC0
7FFFFFFFFFFFFFFFFFC0
7FFFFFFFFFFFFFFFFFC0
7FFFFFFFFFFFFFFFFFC0
FFFFFFFFFFFFFFFFFF80
FFFFFFFFFFFFFFFFFF80
FFFFFFFFFFFFFFFFFF00
FFFFFFFFFFFFFFFFFF00
FFFFFFFFFFFFFFFFFE00
FFFFFFFFFFFFFFFFF800
FFFFFFFFFFFFFFFFE000
FFFFF800000000000000
FFFFF800000000000000
FFFFF800000000000000
FFFFF800000000000000
FFFFF800000000000000
FFFFF800000000000000
FFFFF800000000000000
FFFFF800000000000000
FFFFF800000000000000
FFFFF800000000000000
FFFFF800000000000000
FFFFF800000000000000
FFFFF800000000000000
FFFFF800000000000000
FFFFF800000000000000
FFFFF800000000000000
FFFFF800000000000000
FFFFF800000000000000
FFFFF800000000000000
FFFFF800000000000000
FFFFF800000000000000
FFFFF800000000000000
FFFFF800000000000000
FFFFF800000000000000
FFFFF800000000000000
FFFFF800000000000000
FFFFF800000000000000
FFFFF800000000000000
FFFFF800000000000000
FFFFF800000000000000
FFFFF800000000000000
FFFFF800000000000000
FFFFFFFFFF0000000000
FFFFFFFFFFE000000000
FFFFFFFFFFF000000000
FFFFFFFFFFF800000000
FFFFFFFFFFFC00000000
FFFFFFFFFFFC00000000
7FFFFFFFFFFE00000000
7FFFFFFFFFFE00000000
7FFFFFFFFFFE00000000
3FFFFFFFFFFF00000000
3FFFFFFFFFFF00000000
3FFFFFFFFFFF00000000
7FFFFFFFFFFE00000000
7FFFFFFFFFFE00000000
7FFFFFFFFFFE00000000
FFFFFFFFFFFC00000000
FFFFFFFFFFFC00000000
FFFFFFFFFFF800000000
FFFFFFFFFFF000000000
FFFFFFFFFFE000000000
FFFFFFFFFF0000000000
FFFFF800000000000000
FFFFF800000000000000
FFFFF800000000000000
FFFFF800000000000000
FFFFF800000000000000
FFFFF800000000000000
FFFFF800000000000000
FFFFF800000000000000
FFFFF800000000000000
FFFFF800000000000000
FFFFF800000000000000
FFFFF800000000000000
FFFFF800000000000000
FFFFF800000000000000
FFFFF800000000000000
FFFFF800000000000000
FFFFF800000000000000
FFFFF800000000000000
FFFFF800000000000000
FFFFF800000000000000
FFFFF800000000000000
FFFFF800000000000000
FFFFF800000000000000
FFFFF800000000000000
FFFFF800000000000000
FFFFF800000000000000
FFFFF800000000000000
FFFFF800000000000000
FFFFF800000000000000
FFFFF800000000000000
FFFFF800000000000000
FFFFF800000000000000
FFFFF800000000000000
FFFFF800000000000000
FFFFF800000000000000
FFFFF800000000000000
FFFFF800000000000000
FFFFF800000000000000
FFFFF800000000000000
FFFFF800000000000000
FFFFF800000000000000
FFFFF800000000000000
FFFFF800000000000000
FFFFF800000000000000
FFFFF800000000000000
FFFFF800000000000000
7FFFF000000000000000
7FFFF000000000000000
3FFFE000000000000000
3FFFE000000000000000
1FFFC000000000000000
07FF0000000000000000
01FC0000000000000000
ENDCHAR
STARTCHAR 0047
ENCODING 71
SWIDTH 461 0
DWIDTH 83 0
BBX 75 127 4 0
BITMAP
00000001FFF000000000
0000003FFFFF80000000
000001FFFFFFF0000000
00000FFFFFFFFE000000
00003FFFFFFFFF800000
00007FFFFFFFFFC00000
0001FFFFFFFFFFF00000
0003FFFFFFFFFFF80000
0007FFFFFFFFFFFC0000
000FFFFFFFFFFFFE0000
001FFFFFFFFFFFFF0000
003FFFFFFFFFFFFF8000
007FFFFFFFFFFFFFC000
00FFFFFFFFFFFFFFE000
01FFFFFFFFFFFFFFF000
01FFFFFFFFFFFFFFF000
03FFFFFFFFFFFFFFF800
07FFFFFFFFFFFFFFFC00
07FFFFFFFFFFFFFFFC00
0FFFFFFFFFFFFFFFFE00
0FFFFFFFFFFFFFFFFE00
1FFFFFFF803FFFFFFF00
1FFFFFFC0007FFFFFF00
3FFFFFF00001FFFFFF80
3FFFFFC000007FFFFF80
3FFFFF8000003FFFFF80
7FFFFF0000003FFFFFC0
7FFFFF0000001FFFFFC0
7FFFFE0000000FFFFFC0
7FFFFE0000000FFFFFC0
FFFFFC00000007FFFFC0
FFFFFC00000007FFFFE0
FFFFFC00000007FFFFE0
FFFFF800000003FFFFE0
FFFFF800000003FFFFE0
FFFFF800000003FFFFE0
FFFFF800000003FFFFE0
FFFFF800000003FFFFE0
FFFFF800000003FFFFE0
FFFFF800000003FFFFE0
FFFFF800000003FFFFE0
FFFFF800000001FFFFC0
FFFFF800000001FFFFC0
FFFFF800000000FFFF80
FFFFF8000000007FFF00
FFFFF8000000003FFE00
FFFFF8000000000FF800
FFFFF80000000001C000
FFFFF800000000000000
FFFFF800000000000000
FFFFF800000000000000
FFFFF800000000000000
FFFFF800000000000000
FFFFF8001FFFFFF00000
FFFFF800FFFFFFFF0000
FFFFF801FFFFFFFFC000
FFFFF803FFFFFFFFE000
FFFFF807FFFFFFFFF000
FFFFF807FFFFFFFFF800
FFFFF80FFFFFFFFFFC00
FFFFF80FFFFFFFFFFE00
FFFFF80FFFFFFFFFFF00
FFFFF81FFFFFFFFFFF00
FFFFF81FFFFFFFFFFF80
FFFFF81FFFFFFFFFFF80
FFFFF81FFFFFFFFFFFC0
FFFFF80FFFFFFFFFFFC0
FFFFF80FFFFFFFFFFFC0
FFFFF80FFFFFFFFFFFE0
FFFFF807FFFFFFFFFFE0
FFFFF803FFFFFFFFFFE0
FFFFF801FFFFFFFFFFE0
FFFFF800FFFFFFFFFFE0
FFFFF8003FFFFFFFFFE0
FFFFF800000003FFFFE0
FFFFF800000003FFFFE0
FFFFF800000003FFFFE0
FFFFF800000003FFFFE0
FFFFF800000003FFFFE0
FFFFF800000003FFFFE0
FFFFF800000003FFFFE0
FFFFF800000003FFFFE0
FFFFF800000003FFFFE0
FFFFF800000003FFFFE0
FFFFF800000003FFFFE0
FFFFF800000003FFFFE0
FFFFF800000003FFFFE0
FFFFF800000003FFFFE0
FFFFF800000003FFFFE0
FFFFF800000003FFFFE0
FFFFF800000003FFFFE0
FFFFF800000003FFFFE0
FFFFF800000003FFFFE0
FFFFF800000003FFFFE0
FFFFFC00000003FFFFE0
FFFFFC00000003FFFFE0
FFFFFC00000003FFFFE0
7FFFFE00000003FFFFE0
7FFFFE00000003FFFFE0
7FFFFF00000003FFFFE0
7FFFFF00000003FFFFE0
3FFFFF80000003FFFFE0
3FFFFFC0000003FFFFE0
3FFFFFF0000003FFFFE0
1FFFFFF8000003FFFFE0
1FFFFFFF000003FFFFE0
0FFFFFFFFFFFFFFFFFE0
0FFFFFFFFFFFFFFFFFE0
07FFFFFFFFFFFFFFFFE0
07FFFFFFFFFFFFFFFFE0
03FFFFFFFFFFFFFFFFE0
03FFFFFFFFFFFFFFFFE0
01FFFFFFFFFFFFFFFFE0
00FFFFFFFFFFFFFFFFC0
007FFFFFFFFFFFFFFFC0
007FFFFFFFFFFFFFFFC0
003FFFFFFFFFFFFFFF80
001FFFFFFFFFFFFFFF80
0007FFFFFFFFFFFFFF00
0003FFFFFFFFFFFFFE00
0001FFFFFFFFFFFFFC00
00007FFFFFFFFFFFF800
00003FFFFFFFFFFFF000
00000FFFFFFFFFFFE000
000001FFFFFFFFFFC000
0000003FFFFFFFFE0000
00000003FFFFFFF00000
ENDCHAR
STARTCHAR 0048
ENCODING 72
SWIDTH 461 0
DWIDTH 83 0
BBX 75 127 4 0
BITMAP
01FC000000000007F000
07FF00000000001FFC00
0FFF80000000003FFE00
1FFFC0000000007FFF00
3FFFE000000000FFFF80
7FFFF000000001FFFFC0
7FFFF000000001FFFFC0
FFFFF800000003FFFFE0
FFFFF800000003FFFFE0
FFFFF800000003FFFFE0
FFFFF800000003FFFFE0
FFFFF800000003FFFFE0
FFFFF800000003FFFFE0
FFFFF800000003FFFFE0
FFFFF800000003FFFFE0
FFFFF800000003FFFFE0
FFFFF800000003FFFFE0
FFFFF800000003FFFFE0
FFFFF800000003FFFFE0
FFFFF800000003FFFFE0
FFFFF800000003FFFFE0
FFFFF800000003FFFFE0
FFFFF800000003FFFFE0
FFFFF800000003FFFFE0
FFFFF800000003FFFFE0
FFFFF800000003FFFFE0
FFFFF800000003FFFFE0
FFFFF800000003FFFFE0
FFFFF800000003FFFFE0
FFFFF800000003FFFFE0
FFFFF800000003FFFFE0
FFFFF800000003FFFFE0
FFFFF800000003FFFFE0
FFFFF800000003FFFFE0
FFFFF800000003FFFFE0
FFFFF800000003FFFFE0
FFFFF800000003FFFFE0
FFFFF800000003FFFFE0
FFFFF800000003FFFFE0
FFFFF800000003FFFFE0
FFFFF800000003FFFFE0
FFFFF800000003FFFFE0
FFFFF800000003FFFFE0
FFFFF800000003FFFFE0
FFFFF800000003FFFFE0
FFFFF800000003FFFFE0
FFFFF800000003FFFFE0
FFFFF800000003FFFFE0
FFFFF800000003FFFFE0
FFFFF800000003FFFFE0
FFFFF800000003FFFFE0
FFFFF800000003FFFFE0
FFFFF800000003FFFFE0
FFFFFFFFFFFFFFFFFFE0
FFFFFFFFFFFFFFFFFFE0
FFFFFFFFFFFFFFFFFFE0
FFFFFFFFFFFFFFFFFFE0
FFFFFFFFFFFFFFFFFFE0
FFFFFFFFFFFFFFFFFFE0
7FFFFFFFFFFFFFFFFFC0
7FFFFFFFFFFFFFFFFFC0
7FFFFFFFFFFFFFFFFFC0
3FFFFFFFFFFFFFFFFF80
3FFFFFFFFFFFFFFFFF80
3FFFFFFFFFFFFFFFFF80
7FFFFFFFFFFFFFFFFFC0
7FFFFFFFFFFFFFFFFFC0
7FFFFFFFFFFFFFFFFFC0
FFFFFFFFFFFFFFFFFFE0
FFFFFFFFFFFFFFFFFFE0
FFFFFFFFFFFFFFFFFFE0
FFFFFFFFFFFFFFFFFFE0
FFFFFFFFFFFFFFFFFFE0
FFFFFFFFFFFFFFFFFFE0
FFFFF800000003FFFFE0
FFFFF800000003FFFFE0
FFFFF800000003FFFFE0
FFFFF800000003FFFFE0
FFFFF800000003FFFFE0
FFFFF800000003FFFFE0
FFFFF800000003FFFFE0
FFFFF800000003FFFFE0
FFFFF800000003FFFFE0
FFFFF800000003FFFFE0
FFFFF800000003FFFFE0
FFFFF800000003FFFFE0
FFFFF800000003FFFFE0
FFFFF800000003FFFFE0
FFFFF800000003FFFFE0
FFFFF800000003FFFFE0
FFFFF800000003FFFFE0
FFFFF800000003FFFFE0
FFFFF800000003FFFFE0
FFFFF800000003FFFFE0
FFFFF800000003FFFFE0
FFFFF800000003FFFFE0
FFFFF800000003FFFFE0
FFFFF800000003FFFFE0
FFFFF800000003FFFFE0
FFFFF800000003FFFFE0
FFFFF800000003FFFFE0
FFFFF800000003FFFFE0
FFFFF800000003FFFFE0
FFFFF800000003FFFFE0
FFFFF800000003FFFFE0
FFFFF800000003FFFFE0
FFFFF800000003FFFFE0
FFFFF800000003FFFFE0
FFFFF800000003FFFFE0
FFFFF800000003FFFFE0
FFFFF800000003FFFFE0
FFFFF800000003FFFFE0
FFFFF800000003FFFFE0
FFFFF800000003FFFFE0
FFFFF800000003FFFFE0
FFFFF800000003FFFFE0
FFFFF800000003FFFFE0
FFFFF800000003FFFFE0
FFFFF800000003FFFFE0
FFFFF800000003FFFFE0
7FFFF000000001FFFFC0
7FFFF000000001FFFFC0
3FFFE000000000FFFF80
3FFFE000000000FFFF00
1FFFC0000000007FFE00
07FF00000000001FFC00
01FC000000000007F000
ENDCHAR
STARTCHAR 0049
ENCODING 73
SWIDTH 461 0
DWIDTH 83 0
BBX 74 127 4 0
BITMAP
00FFFFFF803FFFFFE000
07FFFFFFF1FFFFFFFC00
0FFFFFFFFFFFFFFFFE00
1FFFFFFFFFFFFFFFFF00
3FFFFFFFFFFFFFFFFF80
3FFFFFFFFFFFFFFFFF80
7FFFFFFFFFFFFFFFFFC0
7FFFFFFFFFFFFFFFFFC0
7FFFFFFFFFFFFFFFFFC0
FFFFFFFFFFFFFFFFFFC0
FFFFFFFFFFFFFFFFFFC0
FFFFFFFFFFFFFFFFFFC0
FFFFFFFFFFFFFFFFFFC0
7FFFFFFFFFFFFFFFFFC0
7FFFFFFFFFFFFFFFFFC0
7FFFFFFFFFFFFFFFFF80
3FFFFFFFFFFFFFFFFF80
1FFFFFFFFFFFFFFFFF00
0FFFFFFFFFFFFFFFFE00
07FFFFFFFFFFFFFFFC00
01FFFFFFFFFFFFFFE000
0000001FFFFF00000000
0000001FFFFF00000000
0000001FFFFF00000000
0000001FFFFF00000000
0000001FFFFF00000000
0000001FFFFF00000000
0000001FFFFF00000000
0000001FFFFF00000000
0000001FFFFF00000000
0000001FFFFF00000000
0000001FFFFF00000000
0000001FFFFF00000000
0000001FFFFF00000000
0000001FFFFF00000000
0000001FFFFF00000000
0000001FFFFF00000000
0000001FFFFF00000000
0000001FFFFF00000000
0000001FFFFF00000000
0000001FFFFF00000000
0000001FFFFF00000000
0000001FFFFF00000000
0000001FFFFF00000000
0000001FFFFF00000000
0000001FFFFF00000000
0000001FFFFF00000000
0000001FFFFF00000000
0000001FFFFF00000000
0000001FFFFF00000000
0000001FFFFF00000000
0000001FFFFF00000000
0000001FFFFF00000000
0000001FFFFF00000000
0000001FFFFF00000000
0000001FFFFF00000000
0000001FFFFF00000000
0000001FFFFF00000000
0000001FFFFF00000000
0000001FFFFF00000000
0000001FFFFF00000000
0000001FFFFF00000000
0000001FFFFF00000000
0000001FFFFF00000000
0000001FFFFF00000000
0000001FFFFF00000000
0000001FFFFF00000000
0000001FFFFF00000000
0000001FFFFF00000000
0000001FFFFF00000000
0000001FFFFF00000000
0000001FFFFF00000000
0000001FFFFF00000000
0000001FFFFF00000000
0000001FFFFF00000000
0000001FFFFF00000000
0000001FFFFF00000000
0000001FFFFF00000000
0000001FFFFF00000000
0000001FFFFF00000000
0000001FFFFF00000000
0000001FFFFF00000000
0000001FFFFF00000000
0000001FFFFF00000000
0000001FFFFF00000000
0000001FFFFF00000000
0000001FFFFF00000000
0000001FFFFF00000000
0000001FFFFF00000000
0000001FFFFF00000000
0000001FFFFF00000000
0000001FFFFF00000000
0000001FFFFF00000000
0000001FFFFF00000000
0000001FFFFF00000000
0000001FFFFF00000000
0000001FFFFF00000000
0000001FFFFF00000000
0000001FFFFF00000000
0000001FFFFF00000000
0000001FFFFF00000000
0000001FFFFF00000000
0000001FFFFF00000000
0000001FFFFF00000000
0000001FFFFF00000000
0000001FFFFF00000000
00FFFFFFFFFFFFFFE000
07FFFFFFFFFFFFFFFC00
0FFFFFFFFFFFFFFFFE00
1FFFFFFFFFFFFFFFFF00
3FFFFFFFFFFFFFFFFF80
3FFFFFFFFFFFFFFFFF80
7FFFFFFFFFFFFFFFFFC0
7FFFFFFFFFFFFFFFFFC0
7FFFFFFFFFFFFFFFFFC0
FFFFFFFFFFFFFFFFFFC0
FFFFFFFFFFFFFFFFFFC0
FFFFFFFFFFFFFFFFFFC0
FFFFFFFFFFFFFFFFFFC0
7FFFFFFFFFFFFFFFFFC0
7FFFFFFFFFFFFFFFFFC0
7FFFFFFFFFFFFFFFFF80
3FFFFFFFFFFFFFFFFF80
1FFFFFFFFFFFFFFFFF00
0FFFFFFFFFFFFFFFFE00
07FFFFFFF1FFFFFFFC00
01FFFFFF803FFFFFE000
ENDCHAR
STARTCHAR 004A
ENCODING 74
SWIDTH 461 0
DWIDTH 83 0
BBX 74 127 5 0
BITMAP
000000000000000FE000
000000000000003FF800
000000000000007FFC00
00000000000000FFFE00
00000000000001FFFF00
00000000000003FFFF80
00000000000003FFFF80
00000000000007FFFFC0
00000000000007FFFFC0
00000000000007FFFFC0
00000000000007FFFFC0
00000000000007FFFFC0
00000000000007FFFFC0
00000000000007FFFFC0
00000000000007FFFFC0
00000000000007FFFFC0
00000000000007FFFFC0
00000000000007FFFFC0
00000000000007FFFFC0
00000000000007FFFFC0
00000000000007FFFFC0
00000000000007FFFFC0
00000000000007FFFFC0
00000000000007FFFFC0
00000000000007FFFFC0
00000000000007FFFFC0
00000000000007FFFFC0
00000000000007FFFFC0
00000000000007FFFFC0
00000000000007FFFFC0
00000000000007FFFFC0
00000000000007FFFFC0
00000000000007FFFFC0
00000000000007FFFFC0
00000000000007FFFFC0
00000000000007FFFFC0
00000000000007FFFFC0
00000000000007FFFFC0
00000000000007FFFFC0
00000000000007FFFFC0
00000000000007FFFFC0
00000000000007FFFFC0
00000000000007FFFFC0
00000000000007FFFFC0
00000000000007FFFFC0
00000000000007FFFFC0
00000000000007FFFFC0
00000000000007FFFFC0
00000000000007FFFFC0
00000000000007FFFFC0
00000000000007FFFFC0
00000000000007FFFFC0
00000000000007FFFFC0
00000000000007FFFFC0
00000000000007FFFFC0
00000000000007FFFFC0
00000000000007FFFFC0
00000000000007FFFFC0
00000000000007FFFFC0
00000000000007FFFFC0
00000000000007FFFFC0
00000000000007FFFFC0
00000000000007FFFFC0
00000000000007FFFFC0
00000000000007FFFFC0
00000000000007FFFFC0
00000000000007FFFFC0
00000000000007FFFFC0
00000000000007FFFFC0
00000000000007FFFFC0
00000000000007FFFFC0
00000000000007FFFFC0
00000000000007FFFFC0
00000000000007FFFFC0
00000000000007FFFFC0
00000000000007FFFFC0
00000000000007FFFFC0
00000000000007FFFFC0
00000000000007FFFFC0
00700000000007FFFFC0
07FE0000000007FFFFC0
0FFF0000000007FFFFC0
1FFF8000000007FFFFC0
3FFFC000000007FFFFC0
7FFFE000000007FFFFC0
7FFFF000000007FFFFC0
FFFFF000000007FFFFC0
FFFFF000000007FFFFC0
FFFFF000000007FFFFC0
FFFFF000000007FFFFC0
FFFFF000000007FFFFC0
FFFFF000000007FFFFC0
FFFFF800000007FFFFC0
FFFFF800000007FFFFC0
FFFFF80000000FFFFFC0
FFFFF80000000FFFFFC0
FFFFFC0000000FFFFFC0
FFFFFC0000001FFFFF80
7FFFFC0000001FFFFF80
7FFFFE0000003FFFFF80
7FFFFF0000003FFFFF80
7FFFFF8000007FFFFF00
3FFFFFC00000FFFFFF00
3FFFFFE00003FFFFFF00
3FFFFFF80007FFFFFE00
1FFFFFFF007FFFFFFE00
1FFFFFFFFFFFFFFFFC00
0FFFFFFFFFFFFFFFFC00
0FFFFFFFFFFFFFFFF800
07FFFFFFFFFFFFFFF800
03FFFFFFFFFFFFFFF000
03FFFFFFFFFFFFFFF000
01FFFFFFFFFFFFFFE000
00FFFFFFFFFFFFFFC000
00FFFFFFFFFFFFFF8000
007FFFFFFFFFFFFF0000
003FFFFFFFFFFFFF0000
001FFFFFFFFFFFFC0000
000FFFFFFFFFFFF80000
0007FFFFFFFFFFF00000
0001FFFFFFFFFFE00000
0000FFFFFFFFFF800000
00003FFFFFFFFF000000
00000FFFFFFFFC000000
000003FFFFFFE0000000
0000007FFFFF00000000
00000003FFF000000000
ENDCHAR
STARTCHAR 004B
ENCODING 75
SWIDTH 461 0
DWIDTH 83 0
BBX 75 127 4 0
BITMAP
01FC000000000007F000
07FF00000000001FFC00
0FFF80000000003FFE00
1FFFC0000000007FFF00
3FFFE000000000FFFF80
7FFFF000000001FFFFC0
7FFFF000000001FFFFC0
FFFFF800000003FFFFE0
FFFFF800000003FFFFE0
FFFFF800000003FFFFE0
FFFFF800000003FFFFE0
FFFFF800000003FFFFE0
FFFFF800000003FFFFE0
FFFFF800000003FFFFE0
FFFFF800000003FFFFE0
FFFFF800000003FFFFE0
FFFFF800000003FFFFE0
FFFFF800000003FFFFE0
FFFFF800000003FFFFE0
FFFFF800000003FFFFE0
FFFFF800000003FFFFE0
FFFFF800000003FFFFE0
FFFFF800000003FFFFE0
FFFFF800000003FFFFE0
FFFFF800000003FFFFE0
FFFFF800000003FFFFE0
FFFFF800000003FFFFE0
FFFFF800000003FFFFE0
FFFFF800000003FFFFE0
FFFFF800000003FFFFE0
FFFFF800000003FFFFE0
FFFFF800000003FFFFE0
FFFFF800000003FFFFE0
FFFFF800000003FFFFE0
FFFFF800000003FFFFE0
FFFFF800000003FFFFE0
FFFFF800000003FFFFE0
FFFFF800000003FFFFE0
FFFFF800000003FFFFE0
FFFFF800000003FFFFE0
FFFFF800000003FFFFE0
FFFFF800000007FFFFE0
FFFFF800000007FFFFE0
FFFFF800000007FFFFE0
FFFFF80000000FFFFFC0
FFFFF80000000FFFFFC0
FFFFF80000001FFFFFC0
FFFFF80000001FFFFFC0
FFFFF80000003FFFFFC0
FFFFF80000007FFFFF80
FFFFF8000001FFFFFF80
FFFFF8000007FFFFFF80
FFFFF800003FFFFFFF00
FFFFFFFFFFFFFFFFFF00
FFFFFFFFFFFFFFFFFE00
FFFFFFFFFFFFFFFFFE00
FFFFFFFFFFFFFFFFFC00
FFFFFFFFFFFFFFFFF800
FFFFFFFFFFFFFFFFF800
7FFFFFFFFFFFFFFFF000
7FFFFFFFFFFFFFFFE000
7FFFFFFFFFFFFFFFC000
3FFFFFFFFFFFFFFFC000
3FFFFFFFFFFFFFFF8000
3FFFFFFFFFFFFFFFC000
7FFFFFFFFFFFFFFFC000
7FFFFFFFFFFFFFFFE000
7FFFFFFFFFFFFFFFF000
FFFFFFFFFFFFFFFFF800
FFFFFFFFFFFFFFFFF800
FFFFFFFFFFFFFFFFFC00
FFFFFFFFFFFFFFFFFE00
FFFFFFFFFFFFFFFFFE00
FFFFFFFFFFFFFFFFFF00
FFFFF800003FFFFFFF00
FFFFF8000007FFFFFF80
FFFFF8000001FFFFFF80
FFFFF8000000FFFFFF80
FFFFF80000003FFFFFC0
FFFFF80000001FFFFFC0
FFFFF80000001FFFFFC0
FFFFF80000000FFFFFC0
FFFFF80000000FFFFFC0
FFFFF800000007FFFFE0
FFFFF800000007FFFFE0
FFFFF800000007FFFFE0
FFFFF800000003FFFFE0
FFFFF800000003FFFFE0
FFFFF800000003FFFFE0
FFFFF800000003FFFFE0
FFFFF800000003FFFFE0
FFFFF800000003FFFFE0
FFFFF800000003FFFFE0
FFFFF800000003FFFFE0
FFFFF800000003FFFFE0
FFFFF800000003FFFFE0
FFFFF800000003FFFFE0
FFFFF800000003FFFFE0
FFFFF800000003FFFFE0
FFFFF800000003FFFFE0
FFFFF800000003FFFFE0
FFFFF800000003FFFFE0
FFFFF800000003FFFFE0
FFFFF800000003FFFFE0
FFFFF800000003FFFFE0
FFFFF800000003FFFFE0
FFFFF800000003FFFFE0
FFFFF800000003FFFFE0
FFFFF800000003FFFFE0
FFFFF800000003FFFFE0
FFFFF800000003FFFFE0
FFFFF800000003FFFFE0
FFFFF800000003FFFFE0
FFFFF800000003FFFFE0
FFFFF800000003FFFFE0
FFFFF800000003FFFFE0
FFFFF800000003FFFFE0
FFFFF800000003FFFFE0
FFFFF800000003FFFFE0
FFFFF800000003FFFFE0
7FFFF000000001FFFFC0
7FFFF000000001FFFFC0
3FFFE000000000FFFF80
3FFFE000000000FFFF00
1FFFC0000000007FFE00
07FF00000000001FFC00
01FC000000000007F000
ENDCHAR
STARTCHAR 004C
ENCODING 76
SWIDTH 461 0
DWIDTH 83 0
BBX 74 127 4 0
BITMAP
01FC0000000000000000
07FF0000000000000000
0FFF8000000000000000
1FFFC000000000000000
3FFFE000000000000000
7FFFF000000000000000
7FFFF000000000000000
FFFFF800000000000000
FFFFF800000000000000
FFFFF800000000000000
FFFFF800000000000000
FFFFF800000000000000
FFFFF800000000000000
FFFFF800000000000000
FFFFF800000000000000
FFFFF800000000000000
FFFFF800000000000000
FFFFF800000000000000
FFFFF800000000000000
FFFFF800000000000000
FFFFF800000000000000
FFFFF800000000000000
FFFFF800000000000000
FFFFF800000000000000
FFFFF800000000000000
FFFFF800000000000000
FFFFF800000000000000
FFFFF800000000000000
FFFFF800000000000000
FFFFF800000000000000
FFFFF800000000000000
FFFFF800000000000000
FFFFF800000000000000
FFFFF800000000000000
FFFFF800000000000000
FFFFF800000000000000
FFFFF800000000000000
FFFFF800000000000000
FFFFF800000000000000
FFFFF800000000000000
FFFFF800000000000000
FFFFF800000000000000
FFFFF800000000000000
FFFFF800000000000000
FFFFF800000000000000
FFFFF800000000000000
FFFFF800000000000000
FFFFF800000000000000
FFFFF800000000000000
FFFFF800000000000000
FFFFF800000000000000
FFFFF800000000000000
FFFFF800000000000000
FFFFF800000000000000
FFFFF800000000000000
FFFFF800000000000000
FFFFF800000000000000
FFFFF800000000000000
FFFFF800000000000000
FFFFF800000000000000
FFFFF800000000000000
FFFFF800000000000000
FFFFF800000000000000
FFFFF800000000000000
FFFFF800000000000000
FFFFF800000000000000
FFFFF800000000000000
FFFFF800000000000000
FFFFF800000000000000
FFFFF800000000000000
FFFFF800000000000000
FFFFF800000000000000
FFFFF800000000000000
FFFFF800000000000000
FFFFF800000000000000
FFFFF800000000000000
FFFFF800000000000000
FFFFF800000000000000
FFFFF800000000000000
FFFFF800000000000000
FFFFF800000000000000
FFFFF800000000000000
FFFFF800000000000000
FFFFF800000000000000
FFFFF800000000000000
FFFFF800000000000000
FFFFF800000000000000
FFFFF800000000000000
FFFFF800000000000000
FFFFF800000000000000
FFFFF800000000000000
FFFFF800000000000000
FFFFF800000000000000
FFFFF800000000000000
FFFFF800000000000000
FFFFF800000000000000
FFFFF800000000000000
FFFFF800000000000000
FFFFF800000000000000
FFFFF800000000000000
FFFFF800000000000000
FFFFF800000000000000
FFFFF800000000000000
FFFFF800000000000000
FFFFF800000000000000
FFFFF800000000000000
FFFFFFFFFFFFFFFFE000
FFFFFFFFFFFFFFFFF800
FFFFFFFFFFFFFFFFFE00
FFFFFFFFFFFFFFFFFF00
FFFFFFFFFFFFFFFFFF00
FFFFFFFFFFFFFFFFFF80
7FFFFFFFFFFFFFFFFF80
7FFFFFFFFFFFFFFFFFC0
7FFFFFFFFFFFFFFFFFC0
7FFFFFFFFFFFFFFFFFC0
3FFFFFFFFFFFFFFFFFC0
3FFFFFFFFFFFFFFFFFC0
1FFFFFFFFFFFFFFFFFC0
0FFFFFFFFFFFFFFFFFC0
07FFFFFFFFFFFFFFFF80
03FFFFFFFFFFFFFFFF80
01FFFFFFFFFFFFFFFF00
00FFFFFFFFFFFFFFFF00
007FFFFFFFFFFFFFFE00
000FFFFFFFFFFFFFF800
0001FFFFFFFFFFFFE000
ENDCHAR
STARTCHAR 004D
ENCODING 77
SWIDTH 655 0
DWIDTH 118 0
BBX 110 127 4 0
BITMAP
00000003FFFFE01FFFFE00000000
0000003FFFFFFCFFFFFFF0000000
000001FFFFFFFFFFFFFFFE000000
00000FFFFFFFFFFFFFFFFF800000
00003FFFFFFFFFFFFFFFFFE00000
00007FFFFFFFFFFFFFFFFFF80000
0001FFFFFFFFFFFFFFFFFFFE0000
0003FFFFFFFFFFFFFFFFFFFF0000
0007FFFFFFFFFFFFFFFFFFFF8000
001FFFFFFFFFFFFFFFFFFFFFE000
001FFFFFFFFFFFFFFFFFFFFFF000
003FFFFFFFFFFFFFFFFFFFFFF800
007FFFFFFFFFFFFFFFFFFFFFFC00
00FFFFFFFFFFFFFFFFFFFFFFFC00
01FFFFFFFFFFFFFFFFFFFFFFFE00
03FFFFFFFFFFFFFFFFFFFFFFFF00
03FFFFFFFFFFFFFFFFFFFFFFFF80
07FFFFFFFFFFFFFFFFFFFFFFFF80
07FFFFFFFFFFFFFFFFFFFFFFFFC0
0FFFFFFFFFFFFFFFFFFFFFFFFFC0
0FFFFFFFFFFFFFFFFFFFFFFFFFE0
1FFFFFFF8007FFFFC007FFFFFFE0
1FFFFFF80007FFFFC000FFFFFFF0
3FFFFFF00007FFFFC0003FFFFFF0
3FFFFFC00007FFFFC0000FFFFFF0
3FFFFF800007FFFFC00007FFFFF8
7FFFFF000007FFFFC00003FFFFF8
7FFFFF000007FFFFC00003FFFFF8
7FFFFE000007FFFFC00001FFFFF8
7FFFFE000007FFFFC00000FFFFF8
FFFFFC000007FFFFC00000FFFFFC
FFFFFC000007FFFFC00000FFFFFC
FFFFFC000007FFFFC00000FFFFFC
FFFFF8000007FFFFC000007FFFFC
FFFFF8000007FFFFC000007FFFFC
FFFFF8000007FFFFC000007FFFFC
FFFFF8000007FFFFC000007FFFFC
FFFFF8000007FFFFC000007FFFFC
FFFFF8000007FFFFC000007FFFFC
FFFFF8000007FFFFC000007FFFFC
FFFFF8000007FFFFC000007FFFFC
FFFFF8000007FFFFC000007FFFFC
FFFFF8000007FFFFC000007FFFFC
FFFFF8000007FFFFC000007FFFFC
FFFFF8000007FFFFC000007FFFFC
FFFFF8000007FFFFC000007FFFFC
FFFFF8000007FFFFC000007FFFFC
FFFFF8000007FFFFC000007FFFFC
FFFFF8000007FFFFC000007FFFFC
FFFFF8000007FFFFC000007FFFFC
FFFFF8000007FFFFC000007FFFFC
FFFFF8000007FFFFC000007FFFFC
FFFFF8000007FFFFC000007FFFFC
FFFFF8000007FFFFC000007FFFFC
FFFFF8000007FFFFC000007FFFFC
FFFFF8000007FFFFC000007FFFFC
FFFFF8000007FFFFC000007FFFFC
FFFFF8000007FFFFC000007FFFFC
FFFFF8000007FFFFC000007FFFFC
FFFFF8000007FFFFC000007FFFFC
FFFFF8000007FFFFC000007FFFFC
FFFFF8000007FFFFC000007FFFFC
FFFFF8000007FFFFC000007FFFFC
FFFFF8000007FFFFC000007FFFFC
FFFFF8000007FFFFC000007FFFFC
FFFFF8000007FFFFC000007FFFFC
FFFFF8000007FFFFC000007FFFFC
FFFFF8000007FFFFC000007FFFFC
FFFFF8000007FFFFC000007FFFFC
FFFFF8000007FFFFC000007FFFFC
FFFFF8000007FFFFC000007FFFFC
FFFFF8000007FFFFC000007FFFFC
FFFFF8000007FFFFC000007FFFFC
FFFFF8000007FFFFC000007FFFFC
FFFFF8000007FFFFC000007FFFFC
FFFFF8000007FFFFC000007FFFFC
FFFFF8000007FFFFC000007FFFFC
FFFFF8000007FFFFC000007FFFFC
FFFFF8000007FFFFC000007FFFFC
FFFFF8000007FFFFC000007FFFFC
FFFFF8000007FFFFC000007FFFFC
FFFFF8000007FFFFC000007FFFFC
FFFFF8000007FFFFC000007FFFFC
FFFFF8000007FFFFC000007FFFFC
FFFFF8000007FFFFC000007FFFFC
FFFFF8000007FFFFC000007FFFFC
FFFFF8000007FFFFC000007FFFFC
FFFFF8000007FFFFC000007FFFFC
FFFFF8000007FFFFC000007FFFFC
FFFFF8000007FFFFC000007FFFFC
FFFFF8000007FFFFC000007FFFFC
FFFFF8000007FFFFC000007FFFFC
FFFFF8000007FFFFC000007FFFFC
FFFFF8000007FFFFC000007FFFFC
FFFFF8000007FFFFC000007FFFFC
FFFFF8000007FFFFC000007FFFFC
FFFFF8000007FFFFC000007FFFFC
FFFFF8000007FFFFC000007FFFFC
FFFFF8000007FFFFC000007FFFFC
FFFFF8000007FFFFC000007FFFFC
FFFFF8000007FFFFC000007FFFFC
FFFFF8000007FFFFC000007FFFFC
FFFFF8000007FFFFC000007FFFFC
FFFFF8000007FFFFC000007FFFFC
FFFFF8000007FFFFC000007FFFFC
FFFFF8000007FFFFC000007FFFFC
FFFFF8000007FFFFC000007FFFFC
FFFFF8000007FFFFC000007FFFFC
FFFFF8000007FFFFC000007FFFFC
FFFFF8000007FFFFC000007FFFFC
FFFFF8000007FFFFC000007FFFFC
FFFFF8000007FFFFC000007FFFFC
FFFFF8000007FFFFC000007FFFFC
FFFFF8000007FFFFC000007FFFFC
FFFFF8000007FFFFC000007FFFFC
FFFFF8000007FFFFC000007FFFFC
FFFFF8000007FFFFC000007FFFFC
FFFFF8000007FFFFC000007FFFFC
FFFFF8000007FFFFC000007FFFFC
FFFFF8000007FFFFC000007FFFFC
7FFFF0000003FFFF8000003FFFF8
7FFFF0000003FFFF8000003FFFF8
3FFFE0000001FFFF0000001FFFF0
3FFFC0000001FFFE0000001FFFE0
1FFF80000000FFFC0000000FFFC0
07FF000000003FF800000003FF80
01FC000000000FE000000000FE00
ENDCHAR
STARTCHAR 004E
ENCODING 78
SWIDTH 461 0
DWIDTH 83 0
BBX 75 127 4 0
BITMAP
00000001FFF000000000
0000003FFFFF80000000
000001FFFFFFF0000000
00000FFFFFFFFE000000
00003FFFFFFFFF800000
00007FFFFFFFFFC00000
0001FFFFFFFFFFF00000
0003FFFFFFFFFFF80000
0007FFFFFFFFFFFC0000
000FFFFFFFFFFFFF0000
001FFFFFFFFFFFFF8000
003FFFFFFFFFFFFF8000
007FFFFFFFFFFFFFC000
00FFFFFFFFFFFFFFE000
01FFFFFFFFFFFFFFF000
01FFFFFFFFFFFFFFF800
03FFFFFFFFFFFFFFF800
07FFFFFFFFFFFFFFFC00
07FFFFFFFFFFFFFFFC00
0FFFFFFFFFFFFFFFFE00
0FFFFFFFFFFFFFFFFE00
1FFFFFFF803FFFFFFF00
1FFFFFFC0007FFFFFF00
3FFFFFF00001FFFFFF80
3FFFFFC000007FFFFF80
3FFFFF8000003FFFFF80
7FFFFF0000003FFFFFC0
7FFFFF0000001FFFFFC0
7FFFFE0000000FFFFFC0
7FFFFE0000000FFFFFC0
FFFFFC00000007FFFFE0
FFFFFC00000007FFFFE0
FFFFFC00000007FFFFE0
FFFFF800000003FFFFE0
FFFFF800000003FFFFE0
FFFFF800000003FFFFE0
FFFFF800000003FFFFE0
FFFFF800000003FFFFE0
FFFFF800000003FFFFE0
FFFFF800000003FFFFE0
FFFFF800000003FFFFE0
FFFFF800000003FFFFE0
FFFFF800000003FFFFE0
FFFFF800000003FFFFE0
FFFFF800000003FFFFE0
FFFFF800000003FFFFE0
FFFFF800000003FFFFE0
FFFFF800000003FFFFE0
FFFFF800000003FFFFE0
FFFFF800000003FFFFE0
FFFFF800000003FFFFE0
FFFFF800000003FFFFE0
FFFFF800000003FFFFE0
FFFFF800000003FFFFE0
FFFFF800000003FFFFE0
FFFFF800000003FFFFE0
FFFFF800000003FFFFE0
FFFFF800000003FFFFE0
FFFFF800000003FFFFE0
FFFFF800000003FFFFE0
FFFFF800000003FFFFE0
FFFFF800000003FFFFE0
FFFFF800000003FFFFE0
FFFFF800000003FFFFE0
FFFFF800000003FFFFE0
FFFFF800000003FFFFE0
FFFFF800000003FFFFE0
FFFFF800000003FFFFE0
FFFFF800000003FFFFE0
FFFFF800000003FFFFE0
FFFFF800000003FFFFE0
FFFFF800000003FFFFE0
FFFFF800000003FFFFE0
FFFFF800000003FFFFE0
FFFFF800000003FFFFE0
FFFFF800000003FFFFE0
FFFFF800000003FFFFE0
FFFFF800000003FFFFE0
FFFFF800000003FFFFE0
FFFFF800000003FFFFE0
FFFFF800000003FFFFE0
FFFFF800000003FFFFE0
FFFFF800000003FFFFE0
FFFFF800000003FFFFE0
FFFFF800000003FFFFE0
FFFFF800000003FFFFE0
FFFFF800000003FFFFE0
FFFFF800000003FFFFE0
FFFFF800000003FFFFE0
FFFFF800000003FFFFE0
FFFFF800000003FFFFE0
FFFFF800000003FFFFE0
FFFFF800000003FFFFE0
FFFFF800000003FFFFE0
FFFFF800000003FFFFE0
FFFFF800000003FFFFE0
FFFFF800000003FFFFE0
FFFFF800000003FFFFE0
FFFFF800000003FFFFE0
FFFFF800000003FFFFE0
FFFFF800000003FFFFE0
FFFFF800000003FFFFE0
FFFFF800000003FFFFE0
FFFFF800000003FFFFE0
FFFFF800000003FFFFE0
FFFFF800000003FFFFE0
FFFFF800000003FFFFE0
FFFFF800000003FFFFE0
FFFFF800000003FFFFE0
FFFFF800000003FFFFE0
FFFFF800000003FFFFE0
FFFFF800000003FFFFE0
FFFFF800000003FFFFE0
FFFFF800000003FFFFE0
FFFFF800000003FFFFE0
FFFFF800000003FFFFE0
FFFFF800000003FFFFE0
FFFFF800000003FFFFE0
FFFFF800000003FFFFE0
FFFFF800000003FFFFE0
7FFFF000000001FFFFC0
7FFFF000000001FFFFC0
3FFFE000000000FFFF80
3FFFE000000000FFFF00
1FFFC0000000007FFE00
07FF00000000001FFC00
01FC000000000007F000
ENDCHAR
STARTCHAR 004F
ENCODING 79
SWIDTH 461 0
DWIDTH 83 0
BBX 75 127 4 0
BITMAP
00000001FFF000000000
0000003FFFFF80000000
000001FFFFFFF0000000
00000FFFFFFFFE000000
00003FFFFFFFFF800000
00007FFFFFFFFFC00000
0001FFFFFFFFFFF00000
0003FFFFFFFFFFF80000
0007FFFFFFFFFFFC0000
000FFFFFFFFFFFFF0000
001FFFFFFFFFFFFF8000
003FFFFFFFFFFFFF8000
007FFFFFFFFFFFFFC000
00FFFFFFFFFFFFFFE000
01FFFFFFFFFFFFFFF000
01FFFFFFFFFFFFFFF800
03FFFFFFFFFFFFFFF800
07FFFFFFFFFFFFFFFC00
07FFFFFFFFFFFFFFFC00
0FFFFFFFFFFFFFFFFE00
0FFFFFFFFFFFFFFFFE00
1FFFFFFF803FFFFFFF00
1FFFFFFC0007FFFFFF00
3FFFFFF00001FFFFFF80
3FFFFFC000007FFFFF80
3FFFFF8000003FFFFF80
7FFFFF0000001FFFFFC0
7FFFFF0000001FFFFFC0
7FFFFE0000000FFFFFC0
7FFFFE0000000FFFFFC0
FFFFFC00000007FFFFE0
FFFFFC00000007FFFFE0
FFFFFC00000007FFFFE0
FFFFF800000003FFFFE0
FFFFF800000003FFFFE0
FFFFF800000003FFFFE0
FFFFF800000003FFFFE0
FFFFF800000003FFFFE0
FFFFF800000003FFFFE0
FFFFF800000003FFFFE0
FFFFF800000003FFFFE0
FFFFF800000003FFFFE0
FFFFF800000003FFFFE0
FFFFF800000003FFFFE0
FFFFF800000003FFFFE0
FFFFF800000003FFFFE0
FFFFF800000003FFFFE0
FFFFF800000003FFFFE0
FFFFF800000003FFFFE0
FFFFF800000003FFFFE0
FFFFF800000003FFFFE0
FFFFF800000003FFFFE0
FFFFF800000003FFFFE0
FFFFF800000003FFFFE0
FFFFF800000003FFFFE0
FFFFF800000003FFFFE0
FFFFF800000003FFFFE0
FFFFF800000003FFFFE0
FFFFF800000003FFFFE0
FFFFF800000003FFFFE0
FFFFF800000003FFFFE0
FFFFF800000003FFFFE0
FFFFF800000003FFFFE0
FFFFF800000003FFFFE0
FFFFF800000003FFFFE0
FFFFF800000003FFFFE0
FFFFF800000003FFFFE0
FFFFF800000003FFFFE0
FFFFF800000003FFFFE0
FFFFF800000003FFFFE0
FFFFF800000003FFFFE0
FFFFF800000003FFFFE0
FFFFF800000003FFFFE0
FFFFF800000003FFFFE0
FFFFF800000003FFFFE0
FFFFF800000003FFFFE0
FFFFF800000003FFFFE0
FFFFF800000003FFFFE0
FFFFF800000003FFFFE0
FFFFF800000003FFFFE0
FFFFF800000003FFFFE0
FFFFF800000003FFFFE0
FFFFF800000003FFFFE0
FFFFF800000003FFFFE0
FFFFF800000003FFFFE0
FFFFF800000003FFFFE0
FFFFF800000003FFFFE0
FFFFF800000003FFFFE0
FFFFF800000003FFFFE0
FFFFF800000003FFFFE0
FFFFF800000003FFFFE0
FFFFF800000003FFFFE0
FFFFF800000003FFFFE0
FFFFF800000003FFFFE0
FFFFFC00000007FFFFE0
FFFFFC00000007FFFFE0
FFFFFC00000007FFFFE0
7FFFFE0000000FFFFFC0
7FFFFE0000000FFFFFC0
7FFFFF0000001FFFFFC0
7FFFFF0000001FFFFFC0
3FFFFF8000003FFFFF80
3FFFFFC000007FFFFF80
3FFFFFF00001FFFFFF80
1FFFFFF80007FFFFFF00
1FFFFFFF003FFFFFFF00
0FFFFFFFFFFFFFFFFE00
0FFFFFFFFFFFFFFFFE00
07FFFFFFFFFFFFFFFC00
07FFFFFFFFFFFFFFFC00
03FFFFFFFFFFFFFFF800
03FFFFFFFFFFFFFFF800
01FFFFFFFFFFFFFFF000
00FFFFFFFFFFFFFFE000
007FFFFFFFFFFFFFC000
007FFFFFFFFFFFFFC000
003FFFFFFFFFFFFF8000
001FFFFFFFFFFFFF0000
0007FFFFFFFFFFFC0000
0003FFFFFFFFFFF80000
0001FFFFFFFFFFF00000
00007FFFFFFFFFC00000
00003FFFFFFFFF800000
00000FFFFFFFFE000000
000001FFFFFFF0000000
0000003FFFFF80000000
00000003FFF800000000
ENDCHAR
STARTCHAR 0050
ENCODING 80
SWIDTH 461 0
DWIDTH 83 0
BBX 75 127 4 0
BITMAP
0001FFFFFFF000000000
000FFFFFFFFF80000000
003FFFFFFFFFF0000000
00FFFFFFFFFFFC000000
01FFFFFFFFFFFF000000
07FFFFFFFFFFFFC00000
0FFFFFFFFFFFFFF00000
0FFFFFFFFFFFFFF80000
1FFFFFFFFFFFFFFC0000
3FFFFFFFFFFFFFFE0000
3FFFFFFFFFFFFFFF8000
7FFFFFFFFFFFFFFFC000
7FFFFFFFFFFFFFFFE000
7FFFFFFFFFFFFFFFE000
FFFFFFFFFFFFFFFFF000
FFFFFFFFFFFFFFFFF800
FFFFFFFFFFFFFFFFFC00
FFFFFFFFFFFFFFFFFC00
FFFFFFFFFFFFFFFFFE00
FFFFFFFFFFFFFFFFFE00
FFFFFFFFFFFFFFFFFF00
FFFFF800003FFFFFFF00
FFFFF8000007FFFFFF80
FFFFF8000001FFFFFF80
FFFFF80000007FFFFF80
FFFFF80000003FFFFFC0
FFFFF80000001FFFFFC0
FFFFF80000001FFFFFC0
FFFFF80000000FFFFFC0
FFFFF800000007FFFFC0
FFFFF800000007FFFFE0
FFFFF800000007FFFFE0
FFFFF800000003FFFFE0
FFFFF800000003FFFFE0
FFFFF800000003FFFFE0
FFFFF800000003FFFFE0
FFFFF800000003FFFFE0
FFFFF800000003FFFFE0
FFFFF800000003FFFFE0
FFFFF800000003FFFFE0
FFFFF800000003FFFFE0
FFFFF800000003FFFFE0
FFFFF800000007FFFFE0
FFFFF800000007FFFFE0
FFFFF800000007FFFFC0
FFFFF80000000FFFFFC0
FFFFF80000001FFFFFC0
FFFFF80000001FFFFFC0
FFFFF80000003FFFFFC0
FFFFF80000007FFFFF80
FFFFF8000001FFFFFF80
FFFFF8000007FFFFFF80
FFFFF800003FFFFFFF00
FFFFFFFFFFFFFFFFFF00
FFFFFFFFFFFFFFFFFE00
FFFFFFFFFFFFFFFFFE00
FFFFFFFFFFFFFFFFFC00
FFFFFFFFFFFFFFFFFC00
FFFFFFFFFFFFFFFFF800
7FFFFFFFFFFFFFFFF000
7FFFFFFFFFFFFFFFE000
7FFFFFFFFFFFFFFFC000
3FFFFFFFFFFFFFFFC000
3FFFFFFFFFFFFFFF8000
3FFFFFFFFFFFFFFE0000
7FFFFFFFFFFFFFFC0000
7FFFFFFFFFFFFFF80000
7FFFFFFFFFFFFFE00000
FFFFFFFFFFFFFFC00000
FFFFFFFFFFFFFF000000
FFFFFFFFFFFFFC000000
FFFFFFFFFFFFF0000000
FFFFFFFFFFFF80000000
FFFFFFFFFFF000000000
FFFFF800000000000000
FFFFF800000000000000
FFFFF800000000000000
FFFFF800000000000000
FFFFF800000000000000
FFFFF800000000000000
FFFFF800000000000000
FFFFF800000000000000
FFFFF800000000000000
FFFFF800000000000000
FFFFF800000000000000
FFFFF800000000000000
FFFFF800000000000000
FFFFF800000000000000
FFFFF800000000000000
FFFFF800000000000000
FFFFF800000000000000
FFFFF800000000000000
FFFFF800000000000000
FFFFF800000000000000
FFFFF800000000000000
FFFFF800000000000000
FFFFF800000000000000
FFFFF800000000000000
FFFFF800000000000000
FFFFF800000000000000
FFFFF800000000000000
FFFFF800000000000000
FFFFF800000000000000
FFFFF800000000000000
FFFFF800000000000000
FFFFF800000000000000
FFFFF800000000000000
FFFFF800000000000000
FFFFF800000000000000
FFFFF800000000000000
FFFFF800000000000000
FFFFF800000000000000
FFFFF800000000000000
FFFFF800000000000000
FFFFF800000000000000
FFFFF800000000000000
FFFFF800000000000000
FFFFF800000000000000
FFFFF800000000000000
FFFFF800000000000000
7FFFF000000000000000
7FFFF000000000000000
3FFFE000000000000000
3FFFE000000000000000
1FFFC000000000000000
07FF0000000000000000
01FC0000000000000000
ENDCHAR
STARTCHAR 0051
ENCODING 81
SWIDTH 461 0
DWIDTH 83 0
BBX 75 126 4 1
BITMAP
00000001FFF000000000
0000003FFFFF80000000
000001FFFFFFF0000000
00000FFFFFFFFE000000
00003FFFFFFFFF800000
00007FFFFFFFFFC00000
0001FFFFFFFFFFF00000
0003FFFFFFFFFFF80000
0007FFFFFFFFFFFC0000
000FFFFFFFFFFFFE0000
001FFFFFFFFFFFFF8000
003FFFFFFFFFFFFF8000
007FFFFFFFFFFFFFC000
00FFFFFFFFFFFFFFE000
01FFFFFFFFFFFFFFF000
01FFFFFFFFFFFFFFF800
03FFFFFFFFFFFFFFF800
07FFFFFFFFFFFFFFFC00
07FFFFFFFFFFFFFFFC00
0FFFFFFFFFFFFFFFFE00
0FFFFFFFFFFFFFFFFE00
1FFFFFFF803FFFFFFF00
1FFFFFFC0007FFFFFF00
3FFFFFF00001FFFFFF80
3FFFFFC000007FFFFF80
3FFFFF8000003FFFFF80
7FFFFF0000003FFFFFC0
7FFFFF0000001FFFFFC0
7FFFFE0000000FFFFFC0
7FFFFE0000000FFFFFC0
FFFFFC00000007FFFFE0
FFFFFC00000007FFFFE0
FFFFFC00000007FFFFE0
FFFFF800000003FFFFE0
FFFFF800000003FFFFE0
FFFFF800000003FFFFE0
FFFFF800000003FFFFE0
FFFFF800000003FFFFE0
FFFFF800000003FFFFE0
FFFFF800000003FFFFE0
FFFFF800000003FFFFE0
FFFFF800000003FFFFE0
FFFFF800000003FFFFE0
FFFFF800000003FFFFE0
FFFFF800000003FFFFE0
FFFFF800000003FFFFE0
FFFFF800000003FFFFE0
FFFFF800000003FFFFE0
FFFFF800000003FFFFE0
FFFFF800000003FFFFE0
FFFFF800000003FFFFE0
FFFFF800000003FFFFE0
FFFFF800000003FFFFE0
FFFFF800000003FFFFE0
FFFFF800000003FFFFE0
FFFFF800000003FFFFE0
FFFFF800000003FFFFE0
FFFFF800000003FFFFE0
FFFFF800000003FFFFE0
FFFFF800000003FFFFE0
FFFFF800000003FFFFE0
FFFFF800000003FFFFE0
FFFFF800000003FFFFE0
FFFFF800000003FFFFE0
FFFFF800000003FFFFE0
FFFFF800000003FFFFE0
FFFFF800000003FFFFE0
FFFFF800000003FFFFE0
FFFFF800000003FFFFE0
FFFFF800000003FFFFE0
FFFFF800000003FFFFE0
FFFFF800000003FFFFE0
FFFFF800000003FFFFE0
FFFFF800000003FFFFE0
FFFFF800000003FFFFE0
FFFFF800000003FFFFE0
FFFFF800000003FFFFE0
FFFFF800000003FFFFE0
FFFFF800000003FFFFE0
FFFFF800000003FFFFE0
FFFFF8003F8003FFFFE0
FFFFF800FFE003FFFFE0
FFFFF801FFF003FFFFE0
FFFFF803FFF803FFFFE0
FFFFF807FFFC03FFFFE0
FFFFF80FFFFE03FFFFE0
FFFFF80FFFFE03FFFFE0
FFFFF81FFFFF03FFFFE0
FFFFF81FFFFF03FFFFE0
FFFFF81FFFFF03FFFFE0
FFFFF81FFFFF03FFFFE0
FFFFF81FFFFF03FFFFE0
FFFFF81FFFFF03FFFFE0
FFFFF81FFFFF07FFFFE0
FFFFF81FFFFF07FFFFE0
FFFFFC1FFFFF07FFFFE0
7FFFFC1FFFFF07FFFFC0
7FFFFC1FFFFF07FFFFC0
7FFFFE1FFFFF0FFFFFC0
7FFFFE1FFFFF0FFFFFC0
7FFFFF1FFFFF1FFFFFC0
3FFFFF9FFFFF3FFFFF80
3FFFFFDFFFFF7FFFFF80
3FFFFFFFFFFFFFFFFF80
1FFFFFFFFFFFFFFFFF00
1FFFFFFFFFFFFFFFFF00
0FFFFFFFFFFFFFFFFE00
0FFFFFFFFFFFFFFFFE00
07FFFFFFFFFFFFFFFC00
07FFFFFFFFFFFFFFFC00
03FFFFFFFFFFFFFFF800
03FFFFFFFFFFFFFFF800
01FFFFFFFFFFFFFFF000
00FFFFFFFFFFFFFFE000
007FFFFFFFFFFFFFE000
007FFFFFFFFFFFFFC000
003FFFFFFFFFFFFF8000
001FFFFFFFFFFFFF0000
000FFFFFFFFFFFFE0000
0007FFFFFFFFFFFC0000
0001FFFFFFFFFFF80000
0000FFFFFFFFFFE00000
00003FFFFFFFFF800000
00000FFFFFFFFF000000
000003FFFFFFF8000000
0000007FC0FFE0000000
ENDCHAR
STARTCHAR 0052
ENCODING 82
SWIDTH 461 0
DWIDTH 83 0
BBX 75 127 4 0
BITMAP
0001FFFFFFF000000000
000FFFFFFFFF80000000
003FFFFFFFFFF0000000
00FFFFFFFFFFFC000000
01FFFFFFFFFFFF000000
03FFFFFFFFFFFFC00000
07FFFFFFFFFFFFF00000
0FFFFFFFFFFFFFF80000
1FFFFFFFFFFFFFFC0000
3FFFFFFFFFFFFFFF0000
3FFFFFFFFFFFFFFF8000
7FFFFFFFFFFFFFFFC000
7FFFFFFFFFFFFFFFE000
7FFFFFFFFFFFFFFFE000
7FFFFFFFFFFFFFFFF000
FFFFFFFFFFFFFFFFF800
FFFFFFFFFFFFFFFFFC00
FFFFFFFFFFFFFFFFFC00
FFFFFFFFFFFFFFFFFE00
FFFFFFFFFFFFFFFFFE00
FFFFFFFFFFFFFFFFFF00
FFFFF800003FFFFFFF00
FFFFF8000007FFFFFF80
FFFFF8000001FFFFFF80
FFFFF80000007FFFFF80
FFFFF80000003FFFFFC0
FFFFF80000001FFFFFC0
FFFFF80000001FFFFFC0
FFFFF80000000FFFFFC0
FFFFF800000007FFFFC0
FFFFF800000007FFFFE0
FFFFF800000007FFFFE0
FFFFF800000003FFFFE0
FFFFF800000003FFFFE0
FFFFF800000003FFFFE0
FFFFF800000003FFFFE0
FFFFF800000003FFFFE0
FFFFF800000003FFFFE0
FFFFF800000003FFFFE0
FFFFF800000003FFFFE0
FFFFF800000003FFFFE0
FFFFF800000003FFFFE0
FFFFF800000007FFFFE0
FFFFF800000007FFFFE0
FFFFF800000007FFFFC0
FFFFF80000000FFFFFC0
FFFFF80000001FFFFFC0
FFFFF80000001FFFFFC0
FFFFF80000003FFFFFC0
FFFFF80000007FFFFF80
FFFFF8000001FFFFFF80
FFFFF8000007FFFFFF80
FFFFF800003FFFFFFF00
FFFFFFFFFFFFFFFFFF00
FFFFFFFFFFFFFFFFFE00
FFFFFFFFFFFFFFFFFE00
FFFFFFFFFFFFFFFFFC00
FFFFFFFFFFFFFFFFF800
FFFFFFFFFFFFFFFFF800
7FFFFFFFFFFFFFFFF000
7FFFFFFFFFFFFFFFE000
7FFFFFFFFFFFFFFFC000
3FFFFFFFFFFFFFFFC000
3FFFFFFFFFFFFFFF8000
3FFFFFFFFFFFFFFFC000
7FFFFFFFFFFFFFFFC000
7FFFFFFFFFFFFFFFE000
7FFFFFFFFFFFFFFFF000
FFFFFFFFFFFFFFFFF800
FFFFFFFFFFFFFFFFF800
FFFFFFFFFFFFFFFFFC00
FFFFFFFFFFFFFFFFFE00
FFFFFFFFFFFFFFFFFE00
FFFFFFFFFFFFFFFFFF00
FFFFF800003FFFFFFF00
FFFFF8000007FFFFFF80
FFFFF8000001FFFFFF80
FFFFF8000000FFFFFF80
FFFFF80000003FFFFFC0
FFFFF80000001FFFFFC0
FFFFF80000001FFFFFC0
FFFFF80000000FFFFFC0
FFFFF80000000FFFFFC0
FFFFF800000007FFFFE0
FFFFF800000007FFFFE0
FFFFF800000007FFFFE0
FFFFF800000003FFFFE0
FFFFF800000003FFFFE0
FFFFF800000003FFFFE0
FFFFF800000003FFFFE0
FFFFF800000003FFFFE0
FFFFF800000003FFFFE0
FFFFF800000003FFFFE0
FFFFF800000003FFFFE0
FFFFF800000003FFFFE0
FFFFF800000003FFFFE0
FFFFF800000003FFFFE0
FFFFF800000003FFFFE0
FFFFF800000003FFFFE0
FFFFF800000003FFFFE0
FFFFF800000003FFFFE0
FFFFF800000003FFFFE0
FFFFF800000003FFFFE0
FFFFF800000003FFFFE0
FFFFF800000003FFFFE0
FFFFF800000003FFFFE0
FFFFF800000003FFFFE0
FFFFF800000003FFFFE0
FFFFF800000003FFFFE0
FFFFF800000003FFFFE0
FFFFF800000003FFFFE0
FFFFF800000003FFFFE0
FFFFF800000003FFFFE0
FFFFF800000003FFFFE0
FFFFF800000003FFFFE0
FFFFF800000003FFFFE0
FFFFF800000003FFFFE0
FFFFF800000003FFFFE0
FFFFF800000003FFFFE0
FFFFF800000003FFFFE0
7FFFF000000001FFFFC0
7FFFF000000001FFFFC0
3FFFE000000000FFFF80
3FFFE000000000FFFF00
1FFFC0000000007FFE00
07FF00000000001FFC00
01FC000000000007F000
ENDCHAR
STARTCHAR 0053
ENCODING 83
SWIDTH 461 0
DWIDTH 83 0
BBX 75 127 4 0
BITMAP
00000001FFF000000000
0000003FFFFF80000000
000001FFFFFFF0000000
00000FFFFFFFFE000000
00003FFFFFFFFF800000
00007FFFFFFFFFC00000
0001FFFFFFFFFFF00000
0003FFFFFFFFFFF80000
0007FFFFFFFFFFFC0000
000FFFFFFFFFFFFE0000
001FFFFFFFFFFFFF0000
003FFFFFFFFFFFFF8000
007FFFFFFFFFFFFFC000
00FFFFFFFFFFFFFFE000
01FFFFFFFFFFFFFFF000
01FFFFFFFFFFFFFFF000
03FFFFFFFFFFFFFFF800
07FFFFFFFFFFFFFFFC00
07FFFFFFFFFFFFFFFC00
0FFFFFFFFFFFFFFFFE00
0FFFFFFFFFFFFFFFFE00
1FFFFFFF803FFFFFFF00
1FFFFFF80007FFFFFF00
3FFFFFF00001FFFFFF80
3FFFFFC000007FFFFF80
3FFFFF8000003FFFFF80
7FFFFF0000003FFFFFC0
7FFFFF0000001FFFFFC0
7FFFFE0000000FFFFFC0
7FFFFE0000000FFFFFC0
7FFFFC00000007FFFFC0
FFFFFC00000007FFFFE0
FFFFF800000007FFFFE0
FFFFF800000003FFFFE0
FFFFF800000003FFFFE0
FFFFF800000003FFFFE0
FFFFF800000003FFFFE0
FFFFF800000003FFFFE0
FFFFF800000003FFFFE0
FFFFF800000003FFFFE0
FFFFF800000003FFFFE0
FFFFF800000001FFFFC0
FFFFFC00000001FFFFC0
FFFFFC00000000FFFF80
7FFFFC000000007FFF00
7FFFFE000000003FFE00
7FFFFF000000000FF800
7FFFFF0000000001C000
3FFFFF80000000000000
3FFFFFC0000000000000
3FFFFFE0000000000000
1FFFFFF8000000000000
1FFFFFFF800000000000
0FFFFFFFFFF000000000
0FFFFFFFFFFF80000000
07FFFFFFFFFFF0000000
07FFFFFFFFFFFE000000
03FFFFFFFFFFFF800000
03FFFFFFFFFFFFC00000
01FFFFFFFFFFFFF00000
00FFFFFFFFFFFFF80000
007FFFFFFFFFFFFC0000
007FFFFFFFFFFFFE0000
003FFFFFFFFFFFFF8000
001FFFFFFFFFFFFF8000
0007FFFFFFFFFFFFC000
0003FFFFFFFFFFFFE000
0001FFFFFFFFFFFFF000
0000FFFFFFFFFFFFF800
00003FFFFFFFFFFFF800
00000FFFFFFFFFFFFC00
000001FFFFFFFFFFFC00
0000007FFFFFFFFFFE00
00000003FFFFFFFFFE00
00000000003FFFFFFF00
000000000003FFFFFF00
000000000001FFFFFF80
0000000000007FFFFF80
0000000000003FFFFF80
0070000000001FFFFFC0
03FE000000001FFFFFC0
0FFF800000000FFFFFC0
1FFFC00000000FFFFFC0
3FFFE000000007FFFFC0
7FFFF000000007FFFFE0
7FFFF000000007FFFFE0
7FFFF000000003FFFFE0
FFFFF800000003FFFFE0
FFFFF800000003FFFFE0
FFFFF800000003FFFFE0
FFFFF800000003FFFFE0
FFFFF800000003FFFFE0
FFFFF800000003FFFFE0
FFFFF800000003FFFFE0
FFFFFC00000007FFFFE0
FFFFFC00000007FFFFE0
7FFFFC00000007FFFFE0
7FFFFE0000000FFFFFC0
7FFFFE0000000FFFFFC0
7FFFFF0000001FFFFFC0
7FFFFF0000001FFFFFC0
3FFFFF8000003FFFFF80
3FFFFFC000007FFFFF80
3FFFFFF00001FFFFFF80
1FFFFFF80007FFFFFF00
1FFFFFFF003FFFFFFF00
0FFFFFFFFFFFFFFFFE00
0FFFFFFFFFFFFFFFFE00
07FFFFFFFFFFFFFFFC00
07FFFFFFFFFFFFFFFC00
03FFFFFFFFFFFFFFF800
01FFFFFFFFFFFFFFF800
01FFFFFFFFFFFFFFF000
00FFFFFFFFFFFFFFE000
007FFFFFFFFFFFFFC000
003FFFFFFFFFFFFFC000
001FFFFFFFFFFFFF8000
000FFFFFFFFFFFFF0000
0007FFFFFFFFFFFC0000
0003FFFFFFFFFFF80000
0001FFFFFFFFFFF00000
00007FFFFFFFFFC00000
00003FFFFFFFFF800000
00000FFFFFFFFE000000
000001FFFFFFF0000000
0000003FFFFF80000000
00000001FFF000000000
ENDCHAR
STARTCHAR 0054
ENCODING 84
SWIDTH 461 0
DWIDTH 83 0
BBX 74 127 4 0
BITMAP
00FFFFFF803FFFFFE000
07FFFFFFF1FFFFFFFC00
0FFFFFFFFFFFFFFFFE00
1FFFFFFFFFFFFFFFFF00
3FFFFFFFFFFFFFFFFF80
3FFFFFFFFFFFFFFFFF80
7FFFFFFFFFFFFFFFFFC0
7FFFFFFFFFFFFFFFFFC0
7FFFFFFFFFFFFFFFFFC0
FFFFFFFFFFFFFFFFFFC0
FFFFFFFFFFFFFFFFFFC0
FFFFFFFFFFFFFFFFFFC0
FFFFFFFFFFFFFFFFFFC0
7FFFFFFFFFFFFFFFFFC0
7FFFFFFFFFFFFFFFFFC0
7FFFFFFFFFFFFFFFFF80
3FFFFFFFFFFFFFFFFF80
1FFFFFFFFFFFFFFFFF00
0FFFFFFFFFFFFFFFFE00
07FFFFFFFFFFFFFFFC00
01FFFFFFFFFFFFFFE000
0000001FFFFF00000000
0000001FFFFF00000000
0000001FFFFF00000000
0000001FFFFF00000000
0000001FFFFF00000000
0000001FFFFF00000000
0000001FFFFF00000000
0000001FFFFF00000000
0000001FFFFF00000000
0000001FFFFF00000000
0000001FFFFF00000000
0000001FFFFF00000000
0000001FFFFF00000000
0000001FFFFF00000000
0000001FFFFF00000000
0000001FFFFF00000000
0000001FFFFF00000000
0000001FFFFF00000000
0000001FFFFF00000000
0000001FFFFF00000000
0000001FFFFF00000000
0000001FFFFF00000000
0000001FFFFF00000000
0000001FFFFF00000000
0000001FFFFF00000000
0000001FFFFF00000000
0000001FFFFF00000000
0000001FFFFF00000000
0000001FFFFF00000000
0000001FFFFF00000000
0000001FFFFF00000000
0000001FFFFF00000000
0000001FFFFF00000000
0000001FFFFF00000000
0000001FFFFF00000000
0000001FFFFF00000000
0000001FFFFF00000000
0000001FFFFF00000000
0000001FFFFF00000000
0000001FFFFF00000000
0000001FFFFF00000000
0000001FFFFF00000000
0000001FFFFF00000000
0000001FFFFF00000000
0000001FFFFF00000000
0000001FFFFF00000000
0000001FFFFF00000000
0000001FFFFF00000000
0000001FFFFF00000000
0000001FFFFF00000000
0000001FFFFF00000000
0000001FFFFF00000000
0000001FFFFF00000000
0000001FFFFF00000000
0000001FFFFF00000000
0000001FFFFF00000000
0000001FFFFF00000000
0000001FFFFF00000000
0000001FFFFF00000000
0000001FFFFF00000000
0000001FFFFF00000000
0000001FFFFF00000000
0000001FFFFF00000000
0000001FFFFF00000000
0000001FFFFF00000000
0000001FFFFF00000000
0000001FFFFF00000000
0000001FFFFF00000000
0000001FFFFF00000000
0000001FFFFF00000000
0000001FFFFF00000000
0000001FFFFF00000000
0000001FFFFF00000000
0000001FFFFF00000000
0000001FFFFF00000000
0000001FFFFF00000000
0000001FFFFF00000000
0000001FFFFF00000000
0000001FFFFF00000000
0000001FFFFF00000000
0000001FFFFF00000000
0000001FFFFF00000000
0000001FFFFF00000000
0000001FFFFF00000000
0000001FFFFF00000000
0000001FFFFF00000000
0000001FFFFF00000000
0000001FFFFF00000000
0000001FFFFF00000000
0000001FFFFF00000000
0000001FFFFF00000000
0000001FFFFF00000000
0000001FFFFF00000000
0000001FFFFF00000000
0000001FFFFF00000000
0000001FFFFF00000000
0000001FFFFF00000000
0000001FFFFF00000000
0000001FFFFF00000000
0000000FFFFE00000000
0000000FFFFE00000000
00000007FFFC00000000
00000007FFF800000000
00000003FFF000000000
00000000FFE000000000
000000003F8000000000
ENDCHAR
STARTCHAR 0055
ENCODING 85
SWIDTH 461 0
DWIDTH 83 0
BBX 75 127 4 0
BITMAP
01FC000000000007F000
07FF00000000001FFC00
0FFF80000000003FFE00
1FFFC0000000007FFF00
3FFFE000000000FFFF80
7FFFF000000001FFFFC0
7FFFF000000001FFFFC0
FFFFF800000003FFFFE0
FFFFF800000003FFFFE0
FFFFF800000003FFFFE0
FFFFF800000003FFFFE0
FFFFF800000003FFFFE0
FFFFF800000003FFFFE0
FFFFF800000003FFFFE0
FFFFF800000003FFFFE0
FFFFF800000003FFFFE0
FFFFF800000003FFFFE0
FFFFF800000003FFFFE0
FFFFF800000003FFFFE0
FFFFF800000003FFFFE0
FFFFF800000003FFFFE0
FFFFF800000003FFFFE0
FFFFF800000003FFFFE0
FFFFF800000003FFFFE0
FFFFF800000003FFFFE0
FFFFF800000003FFFFE0
FFFFF800000003FFFFE0
FFFFF800000003FFFFE0
FFFFF800000003FFFFE0
FFFFF800000003FFFFE0
FFFFF800000003FFFFE0
FFFFF800000003FFFFE0
FFFFF800000003FFFFE0
FFFFF800000003FFFFE0
FFFFF800000003FFFFE0
FFFFF800000003FFFFE0
FFFFF800000003FFFFE0
FFFFF800000003FFFFE0
FFFFF800000003FFFFE0
FFFFF800000003FFFFE0
FFFFF800000003FFFFE0
FFFFF800000003FFFFE0
FFFFF800000003FFFFE0
FFFFF800000003FFFFE0
FFFFF800000003FFFFE0
FFFFF800000003FFFFE0
FFFFF800000003FFFFE0
FFFFF800000003FFFFE0
FFFFF800000003FFFFE0
FFFFF800000003FFFFE0
FFFFF800000003FFFFE0
FFFFF800000003FFFFE0
FFFFF800000003FFFFE0
FFFFF800000003FFFFE0
FFFFF800000003FFFFE0
FFFFF800000003FFFFE0
FFFFF800000003FFFFE0
FFFFF800000003FFFFE0
FFFFF800000003FFFFE0
FFFFF800000003FFFFE0
FFFFF800000003FFFFE0
FFFFF800000003FFFFE0
FFFFF800000003FFFFE0
FFFFF800000003FFFFE0
FFFFF800000003FFFFE0
FFFFF800000003FFFFE0
FFFFF800000003FFFFE0
FFFFF800000003FFFFE0
FFFFF800000003FFFFE0
FFFFF800000003FFFFE0
FFFFF800000003FFFFE0
FFFFF800000003FFFFE0
FFFFF800000003FFFFE0
FFFFF800000003FFFFE0
FFFFF800000003FFFFE0
FFFFF800000003FFFFE0
FFFFF800000003FFFFE0
FFFFF800000003FFFFE0
FFFFF800000003FFFFE0
FFFFF800000003FFFFE0
FFFFF800000003FFFFE0
FFFFF800000003FFFFE0
FFFFF800000003FFFFE0
FFFFF800000003FFFFE0
FFFFF800000003FFFFE0
FFFFF800000003FFFFE0
FFFFF800000003FFFFE0
FFFFF800000003FFFFE0
FFFFF800000003FFFFE0
FFFFF800000003FFFFE0
FFFFF800000003FFFFE0
FFFFF800000003FFFFE0
FFFFF800000003FFFFE0
FFFFF800000003FFFFE0
FFFFFC00000007FFFFE0
FFFFFC00000007FFFFE0
FFFFFC00000007FFFFE0
7FFFFE0000000FFFFFC0
7FFFFE0000000FFFFFC0
7FFFFF0000001FFFFFC0
7FFFFF0000001FFFFFC0
3FFFFF8000003FFFFF80
3FFFFFC000007FFFFF80
3FFFFFF00001FFFFFF80
1FFFFFF80007FFFFFF00
1FFFFFFF003FFFFFFF00
0FFFFFFFFFFFFFFFFE00
0FFFFFFFFFFFFFFFFE00
07FFFFFFFFFFFFFFFC00
07FFFFFFFFFFFFFFFC00
03FFFFFFFFFFFFFFF800
03FFFFFFFFFFFFFFF800
01FFFFFFFFFFFFFFF000
00FFFFFFFFFFFFFFE000
007FFFFFFFFFFFFFC000
007FFFFFFFFFFFFFC000
003FFFFFFFFFFFFF8000
001FFFFFFFFFFFFF0000
0007FFFFFFFFFFFC0000
0003FFFFFFFFFFF80000
0001FFFFFFFFFFF00000
00007FFFFFFFFFC00000
00003FFFFFFFFF800000
00000FFFFFFFFE000000
000001FFFFFFF0000000
0000003FFFFF80000000
00000003FFF800000000
ENDCHAR
STARTCHAR 0056
ENCODING 86
SWIDTH 461 0
DWIDTH 83 0
BBX 75 127 4 0
BITMAP
01FC000000000007F000
07FF00000000001FFC00
0FFF80000000003FFE00
1FFFC0000000007FFF00
3FFFE000000000FFFF80
7FFFF000000001FFFFC0
7FFFF000000001FFFFC0
FFFFF800000003FFFFE0
FFFFF800000003FFFFE0
FFFFF800000003FFFFE0
FFFFF800000003FFFFE0
FFFFF800000003FFFFE0
FFFFF800000003FFFFE0
FFFFF800000003FFFFE0
FFFFF800000003FFFFE0
FFFFF800000003FFFFE0
FFFFF800000003FFFFE0
FFFFF800000003FFFFE0
FFFFF800000003FFFFE0
FFFFF800000003FFFFE0
FFFFF800000003FFFFE0
FFFFF800000003FFFFE0
FFFFF800000003FFFFE0
FFFFF800000003FFFFE0
FFFFF800000003FFFFE0
FFFFF800000003FFFFE0
FFFFF800000003FFFFE0
FFFFF800000003FFFFE0
FFFFF800000003FFFFE0
FFFFF800000003FFFFE0
FFFFF800000003FFFFE0
FFFFF800000003FFFFE0
FFFFF800000003FFFFE0
FFFFF800000003FFFFE0
FFFFF800000003FFFFE0
FFFFF800000003FFFFE0
FFFFF800000003FFFFE0
FFFFF800000003FFFFE0
FFFFF800000003FFFFE0
FFFFF800000003FFFFE0
FFFFF800000003FFFFE0
FFFFF800000003FFFFE0
FFFFF800000003FFFFE0
FFFFF800000003FFFFE0
FFFFF800000003FFFFE0
FFFFF800000003FFFFE0
FFFFF800000003FFFFE0
FFFFF800000003FFFFE0
FFFFF800000003FFFFE0
FFFFF800000003FFFFE0
FFFFF800000003FFFFE0
FFFFF800000003FFFFE0
FFFFF800000003FFFFE0
FFFFF800000003FFFFE0
FFFFF800000003FFFFE0
FFFFF800000003FFFFE0
FFFFF800000003FFFFE0
FFFFF800000003FFFFE0
FFFFF800000003FFFFE0
FFFFF800000003FFFFE0
FFFFF800000003FFFFE0
FFFFF800000003FFFFE0
FFFFF800000003FFFFE0
FFFFF800000003FFFFE0
FFFFF800000003FFFFE0
FFFFF800000003FFFFE0
FFFFF800000003FFFFE0
FFFFF800000003FFFFE0
FFFFF800000003FFFFE0
FFFFF800000003FFFFE0
FFFFF800000003FFFFE0
FFFFF800000003FFFFE0
FFFFF800000003FFFFE0
FFFFFC00000007FFFFE0
7FFFFC00000007FFFFC0
7FFFFC00000007FFFFC0
7FFFFC00000007FFFFC0
7FFFFC00000007FFFFC0
7FFFFC00000007FFFFC0
7FFFFE0000000FFFFFC0
7FFFFE0000000FFFFFC0
3FFFFE0000000FFFFF80
3FFFFE0000001FFFFF80
3FFFFF0000001FFFFF80
3FFFFF0000001FFFFF80
3FFFFF0000003FFFFF00
1FFFFF8000003FFFFF00
1FFFFF8000003FFFFF00
1FFFFFC000007FFFFF00
0FFFFFC00000FFFFFE00
0FFFFFE00000FFFFFE00
0FFFFFF00001FFFFFE00
07FFFFF00003FFFFFC00
07FFFFF80007FFFFFC00
03FFFFFC0007FFFFF800
03FFFFFE000FFFFFF800
03FFFFFF001FFFFFF800
01FFFFFF807FFFFFF000
01FFFFFFC0FFFFFFF000
00FFFFFFF1FFFFFFE000
007FFFFFFBFFFFFFC000
007FFFFFFFFFFFFFC000
003FFFFFFFFFFFFF8000
003FFFFFFFFFFFFF8000
001FFFFFFFFFFFFF0000
000FFFFFFFFFFFFE0000
0007FFFFFFFFFFFC0000
0003FFFFFFFFFFF80000
0001FFFFFFFFFFF80000
0000FFFFFFFFFFF00000
00007FFFFFFFFFE00000
00003FFFFFFFFFC00000
00001FFFFFFFFF000000
00000FFFFFFFFE000000
000007FFFFFFFC000000
000003FFFFFFF8000000
000001FFFFFFF0000000
0000007FFFFFC0000000
0000003FFFFF80000000
0000001FFFFF00000000
0000000FFFFE00000000
0000000FFFFE00000000
00000007FFFC00000000
00000003FFFC00000000
00000003FFF800000000
00000000FFE000000000
000000003F8000000000
ENDCHAR
STARTCHAR 0057
ENCODING 87
SWIDTH 655 0
DWIDTH 118 0
BBX 110 127 4 0
BITMAP
01FC000000000FE000000000FE00
07FF000000003FF800000003FF80
0FFF800000007FFC00000007FFC0
1FFFC0000000FFFE0000000FFFE0
3FFFE0000001FFFF0000001FFFF0
7FFFF0000003FFFF8000003FFFF8
7FFFF0000003FFFF8000003FFFF8
FFFFF8000007FFFFC000007FFFFC
FFFFF8000007FFFFC000007FFFFC
FFFFF8000007FFFFC000007FFFFC
FFFFF8000007FFFFC000007FFFFC
FFFFF8000007FFFFC000007FFFFC
FFFFF8000007FFFFC000007FFFFC
FFFFF8000007FFFFC000007FFFFC
FFFFF8000007FFFFC000007FFFFC
FFFFF8000007FFFFC000007FFFFC
FFFFF8000007FFFFC000007FFFFC
FFFFF8000007FFFFC000007FFFFC
FFFFF8000007FFFFC000007FFFFC
FFFFF8000007FFFFC000007FFFFC
FFFFF8000007FFFFC000007FFFFC
FFFFF8000007FFFFC000007FFFFC
FFFFF8000007FFFFC000007FFFFC
FFFFF8000007FFFFC000007FFFFC
FFFFF8000007FFFFC000007FFFFC
FFFFF8000007FFFFC000007FFFFC
FFFFF8000007FFFFC000007FFFFC
FFFFF8000007FFFFC000007FFFFC
FFFFF8000007FFFFC000007FFFFC
FFFFF8000007FFFFC000007FFFFC
FFFFF8000007FFFFC000007FFFFC
FFFFF8000007FFFFC000007FFFFC
FFFFF8000007FFFFC000007FFFFC
FFFFF8000007FFFFC000007FFFFC
FFFFF8000007FFFFC000007FFFFC
FFFFF8000007FFFFC000007FFFFC
FFFFF8000007FFFFC000007FFFFC
FFFFF8000007FFFFC000007FFFFC
FFFFF8000007FFFFC000007FFFFC
FFFFF8000007FFFFC000007FFFFC
FFFFF8000007FFFFC000007FFFFC
FFFFF8000007FFFFC000007FFFFC
FFFFF8000007FFFFC000007FFFFC
FFFFF8000007FFFFC000007FFFFC
FFFFF8000007FFFFC000007FFFFC
FFFFF8000007FFFFC000007FFFFC
FFFFF8000007FFFFC000007FFFFC
FFFFF8000007FFFFC000007FFFFC
FFFFF8000007FFFFC000007FFFFC
FFFFF8000007FFFFC000007FFFFC
FFFFF8000007FFFFC000007FFFFC
FFFFF8000007FFFFC000007FFFFC
FFFFF8000007FFFFC000007FFFFC
FFFFF8000007FFFFC000007FFFFC
FFFFF8000007FFFFC000007FFFFC
FFFFF8000007FFFFC000007FFFFC
FFFFF8000007FFFFC000007FFFFC
FFFFF8000007FFFFC000007FFFFC
FFFFF8000007FFFFC000007FFFFC
FFFFF8000007FFFFC000007FFFFC
FFFFF8000007FFFFC000007FFFFC
FFFFF8000007FFFFC000007FFFFC
FFFFF8000007FFFFC000007FFFFC
FFFFF8000007FFFFC000007FFFFC
FFFFF8000007FFFFC000007FFFFC
FFFFF8000007FFFFC000007FFFFC
FFFFF8000007FFFFC000007FFFFC
FFFFF8000007FFFFC000007FFFFC
FFFFF8000007FFFFC000007FFFFC
FFFFF8000007FFFFC000007FFFFC
FFFFF8000007FFFFC000007FFFFC
FFFFF8000007FFFFC000007FFFFC
FFFFF8000007FFFFC000007FFFFC
FFFFF8000007FFFFC000007FFFFC
FFFFF8000007FFFFC000007FFFFC
FFFFF8000007FFFFC000007FFFFC
FFFFF8000007FFFFC000007FFFFC
FFFFF8000007FFFFC000007FFFFC
FFFFF8000007FFFFC000007FFFFC
FFFFF8000007FFFFC000007FFFFC
FFFFF8000007FFFFC000007FFFFC
FFFFF8000007FFFFC000007FFFFC
FFFFF8000007FFFFC000007FFFFC
FFFFF8000007FFFFC000007FFFFC
FFFFF8000007FFFFC000007FFFFC
FFFFF8000007FFFFC000007FFFFC
FFFFF8000007FFFFC000007FFFFC
FFFFF8000007FFFFC000007FFFFC
FFFFF8000007FFFFC000007FFFFC
FFFFF8000007FFFFC000007FFFFC
FFFFF8000007FFFFC000007FFFFC
FFFFF8000007FFFFC000007FFFFC
FFFFF8000007FFFFC000007FFFFC
FFFFF8000007FFFFC000007FFFFC
FFFFFC000007FFFFC000007FFFFC
FFFFFC000007FFFFC00000FFFFFC
FFFFFC000007FFFFC00000FFFFFC
7FFFFE000007FFFFC00000FFFFF8
7FFFFE000007FFFFC00001FFFFF8
7FFFFF000007FFFFC00001FFFFF8
7FFFFF000007FFFFC00003FFFFF8
3FFFFF800007FFFFC00007FFFFF8
3FFFFFC00007FFFFC0000FFFFFF0
3FFFFFF00007FFFFC0001FFFFFF0
1FFFFFF80007FFFFC0007FFFFFF0
1FFFFFFF0007FFFFC003FFFFFFE0
1FFFFFFFFFFFFFFFFFFFFFFFFFE0
0FFFFFFFFFFFFFFFFFFFFFFFFFC0
07FFFFFFFFFFFFFFFFFFFFFFFFC0
07FFFFFFFFFFFFFFFFFFFFFFFF80
03FFFFFFFFFFFFFFFFFFFFFFFF80
03FFFFFFFFFFFFFFFFFFFFFFFF00
01FFFFFFFFFFFFFFFFFFFFFFFE00
00FFFFFFFFFFFFFFFFFFFFFFFC00
007FFFFFFFFFFFFFFFFFFFFFFC00
007FFFFFFFFFFFFFFFFFFFFFF800
003FFFFFFFFFFFFFFFFFFFFFF000
001FFFFFFFFFFFFFFFFFFFFFE000
000FFFFFFFFFFFFFFFFFFFFF8000
0003FFFFFFFFFFFFFFFFFFFF0000
0001FFFFFFFFFFFFFFFFFFFE0000
0000FFFFFFFFFFFFFFFFFFF80000
00003FFFFFFFFFFFFFFFFFE00000
00000FFFFFFFFFFFFFFFFF800000
000003FFFFFFFFFFFFFFFE000000
0000007FFFFFFCFFFFFFF0000000
00000003FFFFE01FFFFE00000000
ENDCHAR
STARTCHAR 0058
ENCODING 88
SWIDTH 461 0
DWIDTH 83 0
BBX 75 127 4 0
BITMAP
01FC000000000007F000
07FF00000000001FFC00
0FFF80000000003FFE00
1FFFC0000000007FFF00
3FFFE000000000FFFF80
7FFFF000000001FFFFC0
7FFFF000000001FFFFC0
FFFFF800000003FFFFE0
FFFFF800000003FFFFE0
FFFFF800000003FFFFE0
FFFFF800000003FFFFE0
FFFFF800000003FFFFE0
FFFFF800000003FFFFE0
FFFFF800000003FFFFE0
FFFFF800000003FFFFE0
FFFFF800000003FFFFE0
FFFFF800000003FFFFE0
FFFFF800000003FFFFE0
FFFFF800000003FFFFE0
FFFFF800000003FFFFE0
FFFFF800000003FFFFE0
FFFFF800000003FFFFE0
FFFFF800000003FFFFE0
FFFFF800000003FFFFE0
FFFFF800000003FFFFE0
FFFFF800000003FFFFE0
FFFFF800000003FFFFE0
FFFFF800000003FFFFE0
FFFFF800000003FFFFE0
FFFFF800000003FFFFE0
FFFFF800000003FFFFE0
FFFFF800000003FFFFE0
FFFFF800000003FFFFE0
FFFFF800000003FFFFE0
FFFFF800000003FFFFE0
FFFFF800000003FFFFE0
FFFFF800000003FFFFE0
FFFFF800000003FFFFE0
FFFFF800000003FFFFE0
FFFFF800000003FFFFE0
FFFFF800000003FFFFE0
FFFFFC00000007FFFFE0
FFFFFC00000007FFFFE0
7FFFFC00000007FFFFC0
7FFFFE0000000FFFFFC0
7FFFFE0000000FFFFFC0
7FFFFF0000001FFFFFC0
7FFFFF0000001FFFFFC0
3FFFFF8000003FFFFF80
3FFFFFC000007FFFFF80
3FFFFFF00001FFFFFF80
1FFFFFF80007FFFFFF00
1FFFFFFF003FFFFFFF00
0FFFFFFFFFFFFFFFFE00
0FFFFFFFFFFFFFFFFE00
07FFFFFFFFFFFFFFFC00
07FFFFFFFFFFFFFFFC00
03FFFFFFFFFFFFFFF800
03FFFFFFFFFFFFFFF800
01FFFFFFFFFFFFFFF000
00FFFFFFFFFFFFFFE000
007FFFFFFFFFFFFFC000
003FFFFFFFFFFFFFC000
001FFFFFFFFFFFFF8000
003FFFFFFFFFFFFF8000
007FFFFFFFFFFFFFC000
00FFFFFFFFFFFFFFE000
01FFFFFFFFFFFFFFF000
01FFFFFFFFFFFFFFF800
03FFFFFFFFFFFFFFF800
07FFFFFFFFFFFFFFFC00
07FFFFFFFFFFFFFFFC00
0FFFFFFFFFFFFFFFFE00
0FFFFFFFFFFFFFFFFE00
1FFFFFFF803FFFFFFF00
1FFFFFFC0007FFFFFF00
1FFFFFF00001FFFFFF00
3FFFFFC000007FFFFF80
3FFFFF8000003FFFFF80
3FFFFF0000001FFFFF80
7FFFFF0000001FFFFFC0
7FFFFE0000000FFFFFC0
7FFFFE0000000FFFFFC0
7FFFFC00000007FFFFC0
FFFFFC00000007FFFFE0
FFFFFC00000007FFFFE0
FFFFF800000003FFFFE0
FFFFF800000003FFFFE0
FFFFF800000003FFFFE0
FFFFF800000003FFFFE0
FFFFF800000003FFFFE0
FFFFF800000003FFFFE0
FFFFF800000003FFFFE0
FFFFF800000003FFFFE0
FFFFF800000003FFFFE0
FFFFF800000003FFFFE0
FFFFF800000003FFFFE0
FFFFF800000003FFFFE0
FFFFF800000003FFFFE0
FFFFF800000003FFFFE0
FFFFF800000003FFFFE0
FFFFF800000003FFFFE0
FFFFF800000003FFFFE0
FFFFF800000003FFFFE0
FFFFF800000003FFFFE0
FFFFF800000003FFFFE0
FFFFF800000003FFFFE0
FFFFF800000003FFFFE0
FFFFF800000003FFFFE0
FFFFF800000003FFFFE0
FFFFF800000003FFFFE0
FFFFF800000003FFFFE0
FFFFF800000003FFFFE0
FFFFF800000003FFFFE0
FFFFF800000003FFFFE0
FFFFF800000003FFFFE0
FFFFF800000003FFFFE0
FFFFF800000003FFFFE0
FFFFF800000003FFFFE0
FFFFF800000003FFFFE0
7FFFF000000001FFFFC0
7FFFF000000001FFFFC0
3FFFE000000000FFFF80
3FFFE000000000FFFF00
1FFFC0000000007FFE00
07FF00000000001FFC00
01FC000000000007F000
ENDCHAR
STARTCHAR 0059
ENCODING 89
SWIDTH 461 0
DWIDTH 83 0
BBX 75 127 4 0
BITMAP
01FC000000000007F000
07FF00000000001FFC00
0FFF80000000003FFE00
1FFFC0000000007FFF00
3FFFE000000000FFFF80
7FFFF000000001FFFFC0
7FFFF000000001FFFFC0
FFFFF800000003FFFFE0
FFFFF800000003FFFFE0
FFFFF800000003FFFFE0
FFFFF800000003FFFFE0
FFFFF800000003FFFFE0
FFFFF800000003FFFFE0
FFFFF800000003FFFFE0
FFFFF800000003FFFFE0
FFFFF800000003FFFFE0
FFFFF800000003FFFFE0
FFFFF800000003FFFFE0
FFFFF800000003FFFFE0
FFFFF800000003FFFFE0
FFFFF800000003FFFFE0
FFFFF800000003FFFFE0
FFFFF800000003FFFFE0
FFFFF800000003FFFFE0
FFFFF800000003FFFFE0
FFFFF800000003FFFFE0
FFFFF800000003FFFFE0
FFFFF800000003FFFFE0
FFFFF800000003FFFFE0
FFFFF800000003FFFFE0
FFFFF800000003FFFFE0
FFFFF800000003FFFFE0
FFFFF800000003FFFFE0
FFFFF800000003FFFFE0
FFFFF800000003FFFFE0
FFFFF800000003FFFFE0
FFFFF800000003FFFFE0
FFFFF800000003FFFFE0
FFFFF800000003FFFFE0
FFFFF800000007FFFFE0
FFFFF800000007FFFFE0
FFFFFC00000007FFFFE0
FFFFFC00000007FFFFE0
7FFFFC0000000FFFFFC0
7FFFFE0000000FFFFFC0
7FFFFE0000000FFFFFC0
7FFFFF0000001FFFFFC0
3FFFFF0000003FFFFF80
3FFFFF8000003FFFFF80
3FFFFFC000007FFFFF80
1FFFFFF00001FFFFFF00
1FFFFFF80003FFFFFF00
1FFFFFFF803FFFFFFF00
0FFFFFFFF1FFFFFFFE00
0FFFFFFFFFFFFFFFFE00
07FFFFFFFFFFFFFFFC00
07FFFFFFFFFFFFFFF800
03FFFFFFFFFFFFFFF800
01FFFFFFFFFFFFFFF000
01FFFFFFFFFFFFFFF000
00FFFFFFFFFFFFFFE000
007FFFFFFFFFFFFFC000
003FFFFFFFFFFFFF8000
001FFFFFFFFFFFFF0000
000FFFFFFFFFFFFE0000
0007FFFFFFFFFFFC0000
0003FFFFFFFFFFF80000
0001FFFFFFFFFFF00000
00007FFFFFFFFFC00000
00003FFFFFFFFF000000
00000FFFFFFFFC000000
000001FFFFFFF0000000
0000001FFFFF00000000
0000001FFFFF00000000
0000001FFFFF00000000
0000001FFFFF00000000
0000001FFFFF00000000
0000001FFFFF00000000
0000001FFFFF00000000
0000001FFFFF00000000
0000001FFFFF00000000
0000001FFFFF00000000
0000001FFFFF00000000
0000001FFFFF00000000
0000001FFFFF00000000
0000001FFFFF00000000
0000001FFFFF00000000
0000001FFFFF00000000
0000001FFFFF00000000
0000001FFFFF00000000
0000001FFFFF00000000
0000001FFFFF00000000
0000001FFFFF00000000
0000001FFFFF00000000
0000001FFFFF00000000
0000001FFFFF00000000
0000001FFFFF00000000
0000001FFFFF00000000
0000001FFFFF00000000
0000001FFFFF00000000
0000001FFFFF00000000
0000001FFFFF00000000
0000001FFFFF00000000
0000001FFFFF00000000
0000001FFFFF00000000
0000001FFFFF00000000
0000001FFFFF00000000
0000001FFFFF00000000
0000001FFFFF00000000
0000001FFFFF00000000
0000001FFFFF00000000
0000001FFFFF00000000
0000001FFFFF00000000
0000001FFFFF00000000
0000001FFFFF00000000
0000001FFFFF00000000
0000001FFFFF00000000
0000001FFFFF00000000
0000001FFFFF00000000
0000001FFFFE00000000
0000000FFFFE00000000
0000000FFFFE00000000
00000007FFFC00000000
00000007FFF800000000
00000003FFF000000000
00000000FFE000000000
000000003F8000000000
ENDCHAR
STARTCHAR 005A
ENCODING 90
SWIDTH 461 0
DWIDTH 83 0
BBX 74 127 4 0
BITMAP
00FFFFFFFFFFFFF00000
03FFFFFFFFFFFFFE0000
0FFFFFFFFFFFFFFF8000
1FFFFFFFFFFFFFFFC000
3FFFFFFFFFFFFFFFF000
3FFFFFFFFFFFFFFFF800
7FFFFFFFFFFFFFFFFC00
7FFFFFFFFFFFFFFFFE00
7FFFFFFFFFFFFFFFFE00
7FFFFFFFFFFFFFFFFF00
FFFFFFFFFFFFFFFFFF00
7FFFFFFFFFFFFFFFFF80
7FFFFFFFFFFFFFFFFF80
7FFFFFFFFFFFFFFFFFC0
7FFFFFFFFFFFFFFFFFC0
3FFFFFFFFFFFFFFFFFC0
3FFFFFFFFFFFFFFFFFC0
1FFFFFFFFFFFFFFFFFC0
0FFFFFFFFFFFFFFFFFC0
07FFFFFFFFFFFFFFFFC0
00FFFFFFFFFFFFFFFFC0
0000000000000FFFFFC0
0000000000000FFFFFC0
0000000000001FFFFF80
0000000000001FFFFF80
0000000000003FFFFF80
0000000000007FFFFF00
0000000000007FFFFF00
000000000000FFFFFE00
000000000000FFFFFE00
000000000001FFFFFE00
000000000003FFFFFC00
000000000003FFFFF800
000000000007FFFFF800
00000000000FFFFFF000
00000000000FFFFFF000
00000000001FFFFFE000
00000000003FFFFFE000
00000000003FFFFFC000
00000000007FFFFF8000
0000000000FFFFFF8000
0000000000FFFFFF0000
0000000001FFFFFE0000
0000000003FFFFFE0000
0000000003FFFFFC0000
0000000007FFFFFC0000
000000000FFFFFF80000
000000000FFFFFF00000
000000001FFFFFF00000
000000003FFFFFE00000
000000003FFFFFC00000
000000007FFFFFC00000
000000007FFFFF800000
00000000FFFFFF000000
00000001FFFFFF000000
00000001FFFFFE000000
00000003FFFFFC000000
00000007FFFFFC000000
00000007FFFFF8000000
0000000FFFFFF0000000
0000001FFFFFF0000000
0000001FFFFFE0000000
0000003FFFFFC0000000
0000007FFFFFC0000000
0000007FFFFF80000000
000000FFFFFF00000000
000001FFFFFF00000000
000001FFFFFE00000000
000003FFFFFC00000000
000007FFFFFC00000000
000007FFFFF800000000
00000FFFFFF000000000
00001FFFFFF000000000
00001FFFFFE000000000
00003FFFFFC000000000
00007FFFFFC000000000
00007FFFFF8000000000
0000FFFFFF0000000000
0001FFFFFF0000000000
0001FFFFFE0000000000
0003FFFFFC0000000000
0007FFFFFC0000000000
0007FFFFF80000000000
000FFFFFF00000000000
001FFFFFF00000000000
001FFFFFE00000000000
003FFFFFC00000000000
003FFFFFC00000000000
007FFFFF800000000000
00FFFFFF800000000000
00FFFFFF000000000000
01FFFFFE000000000000
03FFFFFE000000000000
03FFFFFC000000000000
07FFFFF8000000000000
07FFFFF8000000000000
0FFFFFF0000000000000
0FFFFFE0000000000000
1FFFFFE0000000000000
1FFFFFC0000000000000
3FFFFFC0000000000000
3FFFFF80000000000000
3FFFFF00000000000000
7FFFFF00000000000000
7FFFFE00000000000000
7FFFFE00000000000000
7FFFFFFFFFFFFFFFE000
7FFFFFFFFFFFFFFFF800
FFFFFFFFFFFFFFFFFE00
7FFFFFFFFFFFFFFFFF00
7FFFFFFFFFFFFFFFFF80
7FFFFFFFFFFFFFFFFF80
7FFFFFFFFFFFFFFFFFC0
7FFFFFFFFFFFFFFFFFC0
7FFFFFFFFFFFFFFFFFC0
3FFFFFFFFFFFFFFFFFC0
3FFFFFFFFFFFFFFFFFC0
1FFFFFFFFFFFFFFFFFC0
1FFFFFFFFFFFFFFFFFC0
0FFFFFFFFFFFFFFFFFC0
07FFFFFFFFFFFFFFFFC0
03FFFFFFFFFFFFFFFF80
01FFFFFFFFFFFFFFFF80
00FFFFFFFFFFFFFFFF00
003FFFFFFFFFFFFFFE00
000FFFFFFFFFFFFFF800
0001FFFFFFFFFFFFE000
ENDCHAR
STARTCHAR 005B
ENCODING 91
SWIDTH 311 0
DWIDTH 56 0
BBX 47 127 4 0
BITMAP
0001FFFFFF00
000FFFFFFFE0
003FFFFFFFF0
00FFFFFFFFF8
01FFFFFFFFFC
07FFFFFFFFFC
0FFFFFFFFFFE
0FFFFFFFFFFE
1FFFFFFFFFFE
3FFFFFFFFFFE
3FFFFFFFFFFE
7FFFFFFFFFFE
7FFFFFFFFFFE
7FFFFFFFFFFE
FFFFFFFFFFFE
FFFFFFFFFFFC
FFFFFFFFFFFC
FFFFFFFFFFF8
FFFFFFFFFFF0
FFFFFFFFFFE0
FFFFFFFFFF00
FFFFF8000000
FFFFF8000000
FFFFF8000000
FFFFF8000000
FFFFF8000000
FFFFF8000000
FFFFF8000000
FFFFF8000000
FFFFF8000000
FFFFF8000000
FFFFF8000000
FFFFF8000000
FFFFF8000000
FFFFF8000000
FFFFF8000000
FFFFF8000000
FFFFF8000000
FFFFF8000000
FFFFF8000000
FFFFF8000000
FFFFF8000000
FFFFF8000000
FFFFF8000000
FFFFF8000000
FFFFF8000000
FFFFF8000000
FFFFF8000000
FFFFF8000000
FFFFF8000000
FFFFF8000000
FFFFF8000000
FFFFF8000000
FFFFF8000000
FFFFF8000000
FFFFF8000000
FFFFF8000000
FFFFF8000000
FFFFF8000000
FFFFF8000000
FFFFF8000000
FFFFF8000000
FFFFF8000000
FFFFF8000000
FFFFF8000000
FFFFF8000000
FFFFF8000000
FFFFF8000000
FFFFF8000000
FFFFF8000000
FFFFF8000000
FFFFF8000000
FFFFF8000000
FFFFF8000000
FFFFF8000000
FFFFF8000000
FFFFF8000000
FFFFF8000000
FFFFF8000000
FFFFF8000000
FFFFF8000000
FFFFF8000000
FFFFF8000000
FFFFF8000000
FFFFF8000000
FFFFF8000000
FFFFF8000000
FFFFF8000000
FFFFF8000000
FFFFF8000000
FFFFF8000000
FFFFF8000000
FFFFF8000000
FFFFF8000000
FFFFF8000000
FFFFF8000000
FFFFF8000000
FFFFF8000000
FFFFF8000000
FFFFF8000000
FFFFF8000000
FFFFF8000000
FFFFF8000000
FFFFF8000000
FFFFF8000000
FFFFF8000000
FFFFFFFFFF00
FFFFFFFFFFE0
FFFFFFFFFFF0
FFFFFFFFFFF8
FFFFFFFFFFFC
FFFFFFFFFFFC
FFFFFFFFFFFE
7FFFFFFFFFFE
7FFFFFFFFFFE
7FFFFFFFFFFE
3FFFFFFFFFFE
3FFFFFFFFFFE
1FFFFFFFFFFE
0FFFFFFFFFFE
0FFFFFFFFFFE
07FFFFFFFFFC
03FFFFFFFFFC
01FFFFFFFFF8
007FFFFFFFF0
001FFFFFFFE0
0003FFFFFF00
ENDCHAR
STARTCHAR 005C
ENCODING 92
SWIDTH 461 0
DWIDTH 83 0
BBX 75 127 4 0
BITMAP
01FC0000000000000000
07FF0000000000000000
0FFF8000000000000000
1FFFC000000000000000
3FFFE000000000000000
7FFFF000000000000000
7FFFF000000000000000
FFFFF800000000000000
FFFFF800000000000000
FFFFF800000000000000
FFFFF800000000000000
FFFFF800000000000000
FFFFF800000000000000
FFFFF800000000000000
FFFFFC00000000000000
FFFFFC00000000000000
7FFFFC00000000000000
7FFFFE00000000000000
7FFFFE00000000000000
7FFFFE00000000000000
3FFFFF00000000000000
3FFFFF00000000000000
3FFFFF80000000000000
3FFFFF80000000000000
1FFFFFC0000000000000
1FFFFFC0000000000000
0FFFFFE0000000000000
0FFFFFE0000000000000
0FFFFFF0000000000000
07FFFFF0000000000000
07FFFFF8000000000000
03FFFFF8000000000000
03FFFFFC000000000000
01FFFFFE000000000000
01FFFFFE000000000000
00FFFFFF000000000000
00FFFFFF000000000000
007FFFFF800000000000
007FFFFFC00000000000
003FFFFFC00000000000
003FFFFFE00000000000
001FFFFFF00000000000
001FFFFFF00000000000
000FFFFFF80000000000
0007FFFFF80000000000
0007FFFFFC0000000000
0003FFFFFE0000000000
0003FFFFFE0000000000
0001FFFFFF0000000000
0000FFFFFF8000000000
0000FFFFFF8000000000
00007FFFFFC000000000
00003FFFFFE000000000
00003FFFFFE000000000
00001FFFFFF000000000
00000FFFFFF800000000
00000FFFFFF800000000
000007FFFFFC00000000
000003FFFFFE00000000
000003FFFFFE00000000
000001FFFFFF00000000
000000FFFFFF80000000
000000FFFFFFC0000000
0000007FFFFFC0000000
0000003FFFFFE0000000
0000003FFFFFF0000000
0000001FFFFFF0000000
0000000FFFFFF8000000
0000000FFFFFFC000000
00000007FFFFFC000000
00000003FFFFFE000000
00000003FFFFFF000000
00000001FFFFFF000000
00000000FFFFFF800000
00000000FFFFFF800000
000000007FFFFFC00000
000000003FFFFFE00000
000000003FFFFFE00000
000000001FFFFFF00000
000000000FFFFFF80000
000000000FFFFFF80000
0000000007FFFFFC0000
0000000003FFFFFC0000
0000000003FFFFFE0000
0000000001FFFFFF0000
0000000001FFFFFF0000
0000000000FFFFFF8000
00000000007FFFFF8000
00000000007FFFFFC000
00000000003FFFFFC000
00000000001FFFFFE000
00000000001FFFFFE000
00000000000FFFFFF000
00000000000FFFFFF000
000000000007FFFFF800
000000000003FFFFF800
000000000003FFFFFC00
000000000001FFFFFC00
000000000001FFFFFE00
000000000000FFFFFE00
000000000000FFFFFE00
0000000000007FFFFF00
0000000000007FFFFF00
0000000000003FFFFF80
0000000000003FFFFF80
0000000000001FFFFF80
0000000000001FFFFFC0
0000000000000FFFFFC0
0000000000000FFFFFC0
0000000000000FFFFFC0
00000000000007FFFFC0
00000000000007FFFFE0
00000000000007FFFFE0
00000000000003FFFFE0
00000000000003FFFFE0
00000000000003FFFFE0
00000000000003FFFFE0
00000000000003FFFFE0
00000000000003FFFFE0
00000000000003FFFFE0
00000000000001FFFFC0
00000000000001FFFFC0
00000000000000FFFF80
00000000000000FFFF00
000000000000003FFE00
000000000000001FFC00
0000000000000007F000
ENDCHAR
STARTCHAR 005D
ENCODING 93
SWIDTH 311 0
DWIDTH 56 0
BBX 48 127 4 0
BITMAP
00FFFFFF8000
07FFFFFFF000
0FFFFFFFFC00
1FFFFFFFFF00
3FFFFFFFFF80
3FFFFFFFFFC0
7FFFFFFFFFE0
7FFFFFFFFFF0
7FFFFFFFFFF8
FFFFFFFFFFFC
FFFFFFFFFFFC
FFFFFFFFFFFE
FFFFFFFFFFFE
7FFFFFFFFFFE
7FFFFFFFFFFE
7FFFFFFFFFFF
3FFFFFFFFFFF
1FFFFFFFFFFF
0FFFFFFFFFFF
07FFFFFFFFFF
01FFFFFFFFFF
0000001FFFFF
0000001FFFFF
0000001FFFFF
0000001FFFFF
0000001FFFFF
0000001FFFFF
0000001FFFFF
0000001FFFFF
0000001FFFFF
0000001FFFFF
0000001FFFFF
0000001FFFFF
0000001FFFFF
0000001FFFFF
0000001FFFFF
0000001FFFFF
0000001FFFFF
0000001FFFFF
0000001FFFFF
0000001FFFFF
0000001FFFFF
0000001FFFFF
0000001FFFFF
0000001FFFFF
0000001FFFFF
0000001FFFFF
0000001FFFFF
0000001FFFFF
0000001FFFFF
0000001FFFFF
0000001FFFFF
0000001FFFFF
0000001FFFFF
0000001FFFFF
0000001FFFFF
0000001FFFFF
0000001FFFFF
0000001FFFFF
0000001FFFFF
0000001FFFFF
0000001FFFFF
0000001FFFFF
0000001FFFFF
0000001FFFFF
0000001FFFFF
0000001FFFFF
0000001FFFFF
0000001FFFFF
0000001FFFFF
0000001FFFFF
0000001FFFFF
0000001FFFFF
0000001FFFFF
0000001FFFFF
0000001FFFFF
0000001FFFFF
0000001FFFFF
0000001FFFFF
0000001FFFFF
0000001FFFFF
0000001FFFFF
0000001FFFFF
0000001FFFFF
0000001FFFFF
0000001FFFFF
0000001FFFFF
0000001FFFFF
0000001FFFFF
0000001FFFFF
0000001FFFFF
0000001FFFFF
0000001FFFFF
0000001FFFFF
0000001FFFFF
0000001FFFFF
0000001FFFFF
0000001FFFFF
0000001FFFFF
0000001FFFFF
0000001FFFFF
0000001FFFFF
0000001FFFFF
0000001FFFFF
0000001FFFFF
0000001FFFFF
00FFFFFFFFFF
07FFFFFFFFFF
0FFFFFFFFFFF
1FFFFFFFFFFF
3FFFFFFFFFFF
3FFFFFFFFFFF
7FFFFFFFFFFE
7FFFFFFFFFFE
7FFFFFFFFFFE
FFFFFFFFFFFE
FFFFFFFFFFFC
FFFFFFFFFFFC
FFFFFFFFFFF8
7FFFFFFFFFF0
7FFFFFFFFFE0
7FFFFFFFFFC0
3FFFFFFFFF80
1FFFFFFFFF00
0FFFFFFFFE00
07FFFFFFF800
01FFFFFF8000
ENDCHAR
STARTCHAR 005E
ENCODING 94
SWIDTH 461 0
DWIDTH 83 0
BBX 74 47 4 80
BITMAP
000000003F8000000000
00000000FFE000000000
00000001FFF000000000
00000003FFF800000000
00000007FFFC00000000
0000000FFFFE00000000
0000000FFFFE00000000
0000001FFFFF00000000
0000007FFFFFC0000000
000003FFFFFFF0000000
00000FFFFFFFFC000000
00003FFFFFFFFF000000
00007FFFFFFFFFC00000
0001FFFFFFFFFFF00000
0007FFFFFFFFFFF80000
000FFFFFFFFFFFFE0000
001FFFFFFFFFFFFF0000
007FFFFFFFFFFFFF8000
00FFFFFFFFFFFFFFE000
01FFFFFFFFFFFFFFF000
03FFFFFFFFFFFFFFF000
07FFFFFFFFFFFFFFF800
07FFFFFFFFFFFFFFFC00
0FFFFFFFFFFFFFFFFE00
1FFFFFFFFFFFFFFFFE00
1FFFFFFFFBFFFFFFFF00
1FFFFFFFE0FFFFFFFF00
3FFFFFFF803FFFFFFF80
3FFFFFFE000FFFFFFF80
7FFFFFF80003FFFFFF80
7FFFFFE00000FFFFFFC0
7FFFFF8000003FFFFFC0
7FFFFE0000001FFFFFC0
7FFFFC00000007FFFFC0
7FFFFC00000007FFFFC0
7FFFF800000003FFFFC0
FFFFF800000003FFFFC0
7FFFF800000003FFFFC0
7FFFF800000003FFFFC0
7FFFF800000003FFFFC0
7FFFF800000003FFFFC0
3FFFF000000001FFFF80
3FFFE000000000FFFF80
1FFFE000000000FFFF00
0FFFC0000000007FFE00
07FF00000000001FFC00
00FC000000000007E000
ENDCHAR
STARTCHAR 005F
ENCODING 95
SWIDTH 461 0
DWIDTH 83 0
BBX 74 21 4 -27
BITMAP
01FFFFFFFFFFFFFFE000
07FFFFFFFFFFFFFFF800
0FFFFFFFFFFFFFFFFC00
1FFFFFFFFFFFFFFFFE00
3FFFFFFFFFFFFFFFFF00
3FFFFFFFFFFFFFFFFF80
7FFFFFFFFFFFFFFFFF80
7FFFFFFFFFFFFFFFFFC0
7FFFFFFFFFFFFFFFFFC0
7FFFFFFFFFFFFFFFFFC0
FFFFFFFFFFFFFFFFFFC0
7FFFFFFFFFFFFFFFFFC0
7FFFFFFFFFFFFFFFFFC0
7FFFFFFFFFFFFFFFFFC0
7FFFFFFFFFFFFFFFFF80
3FFFFFFFFFFFFFFFFF80
3FFFFFFFFFFFFFFFFF00
1FFFFFFFFFFFFFFFFF00
0FFFFFFFFFFFFFFFFE00
07FFFFFFFFFFFFFFF800
00FFFFFFFFFFFFFFE000
ENDCHAR
STARTCHAR 0060
ENCODING 96
SWIDTH 166 0
DWIDTH 30 0
BBX 21 47 4 80
BITMAP
01FC00
07FF00
0FFF80
1FFFC0
3FFFE0
7FFFF0
7FFFF0
FFFFF8
FFFFF8
FFFFF8
FFFFF8
FFFFF8
FFFFF8
FFFFF8
FFFFF8
FFFFF8
FFFFF8
FFFFF8
FFFFF8
FFFFF8
FFFFF8
FFFFF8
FFFFF8
FFFFF8
FFFFF8
FFFFF8
FFFFF8
FFFFF8
FFFFF8
FFFFF8
FFFFF8
FFFFF8
FFFFF8
FFFFF8
FFFFF8
FFFFF8
FFFFF8
FFFFF8
FFFFF8
FFFFF8
7FFFF0
7FFFF0
3FFFE0
1FFFC0
0FFF80
07FF00
01FC00
ENDCHAR
STARTCHAR 0061
ENCODING 97
SWIDTH 461 0
DWIDTH 83 0
BBX 74 74 4 0
BITMAP
000000003FFFF0000000
00000000FFFFFF000000
00000001FFFFFFE00000
00000003FFFFFFF80000
00000007FFFFFFFC0000
0000000FFFFFFFFF0000
0000000FFFFFFFFF8000
0000000FFFFFFFFFC000
0000001FFFFFFFFFE000
0000001FFFFFFFFFF000
0000001FFFFFFFFFF800
0000001FFFFFFFFFF800
0000001FFFFFFFFFFC00
0000001FFFFFFFFFFE00
0000000FFFFFFFFFFE00
0000000FFFFFFFFFFF00
00000007FFFFFFFFFF00
00000003FFFFFFFFFF00
00000001FFFFFFFFFF80
00000000FFFFFFFFFF80
000000003FFFFFFFFF80
0000000000003FFFFFC0
0000000000001FFFFFC0
0000000000000FFFFFC0
00000000000007FFFFC0
00000000000007FFFFC0
00000000000007FFFFC0
0001FFFFFFFFFFFFFFC0
000FFFFFFFFFFFFFFFC0
003FFFFFFFFFFFFFFFC0
00FFFFFFFFFFFFFFFFC0
01FFFFFFFFFFFFFFFFC0
03FFFFFFFFFFFFFFFFC0
07FFFFFFFFFFFFFFFFC0
0FFFFFFFFFFFFFFFFF80
0FFFFFFFFFFFFFFFFF80
1FFFFFFFFFFFFFFFFF80
1FFFFFFFFFFFFFFFFF00
3FFFFFFFFFFFFFFFFF80
3FFFFFFFFFFFFFFFFF80
7FFFFFFFFFFFFFFFFFC0
7FFFFFFFFFFFFFFFFFC0
7FFFFFFFFFFFFFFFFFC0
7FFFFFFFFFFFFFFFFFC0
7FFFFFFFFFFFFFFFFFC0
FFFFFFFFFFFFFFFFFFC0
FFFFFFFFFFFFFFFFFFC0
7FFFFFFFFFFFFFFFFFC0
7FFFF800000003FFFFC0
7FFFFC00000003FFFFC0
7FFFFC00000003FFFFC0
7FFFFE00000003FFFFC0
7FFFFF80000003FFFFC0
7FFFFFFFFFFFFFFFFFC0
3FFFFFFFFFFFFFFFFFC0
3FFFFFFFFFFFFFFFFFC0
3FFFFFFFFFFFFFFFFFC0
1FFFFFFFFFFFFFFFFFC0
1FFFFFFFFFFFFFFFFFC0
0FFFFFFFFFFFFFFFFFC0
0FFFFFFFFFFFFFFFFFC0
07FFFFFFFFFFFFFFFF80
07FFFFFFFFFFFFFFFF80
03FFFFFFFFFFFFFFFF00
01FFFFFFFFFFFFFFFF00
00FFFFFFFFFFFFFFFE00
007FFFFFFFFFFFFFFE00
003FFFFFFFFFFFFFFC00
001FFFFFFFFFFFFFF800
000FFFFFFFFFFFFFF000
0003FFFFFFFFFFFFC000
0000FFFFFFFFFFFF8000
00003FFFFFFFFFFE0000
000001FFFFFFFFF00000
ENDCHAR
STARTCHAR 0062
ENCODING 98
SWIDTH 461 0
DWIDTH 83 0
BBX 75 127 4 0
BITMAP
01FC0000000000000000
07FF0000000000000000
0FFF8000000000000000
1FFFC000000000000000
3FFFE000000000000000
7FFFF000000000000000
7FFFF000000000000000
FFFFF800000000000000
FFFFF800000000000000
FFFFF800000000000000
FFFFF800000000000000
FFFFF800000000000000
FFFFF800000000000000
FFFFF800000000000000
FFFFF800000000000000
FFFFF800000000000000
FFFFF800000000000000
FFFFF800000000000000
FFFFF800000000000000
FFFFF800000000000000
FFFFF800000000000000
FFFFF800000000000000
FFFFF800000000000000
FFFFF800000000000000
FFFFF800000000000000
FFFFF800000000000000
FFFFF800000000000000
FFFFF800000000000000
FFFFF800000000000000
FFFFF800000000000000
FFFFF800000000000000
FFFFF800000000000000
FFFFF800000000000000
FFFFF800000000000000
FFFFF800000000000000
FFFFF800000000000000
FFFFF800000000000000
FFFFF800000000000000
FFFFF800000000000000
FFFFF800000000000000
FFFFF800000000000000
FFFFF800000000000000
FFFFF800000000000000
FFFFF800000000000000
FFFFF800000000000000
FFFFF800000000000000
FFFFF800000000000000
FFFFF800000000000000
FFFFF800000000000000
FFFFF800000000000000
FFFFF800000000000000
FFFFF800000000000000
FFFFF800000000000000
FFFFFFFFFFF000000000
FFFFFFFFFFFF80000000
FFFFFFFFFFFFF0000000
FFFFFFFFFFFFFC000000
FFFFFFFFFFFFFF000000
FFFFFFFFFFFFFFC00000
7FFFFFFFFFFFFFF00000
7FFFFFFFFFFFFFF80000
7FFFFFFFFFFFFFFC0000
3FFFFFFFFFFFFFFE0000
3FFFFFFFFFFFFFFF8000
3FFFFFFFFFFFFFFFC000
7FFFFFFFFFFFFFFFC000
7FFFFFFFFFFFFFFFE000
7FFFFFFFFFFFFFFFF000
FFFFFFFFFFFFFFFFF800
FFFFFFFFFFFFFFFFF800
FFFFFFFFFFFFFFFFFC00
FFFFFFFFFFFFFFFFFE00
FFFFFFFFFFFFFFFFFE00
FFFFFFFFFFFFFFFFFF00
FFFFF800003FFFFFFF00
FFFFF8000007FFFFFF00
FFFFF8000001FFFFFF80
FFFFF80000007FFFFF80
FFFFF80000003FFFFF80
FFFFF80000001FFFFFC0
FFFFF80000001FFFFFC0
FFFFF80000000FFFFFC0
FFFFF800000007FFFFC0
FFFFF800000007FFFFE0
FFFFF800000007FFFFE0
FFFFF800000007FFFFE0
FFFFF800000003FFFFE0
FFFFF800000003FFFFE0
FFFFF800000003FFFFE0
FFFFF800000003FFFFE0
FFFFF800000003FFFFE0
FFFFF800000003FFFFE0
FFFFF800000003FFFFE0
FFFFF800000003FFFFE0
FFFFF800000003FFFFE0
FFFFF800000007FFFFE0
FFFFF800000007FFFFE0
FFFFF800000007FFFFC0
FFFFF80000000FFFFFC0
FFFFF80000000FFFFFC0
FFFFF80000001FFFFFC0
FFFFF80000003FFFFFC0
FFFFF80000007FFFFF80
FFFFF8000001FFFFFF80
FFFFF8000007FFFFFF80
FFFFF800003FFFFFFF00
FFFFFFFFFFFFFFFFFF00
FFFFFFFFFFFFFFFFFE00
FFFFFFFFFFFFFFFFFE00
FFFFFFFFFFFFFFFFFC00
FFFFFFFFFFFFFFFFFC00
FFFFFFFFFFFFFFFFF800
FFFFFFFFFFFFFFFFF000
7FFFFFFFFFFFFFFFE000
7FFFFFFFFFFFFFFFC000
7FFFFFFFFFFFFFFFC000
3FFFFFFFFFFFFFFF8000
3FFFFFFFFFFFFFFE0000
1FFFFFFFFFFFFFFC0000
0FFFFFFFFFFFFFF80000
07FFFFFFFFFFFFF00000
07FFFFFFFFFFFFC00000
01FFFFFFFFFFFF000000
00FFFFFFFFFFFC000000
003FFFFFFFFFF0000000
000FFFFFFFFF80000000
0001FFFFFFF000000000
ENDCHAR
STARTCHAR 0063
ENCODING 99
SWIDTH 461 0
DWIDTH 83 0
BBX 74 74 4 0
BITMAP
00000001FFFFFFFFE000
0000003FFFFFFFFFF800
000001FFFFFFFFFFFE00
000007FFFFFFFFFFFF00
00001FFFFFFFFFFFFF00
00007FFFFFFFFFFFFF80
0001FFFFFFFFFFFFFF80
0003FFFFFFFFFFFFFFC0
0007FFFFFFFFFFFFFFC0
000FFFFFFFFFFFFFFFC0
003FFFFFFFFFFFFFFFC0
007FFFFFFFFFFFFFFFC0
00FFFFFFFFFFFFFFFFC0
00FFFFFFFFFFFFFFFFC0
01FFFFFFFFFFFFFFFF80
03FFFFFFFFFFFFFFFF80
07FFFFFFFFFFFFFFFF00
07FFFFFFFFFFFFFFFF00
0FFFFFFFFFFFFFFFFE00
0FFFFFFFFFFFFFFFF800
1FFFFFFFFFFFFFFFE000
1FFFFFFF800000000000
3FFFFFFC000000000000
3FFFFFF0000000000000
3FFFFFC0000000000000
7FFFFF80000000000000
7FFFFF00000000000000
7FFFFF00000000000000
7FFFFE00000000000000
7FFFFC00000000000000
FFFFFC00000000000000
FFFFFC00000000000000
FFFFF800000000000000
FFFFF800000000000000
FFFFF800000000000000
FFFFF800000000000000
FFFFF800000000000000
FFFFF800000000000000
FFFFF800000000000000
FFFFF800000000000000
FFFFF800000000000000
FFFFF800000000000000
FFFFFC00000000000000
FFFFFC00000000000000
7FFFFC00000000000000
7FFFFE00000000000000
7FFFFE00000000000000
7FFFFF00000000000000
7FFFFF80000000000000
3FFFFFC0000000000000
3FFFFFF0000000000000
3FFFFFFC000000000000
1FFFFFFF800000000000
1FFFFFFFFFFFFFFFE000
0FFFFFFFFFFFFFFFF800
0FFFFFFFFFFFFFFFFE00
07FFFFFFFFFFFFFFFF00
07FFFFFFFFFFFFFFFF00
03FFFFFFFFFFFFFFFF80
01FFFFFFFFFFFFFFFF80
01FFFFFFFFFFFFFFFFC0
00FFFFFFFFFFFFFFFFC0
007FFFFFFFFFFFFFFFC0
003FFFFFFFFFFFFFFFC0
001FFFFFFFFFFFFFFFC0
0007FFFFFFFFFFFFFFC0
0003FFFFFFFFFFFFFFC0
0001FFFFFFFFFFFFFF80
00007FFFFFFFFFFFFF80
00001FFFFFFFFFFFFF00
000007FFFFFFFFFFFF00
000001FFFFFFFFFFFE00
0000003FFFFFFFFFF800
00000001FFFFFFFFE000
ENDCHAR
STARTCHAR 0064
ENCODING 100
SWIDTH 461 0
DWIDTH 83 0
BBX 75 127 4 0
BITMAP
0000000000000007F000
000000000000001FFC00
000000000000003FFE00
000000000000007FFF00
00000000000000FFFF80
00000000000001FFFFC0
00000000000001FFFFC0
00000000000003FFFFE0
00000000000003FFFFE0
00000000000003FFFFE0
00000000000003FFFFE0
00000000000003FFFFE0
00000000000003FFFFE0
00000000000003FFFFE0
00000000000003FFFFE0
00000000000003FFFFE0
00000000000003FFFFE0
00000000000003FFFFE0
00000000000003FFFFE0
00000000000003FFFFE0
00000000000003FFFFE0
00000000000003FFFFE0
00000000000003FFFFE0
00000000000003FFFFE0
00000000000003FFFFE0
00000000000003FFFFE0
00000000000003FFFFE0
00000000000003FFFFE0
00000000000003FFFFE0
00000000000003FFFFE0
00000000000003FFFFE0
00000000000003FFFFE0
00000000000003FFFFE0
00000000000003FFFFE0
00000000000003FFFFE0
00000000000003FFFFE0
00000000000003FFFFE0
00000000000003FFFFE0
00000000000003FFFFE0
00000000000003FFFFE0
00000000000003FFFFE0
00000000000003FFFFE0
00000000000003FFFFE0
00000000000003FFFFE0
00000000000003FFFFE0
00000000000003FFFFE0
00000000000003FFFFE0
00000000000003FFFFE0
00000000000003FFFFE0
00000000000003FFFFE0
00000000000003FFFFE0
00000000000003FFFFE0
00000000000003FFFFE0
00000001FFFFFFFFFFE0
0000003FFFFFFFFFFFE0
000001FFFFFFFFFFFFE0
000007FFFFFFFFFFFFE0
00001FFFFFFFFFFFFFE0
00007FFFFFFFFFFFFFE0
0001FFFFFFFFFFFFFFC0
0003FFFFFFFFFFFFFFC0
0007FFFFFFFFFFFFFFC0
000FFFFFFFFFFFFFFF80
003FFFFFFFFFFFFFFF80
007FFFFFFFFFFFFFFF80
00FFFFFFFFFFFFFFFFC0
00FFFFFFFFFFFFFFFFC0
01FFFFFFFFFFFFFFFFC0
03FFFFFFFFFFFFFFFFE0
07FFFFFFFFFFFFFFFFE0
07FFFFFFFFFFFFFFFFE0
0FFFFFFFFFFFFFFFFFE0
0FFFFFFFFFFFFFFFFFE0
1FFFFFFFFFFFFFFFFFE0
1FFFFFFF800003FFFFE0
3FFFFFFC000003FFFFE0
3FFFFFF0000003FFFFE0
3FFFFFC0000003FFFFE0
7FFFFF80000003FFFFE0
7FFFFF00000003FFFFE0
7FFFFF00000003FFFFE0
7FFFFE00000003FFFFE0
7FFFFC00000003FFFFE0
FFFFFC00000003FFFFE0
FFFFFC00000003FFFFE0
FFFFF800000003FFFFE0
FFFFF800000003FFFFE0
FFFFF800000003FFFFE0
FFFFF800000003FFFFE0
FFFFF800000003FFFFE0
FFFFF800000003FFFFE0
FFFFF800000003FFFFE0
FFFFF800000003FFFFE0
FFFFF800000003FFFFE0
FFFFF800000003FFFFE0
FFFFFC00000003FFFFE0
FFFFFC00000003FFFFE0
7FFFFC00000003FFFFE0
7FFFFE00000003FFFFE0
7FFFFF00000003FFFFE0
7FFFFF00000003FFFFE0
7FFFFF80000003FFFFE0
3FFFFFC0000003FFFFE0
3FFFFFF0000003FFFFE0
3FFFFFFC000003FFFFE0
1FFFFFFF800003FFFFE0
1FFFFFFFFFFFFFFFFFE0
0FFFFFFFFFFFFFFFFFE0
0FFFFFFFFFFFFFFFFFE0
07FFFFFFFFFFFFFFFFE0
07FFFFFFFFFFFFFFFFE0
03FFFFFFFFFFFFFFFFE0
01FFFFFFFFFFFFFFFFE0
01FFFFFFFFFFFFFFFFC0
00FFFFFFFFFFFFFFFFC0
007FFFFFFFFFFFFFFFC0
003FFFFFFFFFFFFFFF80
001FFFFFFFFFFFFFFF80
0007FFFFFFFFFFFFFF00
0003FFFFFFFFFFFFFE00
0001FFFFFFFFFFFFFC00
00007FFFFFFFFFFFF800
00001FFFFFFFFFFFF000
000007FFFFFFFFFFE000
000001FFFFFFFFFFC000
0000003FFFFFFFFE0000
00000001FFFFFFF00000
ENDCHAR
STARTCHAR 0065
ENCODING 101
SWIDTH 461 0
DWIDTH 83 0
BBX 74 74 4 0
BITMAP
000001FFFFFFF0000000
00001FFFFFFFFF000000
0000FFFFFFFFFFC00000
0003FFFFFFFFFFF00000
0007FFFFFFFFFFFC0000
001FFFFFFFFFFFFE0000
003FFFFFFFFFFFFF8000
007FFFFFFFFFFFFFC000
00FFFFFFFFFFFFFFE000
01FFFFFFFFFFFFFFF000
03FFFFFFFFFFFFFFF800
03FFFFFFFFFFFFFFF800
07FFFFFFFFFFFFFFFC00
0FFFFFFFFFFFFFFFFE00
0FFFFFFFFFFFFFFFFE00
1FFFFFFFFFFFFFFFFF00
1FFFFFFFFFFFFFFFFF00
3FFFFFFFFFFFFFFFFF80
3FFFFFFFFFFFFFFFFF80
3FFFFFFFFFFFFFFFFF80
7FFFFFFFFFFFFFFFFF80
7FFFFF8000007FFFFFC0
7FFFFE0000000FFFFFC0
7FFFFE00000007FFFFC0
7FFFFC00000007FFFFC0
7FFFFC00000007FFFFC0
7FFFF800000003FFFFC0
FFFFFFFFFFFFFFFFFFC0
FFFFFFFFFFFFFFFFFFC0
7FFFFFFFFFFFFFFFFFC0
7FFFFFFFFFFFFFFFFFC0
7FFFFFFFFFFFFFFFFFC0
7FFFFFFFFFFFFFFFFFC0
7FFFFFFFFFFFFFFFFFC0
3FFFFFFFFFFFFFFFFF80
3FFFFFFFFFFFFFFFFF80
3FFFFFFFFFFFFFFFFF80
3FFFFFFFFFFFFFFFFF00
3FFFFFFFFFFFFFFFFF00
3FFFFFFFFFFFFFFFFE00
7FFFFFFFFFFFFFFFFC00
7FFFFFFFFFFFFFFFFC00
7FFFFFFFFFFFFFFFF800
7FFFFFFFFFFFFFFFF000
7FFFFFFFFFFFFFFFC000
FFFFFFFFFFFFFFFF8000
FFFFFFFFFFFFFFFE0000
7FFFFFFFFFFFFFF00000
7FFFF800000000000000
7FFFFC00000000000000
7FFFFC00000000000000
7FFFFE00000000000000
7FFFFF80000000000000
7FFFFFFFFF8000000000
3FFFFFFFFFE000000000
3FFFFFFFFFF000000000
3FFFFFFFFFF800000000
1FFFFFFFFFFC00000000
1FFFFFFFFFFE00000000
0FFFFFFFFFFE00000000
0FFFFFFFFFFE00000000
07FFFFFFFFFF00000000
07FFFFFFFFFF00000000
03FFFFFFFFFF00000000
01FFFFFFFFFF00000000
00FFFFFFFFFF00000000
007FFFFFFFFE00000000
003FFFFFFFFE00000000
001FFFFFFFFE00000000
000FFFFFFFFC00000000
0003FFFFFFF800000000
0000FFFFFFF000000000
00003FFFFFE000000000
000001FFFF8000000000
ENDCHAR
STARTCHAR 0066
ENCODING 102
SWIDTH 461 0
DWIDTH 83 0
BBX 74 127 4 0
BITMAP
00000003FFFFFFFFE000
0000003FFFFFFFFFF800
000001FFFFFFFFFFFE00
00000FFFFFFFFFFFFF00
00003FFFFFFFFFFFFF00
00007FFFFFFFFFFFFF80
0001FFFFFFFFFFFFFF80
0003FFFFFFFFFFFFFFC0
0007FFFFFFFFFFFFFFC0
000FFFFFFFFFFFFFFFC0
001FFFFFFFFFFFFFFFC0
003FFFFFFFFFFFFFFFC0
007FFFFFFFFFFFFFFFC0
00FFFFFFFFFFFFFFFFC0
01FFFFFFFFFFFFFFFF80
01FFFFFFFFFFFFFFFF80
03FFFFFFFFFFFFFFFF00
07FFFFFFFFFFFFFFFF00
07FFFFFFFFFFFFFFFE00
0FFFFFFFFFFFFFFFF800
0FFFFFFFFFFFFFFFE000
1FFFFFFF000000000000
1FFFFFF8000000000000
3FFFFFF0000000000000
3FFFFFC0000000000000
3FFFFF80000000000000
7FFFFF00000000000000
7FFFFF00000000000000
7FFFFE00000000000000
7FFFFE00000000000000
FFFFFC00000000000000
FFFFFC00000000000000
FFFFF800000000000000
FFFFF800000000000000
FFFFF800000000000000
FFFFF800000000000000
FFFFF800000000000000
FFFFF800000000000000
FFFFF800000000000000
FFFFF800000000000000
FFFFF800000000000000
FFFFF800000000000000
FFFFF800000000000000
FFFFF800000000000000
FFFFF800000000000000
FFFFF800000000000000
FFFFF800000000000000
FFFFF800000000000000
FFFFF800000000000000
FFFFF800000000000000
FFFFF800000000000000
FFFFF800000000000000
FFFFF800000000000000
FFFFFFFFFF0000000000
FFFFFFFFFFE000000000
FFFFFFFFFFF000000000
FFFFFFFFFFF800000000
FFFFFFFFFFFC00000000
FFFFFFFFFFFC00000000
7FFFFFFFFFFE00000000
7FFFFFFFFFFE00000000
7FFFFFFFFFFE00000000
3FFFFFFFFFFF00000000
3FFFFFFFFFFF00000000
3FFFFFFFFFFF00000000
7FFFFFFFFFFE00000000
7FFFFFFFFFFE00000000
7FFFFFFFFFFE00000000
FFFFFFFFFFFC00000000
FFFFFFFFFFFC00000000
FFFFFFFFFFF800000000
FFFFFFFFFFF000000000
FFFFFFFFFFE000000000
FFFFFFFFFF0000000000
FFFFF800000000000000
FFFFF800000000000000
FFFFF800000000000000
FFFFF800000000000000
FFFFF800000000000000
FFFFF800000000000000
FFFFF800000000000000
FFFFF800000000000000
FFFFF800000000000000
FFFFF800000000000000
FFFFF800000000000000
FFFFF800000000000000
FFFFF800000000000000
FFFFF800000000000000
FFFFF800000000000000
FFFFF800000000000000
FFFFF800000000000000
FFFFF800000000000000
FFFFF800000000000000
FFFFF800000000000000
FFFFF800000000000000
FFFFF800000000000000
FFFFF800000000000000
FFFFF800000000000000
FFFFF800000000000000
FFFFF800000000000000
FFFFF800000000000000
FFFFF800000000000000
FFFFF800000000000000
FFFFF800000000000000
FFFFF800000000000000
FFFFF800000000000000
FFFFF800000000000000
FFFFF800000000000000
FFFFF800000000000000
FFFFF800000000000000
FFFFF800000000000000
FFFFF800000000000000
FFFFF800000000000000
FFFFF800000000000000
FFFFF800000000000000
FFFFF800000000000000
FFFFF800000000000000
FFFFF800000000000000
FFFFF800000000000000
FFFFF800000000000000
7FFFF000000000000000
7FFFF000000000000000
3FFFE000000000000000
3FFFE000000000000000
1FFFC000000000000000
07FF0000000000000000
01FC0000000000000000
ENDCHAR
STARTCHAR 0067
ENCODING 103
SWIDTH 461 0
DWIDTH 83 0
BBX 75 101 4 -27
BITMAP
00000001FFFFFFF00000
0000003FFFFFFFFF0000
000001FFFFFFFFFFC000
000007FFFFFFFFFFE000
00001FFFFFFFFFFFF000
00007FFFFFFFFFFFF800
0000FFFFFFFFFFFFFC00
0003FFFFFFFFFFFFFE00
0007FFFFFFFFFFFFFF00
000FFFFFFFFFFFFFFF00
003FFFFFFFFFFFFFFF80
007FFFFFFFFFFFFFFF80
007FFFFFFFFFFFFFFFC0
00FFFFFFFFFFFFFFFFC0
01FFFFFFFFFFFFFFFFC0
03FFFFFFFFFFFFFFFFE0
07FFFFFFFFFFFFFFFFE0
07FFFFFFFFFFFFFFFFE0
0FFFFFFFFFFFFFFFFFE0
0FFFFFFFFFFFFFFFFFE0
1FFFFFFFFFFFFFFFFFE0
1FFFFFFF800003FFFFE0
3FFFFFFC000003FFFFE0
3FFFFFF0000003FFFFE0
3FFFFFC0000003FFFFE0
7FFFFF80000003FFFFE0
7FFFFF00000003FFFFE0
7FFFFF00000003FFFFE0
7FFFFE00000003FFFFE0
7FFFFC00000003FFFFE0
FFFFFC00000003FFFFE0
FFFFFC00000003FFFFE0
FFFFF800000003FFFFE0
FFFFF800000003FFFFE0
FFFFF800000003FFFFE0
FFFFF800000003FFFFE0
FFFFF800000003FFFFE0
FFFFF800000003FFFFE0
FFFFF800000003FFFFE0
FFFFF800000003FFFFE0
FFFFF800000003FFFFE0
FFFFF800000003FFFFE0
FFFFFC00000003FFFFE0
FFFFFC00000003FFFFE0
7FFFFC00000003FFFFE0
7FFFFE00000003FFFFE0
7FFFFF00000003FFFFE0
7FFFFF00000003FFFFE0
7FFFFF80000003FFFFE0
3FFFFFC0000003FFFFE0
3FFFFFF0000003FFFFE0
3FFFFFFC000003FFFFE0
1FFFFFFF800003FFFFE0
1FFFFFFFFFFFFFFFFFE0
0FFFFFFFFFFFFFFFFFE0
0FFFFFFFFFFFFFFFFFE0
07FFFFFFFFFFFFFFFFE0
07FFFFFFFFFFFFFFFFE0
03FFFFFFFFFFFFFFFFC0
01FFFFFFFFFFFFFFFFC0
01FFFFFFFFFFFFFFFFC0
00FFFFFFFFFFFFFFFF80
007FFFFFFFFFFFFFFF80
003FFFFFFFFFFFFFFF80
001FFFFFFFFFFFFFFF80
0007FFFFFFFFFFFFFF80
0003FFFFFFFFFFFFFFC0
0001FFFFFFFFFFFFFFC0
00007FFFFFFFFFFFFFC0
00001FFFFFFFFFFFFFC0
00000FFFFFFFFFFFFFC0
000001FFFFFFFFFFFFC0
0000003FFFFFFFFFFFE0
00000001FFFFFFFFFFC0
00000000000007FFFFC0
00000000000007FFFFC0
00000000000007FFFFC0
0000000000000FFFFFC0
0000000000001FFFFFC0
0000000000003FFFFFC0
000000003FFFFFFFFFC0
00000000FFFFFFFFFF80
00000001FFFFFFFFFF80
00000003FFFFFFFFFF80
00000007FFFFFFFFFF00
0000000FFFFFFFFFFF00
0000000FFFFFFFFFFE00
0000001FFFFFFFFFFE00
0000001FFFFFFFFFFC00
0000001FFFFFFFFFF800
0000001FFFFFFFFFF800
0000001FFFFFFFFFF000
0000001FFFFFFFFFE000
0000001FFFFFFFFFC000
0000000FFFFFFFFF8000
0000000FFFFFFFFF0000
00000007FFFFFFFE0000
00000003FFFFFFF80000
00000001FFFFFFE00000
00000000FFFFFF000000
000000003FFFF0000000
ENDCHAR
STARTCHAR 0068
ENCODING 104
SWIDTH 461 0
DWIDTH 83 0
BBX 75 127 4 0
BITMAP
01FC0000000000000000
07FF0000000000000000
0FFF8000000000000000
1FFFC000000000000000
3FFFE000000000000000
7FFFF000000000000000
7FFFF000000000000000
FFFFF800000000000000
FFFFF800000000000000
FFFFF800000000000000
FFFFF800000000000000
FFFFF800000000000000
FFFFF800000000000000
FFFFF800000000000000
FFFFF800000000000000
FFFFF800000000000000
FFFFF800000000000000
FFFFF800000000000000
FFFFF800000000000000
FFFFF800000000000000
FFFFF800000000000000
FFFFF800000000000000
FFFFF800000000000000
FFFFF800000000000000
FFFFF800000000000000
FFFFF800000000000000
FFFFF800000000000000
FFFFF800000000000000
FFFFF800000000000000
FFFFF800000000000000
FFFFF800000000000000
FFFFF800000000000000
FFFFF800000000000000
FFFFF800000000000000
FFFFF800000000000000
FFFFF800000000000000
FFFFF800000000000000
FFFFF800000000000000
FFFFF800000000000000
FFFFF800000000000000
FFFFF800000000000000
FFFFF800000000000000
FFFFF800000000000000
FFFFF800000000000000
FFFFF800000000000000
FFFFF800000000000000
FFFFF800000000000000
FFFFF800000000000000
FFFFF800000000000000
FFFFF800000000000000
FFFFF800000000000000
FFFFF800000000000000
FFFFF800000000000000
FFFFFFFFFFF000000000
FFFFFFFFFFFF80000000
FFFFFFFFFFFFF0000000
FFFFFFFFFFFFFC000000
FFFFFFFFFFFFFF000000
FFFFFFFFFFFFFFC00000
7FFFFFFFFFFFFFF00000
7FFFFFFFFFFFFFF80000
7FFFFFFFFFFFFFFC0000
3FFFFFFFFFFFFFFE0000
3FFFFFFFFFFFFFFF8000
3FFFFFFFFFFFFFFFC000
7FFFFFFFFFFFFFFFC000
7FFFFFFFFFFFFFFFE000
7FFFFFFFFFFFFFFFF000
FFFFFFFFFFFFFFFFF800
FFFFFFFFFFFFFFFFF800
FFFFFFFFFFFFFFFFFC00
FFFFFFFFFFFFFFFFFE00
FFFFFFFFFFFFFFFFFE00
FFFFFFFFFFFFFFFFFF00
FFFFF800003FFFFFFF00
FFFFF8000007FFFFFF00
FFFFF8000001FFFFFF80
FFFFF8000000FFFFFF80
FFFFF80000003FFFFF80
FFFFF80000001FFFFFC0
FFFFF80000001FFFFFC0
FFFFF80000000FFFFFC0
FFFFF80000000FFFFFC0
FFFFF800000007FFFFE0
FFFFF800000007FFFFE0
FFFFF800000007FFFFE0
FFFFF800000003FFFFE0
FFFFF800000003FFFFE0
FFFFF800000003FFFFE0
FFFFF800000003FFFFE0
FFFFF800000003FFFFE0
FFFFF800000003FFFFE0
FFFFF800000003FFFFE0
FFFFF800000003FFFFE0
FFFFF800000003FFFFE0
FFFFF800000003FFFFE0
FFFFF800000003FFFFE0
FFFFF800000003FFFFE0
FFFFF800000003FFFFE0
FFFFF800000003FFFFE0
FFFFF800000003FFFFE0
FFFFF800000003FFFFE0
FFFFF800000003FFFFE0
FFFFF800000003FFFFE0
FFFFF800000003FFFFE0
FFFFF800000003FFFFE0
FFFFF800000003FFFFE0
FFFFF800000003FFFFE0
FFFFF800000003FFFFE0
FFFFF800000003FFFFE0
FFFFF800000003FFFFE0
FFFFF800000003FFFFE0
FFFFF800000003FFFFE0
FFFFF800000003FFFFE0
FFFFF800000003FFFFE0
FFFFF800000003FFFFE0
FFFFF800000003FFFFE0
FFFFF800000003FFFFE0
FFFFF800000003FFFFE0
FFFFF800000003FFFFE0
7FFFF000000001FFFFC0
7FFFF000000001FFFFC0
3FFFE000000000FFFF80
3FFFE000000000FFFF00
1FFFC0000000007FFE00
07FF00000000001FFC00
01FC000000000007F000
ENDCHAR
STARTCHAR 0069
ENCODING 105
SWIDTH 166 0
DWIDTH 30 0
BBX 21 100 4 0
BITMAP
01FC00
07FF00
0FFF80
1FFFC0
3FFFE0
7FFFF0
7FFFF0
FFFFF8
FFFFF8
FFFFF8
FFFFF8
FFFFF8
FFFFF8
FFFFF8
7FFFF0
7FFFF0
3FFFE0
1FFFC0
0FFF80
07FF00
01FC00
000000
000000
000000
000000
000000
01FC00
07FF00
0FFF80
1FFFC0
3FFFE0
7FFFF0
7FFFF0
FFFFF8
FFFFF8
FFFFF8
FFFFF8
FFFFF8
FFFFF8
FFFFF8
FFFFF8
FFFFF8
FFFFF8
FFFFF8
FFFFF8
FFFFF8
FFFFF8
FFFFF8
FFFFF8
FFFFF8
FFFFF8
FFFFF8
FFFFF8
FFFFF8
FFFFF8
FFFFF8
FFFFF8
FFFFF8
FFFFF8
FFFFF8
FFFFF8
FFFFF8
FFFFF8
FFFFF8
FFFFF8
FFFFF8
FFFFF8
FFFFF8
FFFFF8
FFFFF8
FFFFF8
FFFFF8
FFFFF8
FFFFF8
FFFFF8
FFFFF8
FFFFF8
FFFFF8
FFFFF8
FFFFF8
FFFFF8
FFFFF8
FFFFF8
FFFFF8
FFFFF8
FFFFF8
FFFFF8
FFFFF8
FFFFF8
FFFFF8
FFFFF8
FFFFF8
FFFFF8
7FFFF0
7FFFF0
3FFFE0
3FFFC0
0FFF80
07FF00
01FC00
ENDCHAR
STARTCHAR 006A
ENCODING 106
SWIDTH 311 0
DWIDTH 56 0
BBX 47 127 5 -27
BITMAP
000000007F00
00000001FFC0
00000003FFE0
00000007FFF0
0000000FFFF8
0000001FFFFC
0000001FFFFC
0000003FFFFE
0000003FFFFE
0000003FFFFE
0000003FFFFE
0000003FFFFE
0000003FFFFE
0000003FFFFE
0000001FFFFC
0000001FFFFC
0000000FFFF8
00000007FFF0
00000003FFE0
00000001FFC0
000000007F00
000000000000
000000000000
000000000000
000000000000
000000000000
000000007F00
00000001FFC0
00000003FFE0
00000007FFF0
0000000FFFF8
0000000FFFFC
0000001FFFFC
0000001FFFFC
0000003FFFFE
0000003FFFFE
0000003FFFFE
0000003FFFFE
0000003FFFFE
0000003FFFFE
0000003FFFFE
0000003FFFFE
0000003FFFFE
0000003FFFFE
0000003FFFFE
0000003FFFFE
0000003FFFFE
0000003FFFFE
0000003FFFFE
0000003FFFFE
0000003FFFFE
0000003FFFFE
0000003FFFFE
0000003FFFFE
0000003FFFFE
0000003FFFFE
0000003FFFFE
0000003FFFFE
0000003FFFFE
0000003FFFFE
0000003FFFFE
0000003FFFFE
0000003FFFFE
0000003FFFFE
0000003FFFFE
0000003FFFFE
0000003FFFFE
0000003FFFFE
0000003FFFFE
0000003FFFFE
0000003FFFFE
0000003FFFFE
0000003FFFFE
0000003FFFFE
0000003FFFFE
0000003FFFFE
0000003FFFFE
0000003FFFFE
0000003FFFFE
0000003FFFFE
0000003FFFFE
0000003FFFFE
0000003FFFFE
0000003FFFFE
0000003FFFFE
0000003FFFFE
0000003FFFFE
0000003FFFFE
0000003FFFFE
0000003FFFFE
0000003FFFFE
0000003FFFFE
0000003FFFFE
0000003FFFFE
0000003FFFFC
0000003FFFFC
0000007FFFFC
0000007FFFFC
000000FFFFFC
000000FFFFFC
000001FFFFF8
000003FFFFF8
000007FFFFF8
00000FFFFFF8
00003FFFFFF0
0001FFFFFFF0
01FFFFFFFFE0
07FFFFFFFFE0
0FFFFFFFFFC0
1FFFFFFFFFC0
3FFFFFFFFF80
7FFFFFFFFF80
7FFFFFFFFF00
FFFFFFFFFE00
FFFFFFFFFC00
FFFFFFFFF800
FFFFFFFFF800
FFFFFFFFE000
FFFFFFFFC000
FFFFFFFF8000
7FFFFFFF0000
7FFFFFFC0000
3FFFFFF00000
3FFFFFC00000
1FFFFF000000
07FFF8000000
01FF80000000
ENDCHAR
STARTCHAR 006B
ENCODING 107
SWIDTH 461 0
DWIDTH 83 0
BBX 75 127 4 0
BITMAP
01FC0000000000000000
07FF0000000000000000
0FFF8000000000000000
1FFFC000000000000000
3FFFE000000000000000
7FFFF000000000000000
7FFFF000000000000000
FFFFF800000000000000
FFFFF800000000000000
FFFFF800000000000000
FFFFF800000000000000
FFFFF800000000000000
FFFFF800000000000000
FFFFF800000000000000
FFFFF800000000000000
FFFFF800000000000000
FFFFF800000000000000
FFFFF800000000000000
FFFFF800000000000000
FFFFF800000000000000
FFFFF800000000000000
FFFFF800000000000000
FFFFF800000000000000
FFFFF800000000000000
FFFFF800000000000000
FFFFF800000000000000
FFFFF80000000001C000
FFFFF8000000000FF800
FFFFF8000000003FFE00
FFFFF8000000007FFF00
FFFFF800000000FFFF80
FFFFF800000001FFFFC0
FFFFF800000001FFFFC0
FFFFF800000003FFFFC0
FFFFF800000003FFFFE0
FFFFF800000003FFFFE0
FFFFF800000003FFFFE0
FFFFF800000003FFFFE0
FFFFF800000003FFFFE0
FFFFF800000003FFFFE0
FFFFF800000003FFFFE0
FFFFF800000007FFFFE0
FFFFF800000007FFFFE0
FFFFF800000007FFFFC0
FFFFF80000000FFFFFC0
FFFFF80000000FFFFFC0
FFFFF80000001FFFFFC0
FFFFF80000001FFFFF80
FFFFF80000003FFFFF80
FFFFF80000007FFFFF80
FFFFF8000001FFFFFF80
FFFFF8000007FFFFFF00
FFFFF800003FFFFFFF00
FFFFFFFFFFFFFFFFFE00
FFFFFFFFFFFFFFFFFE00
FFFFFFFFFFFFFFFFFC00
FFFFFFFFFFFFFFFFFC00
FFFFFFFFFFFFFFFFF800
FFFFFFFFFFFFFFFFF000
7FFFFFFFFFFFFFFFF000
7FFFFFFFFFFFFFFFE000
7FFFFFFFFFFFFFFFC000
3FFFFFFFFFFFFFFF8000
3FFFFFFFFFFFFFFF8000
3FFFFFFFFFFFFFFFC000
7FFFFFFFFFFFFFFFE000
7FFFFFFFFFFFFFFFE000
7FFFFFFFFFFFFFFFF000
FFFFFFFFFFFFFFFFF800
FFFFFFFFFFFFFFFFFC00
FFFFFFFFFFFFFFFFFC00
FFFFFFFFFFFFFFFFFE00
FFFFFFFFFFFFFFFFFE00
FFFFFFFFFFFFFFFFFF00
FFFFF800003FFFFFFF00
FFFFF8000007FFFFFF80
FFFFF8000001FFFFFF80
FFFFF8000000FFFFFF80
FFFFF80000003FFFFFC0
FFFFF80000001FFFFFC0
FFFFF80000001FFFFFC0
FFFFF80000000FFFFFC0
FFFFF80000000FFFFFC0
FFFFF800000007FFFFE0
FFFFF800000007FFFFE0
FFFFF800000007FFFFE0
FFFFF800000003FFFFE0
FFFFF800000003FFFFE0
FFFFF800000003FFFFE0
FFFFF800000003FFFFE0
FFFFF800000003FFFFE0
FFFFF800000003FFFFE0
FFFFF800000003FFFFE0
FFFFF800000003FFFFE0
FFFFF800000003FFFFE0
FFFFF800000003FFFFE0
FFFFF800000003FFFFE0
FFFFF800000003FFFFE0
FFFFF800000003FFFFE0
FFFFF800000003FFFFE0
FFFFF800000003FFFFE0
FFFFF800000003FFFFE0
FFFFF800000003FFFFE0
FFFFF800000003FFFFE0
FFFFF800000003FFFFE0
FFFFF800000003FFFFE0
FFFFF800000003FFFFE0
FFFFF800000003FFFFE0
FFFFF800000003FFFFE0
FFFFF800000003FFFFE0
FFFFF800000003FFFFE0
FFFFF800000003FFFFE0
FFFFF800000003FFFFE0
FFFFF800000003FFFFE0
FFFFF800000003FFFFE0
FFFFF800000003FFFFE0
FFFFF800000003FFFFE0
FFFFF800000003FFFFE0
FFFFF800000003FFFFE0
FFFFF800000003FFFFE0
7FFFF000000001FFFFC0
7FFFF000000001FFFFC0
3FFFE000000000FFFF80
3FFFE000000000FFFF00
1FFFC0000000007FFE00
07FF00000000001FFC00
01FC000000000007F000
ENDCHAR
STARTCHAR 006C
ENCODING 108
SWIDTH 166 0
DWIDTH 30 0
BBX 21 127 4 0
BITMAP
01FC00
07FF00
0FFF80
1FFFC0
3FFFE0
7FFFF0
7FFFF0
FFFFF8
FFFFF8
FFFFF8
FFFFF8
FFFFF8
FFFFF8
FFFFF8
FFFFF8
FFFFF8
FFFFF8
FFFFF8
FFFFF8
FFFFF8
FFFFF8
FFFFF8
FFFFF8
FFFFF8
FFFFF8
FFFFF8
FFFFF8
FFFFF8
FFFFF8
FFFFF8
FFFFF8
FFFFF8
FFFFF8
FFFFF8
FFFFF8
FFFFF8
FFFFF8
FFFFF8
FFFFF8
FFFFF8
FFFFF8
FFFFF8
FFFFF8
FFFFF8
FFFFF8
FFFFF8
FFFFF8
FFFFF8
FFFFF8
FFFFF8
FFFFF8
FFFFF8
FFFFF8
FFFFF8
FFFFF8
FFFFF8
FFFFF8
FFFFF8
FFFFF8
FFFFF8
FFFFF8
FFFFF8
FFFFF8
FFFFF8
FFFFF8
FFFFF8
FFFFF8
FFFFF8
FFFFF8
FFFFF8
FFFFF8
FFFFF8
FFFFF8
FFFFF8
FFFFF8
FFFFF8
FFFFF8
FFFFF8
FFFFF8
FFFFF8
FFFFF8
FFFFF8
FFFFF8
FFFFF8
FFFFF8
FFFFF8
FFFFF8
FFFFF8
FFFFF8
FFFFF8
FFFFF8
FFFFF8
FFFFF8
FFFFF8
FFFFF8
FFFFF8
FFFFF8
FFFFF8
FFFFF8
FFFFF8
FFFFF8
FFFFF8
FFFFF8
FFFFF8
FFFFF8
FFFFF8
FFFFF8
FFFFF8
FFFFF8
FFFFF8
FFFFF8
FFFFF8
FFFFF8
FFFFF8
FFFFF8
FFFFF8
FFFFF8
FFFFF8
FFFFF8
FFFFF8
7FFFF0
7FFFF0
3FFFE0
3FFFC0
0FFF80
07FF00
01FC00
ENDCHAR
STARTCHAR 006D
ENCODING 109
SWIDTH 655 0
DWIDTH 118 0
BBX 110 74 4 0
BITMAP
00000003FFFFE01FFFFE00000000
0000003FFFFFFCFFFFFFF0000000
000001FFFFFFFFFFFFFFFE000000
00000FFFFFFFFFFFFFFFFF800000
00003FFFFFFFFFFFFFFFFFE00000
00007FFFFFFFFFFFFFFFFFF80000
0001FFFFFFFFFFFFFFFFFFFE0000
0003FFFFFFFFFFFFFFFFFFFF0000
0007FFFFFFFFFFFFFFFFFFFF8000
000FFFFFFFFFFFFFFFFFFFFFE000
001FFFFFFFFFFFFFFFFFFFFFF000
003FFFFFFFFFFFFFFFFFFFFFF800
007FFFFFFFFFFFFFFFFFFFFFFC00
00FFFFFFFFFFFFFFFFFFFFFFFC00
01FFFFFFFFFFFFFFFFFFFFFFFE00
01FFFFFFFFFFFFFFFFFFFFFFFF00
03FFFFFFFFFFFFFFFFFFFFFFFF80
07FFFFFFFFFFFFFFFFFFFFFFFF80
07FFFFFFFFFFFFFFFFFFFFFFFFC0
0FFFFFFFFFFFFFFFFFFFFFFFFFC0
0FFFFFFFFFFFFFFFFFFFFFFFFFE0
1FFFFFFF8007FFFFC007FFFFFFE0
1FFFFFF80007FFFFC000FFFFFFF0
3FFFFFF00007FFFFC0003FFFFFF0
3FFFFFC00007FFFFC0000FFFFFF0
3FFFFF800007FFFFC00007FFFFF8
7FFFFF000007FFFFC00003FFFFF8
7FFFFF000007FFFFC00003FFFFF8
7FFFFE000007FFFFC00001FFFFF8
7FFFFE000007FFFFC00000FFFFF8
7FFFFC000007FFFFC00000FFFFFC
FFFFFC000007FFFFC00000FFFFFC
FFFFFC000007FFFFC00000FFFFFC
FFFFF8000007FFFFC000007FFFFC
FFFFF8000007FFFFC000007FFFFC
FFFFF8000007FFFFC000007FFFFC
FFFFF8000007FFFFC000007FFFFC
FFFFF8000007FFFFC000007FFFFC
FFFFF8000007FFFFC000007FFFFC
FFFFF8000007FFFFC000007FFFFC
FFFFF8000007FFFFC000007FFFFC
FFFFF8000007FFFFC000007FFFFC
FFFFF8000007FFFFC000007FFFFC
FFFFF8000007FFFFC000007FFFFC
FFFFF8000007FFFFC000007FFFFC
FFFFF8000007FFFFC000007FFFFC
FFFFF8000007FFFFC000007FFFFC
FFFFF8000007FFFFC000007FFFFC
FFFFF8000007FFFFC000007FFFFC
FFFFF8000007FFFFC000007FFFFC
FFFFF8000007FFFFC000007FFFFC
FFFFF8000007FFFFC000007FFFFC
FFFFF8000007FFFFC000007FFFFC
FFFFF8000007FFFFC000007FFFFC
FFFFF8000007FFFFC000007FFFFC
FFFFF8000007FFFFC000007FFFFC
FFFFF8000007FFFFC000007FFFFC
FFFFF8000007FFFFC000007FFFFC
FFFFF8000007FFFFC000007FFFFC
FFFFF8000007FFFFC000007FFFFC
FFFFF8000007FFFFC000007FFFFC
FFFFF8000007FFFFC000007FFFFC
FFFFF8000007FFFFC000007FFFFC
FFFFF8000007FFFFC000007FFFFC
FFFFF8000007FFFFC000007FFFFC
FFFFF8000007FFFFC000007FFFFC
FFFFF8000007FFFFC000007FFFFC
7FFFF0000003FFFF8000003FFFF8
7FFFF0000003FFFF8000003FFFF8
3FFFE0000001FFFF0000001FFFF0
3FFFC0000001FFFE0000001FFFE0
1FFF80000000FFFC0000000FFFC0
07FF000000003FF800000003FF80
01FC000000000FE000000000FE00
ENDCHAR
STARTCHAR 006E
ENCODING 110
SWIDTH 461 0
DWIDTH 83 0
BBX 75 74 4 0
BITMAP
00000001FFF000000000
0000003FFFFF80000000
000001FFFFFFF0000000
00000FFFFFFFFE000000
00003FFFFFFFFF800000
00007FFFFFFFFFC00000
0001FFFFFFFFFFF00000
0003FFFFFFFFFFF80000
0007FFFFFFFFFFFC0000
000FFFFFFFFFFFFE0000
001FFFFFFFFFFFFF8000
003FFFFFFFFFFFFF8000
007FFFFFFFFFFFFFC000
00FFFFFFFFFFFFFFE000
01FFFFFFFFFFFFFFF000
01FFFFFFFFFFFFFFF800
03FFFFFFFFFFFFFFF800
07FFFFFFFFFFFFFFFC00
07FFFFFFFFFFFFFFFC00
0FFFFFFFFFFFFFFFFE00
0FFFFFFFFFFFFFFFFE00
1FFFFFFF803FFFFFFF00
1FFFFFFC0007FFFFFF00
3FFFFFF00001FFFFFF80
3FFFFFC000007FFFFF80
3FFFFF8000003FFFFF80
7FFFFF0000001FFFFFC0
7FFFFF0000001FFFFFC0
7FFFFE0000000FFFFFC0
7FFFFE0000000FFFFFC0
7FFFFC00000007FFFFC0
FFFFFC00000007FFFFE0
FFFFFC00000007FFFFE0
FFFFF800000003FFFFE0
FFFFF800000003FFFFE0
FFFFF800000003FFFFE0
FFFFF800000003FFFFE0
FFFFF800000003FFFFE0
FFFFF800000003FFFFE0
FFFFF800000003FFFFE0
FFFFF800000003FFFFE0
FFFFF800000003FFFFE0
FFFFF800000003FFFFE0
FFFFF800000003FFFFE0
FFFFF800000003FFFFE0
FFFFF800000003FFFFE0
FFFFF800000003FFFFE0
FFFFF800000003FFFFE0
FFFFF800000003FFFFE0
FFFFF800000003FFFFE0
FFFFF800000003FFFFE0
FFFFF800000003FFFFE0
FFFFF800000003FFFFE0
FFFFF800000003FFFFE0
FFFFF800000003FFFFE0
FFFFF800000003FFFFE0
FFFFF800000003FFFFE0
FFFFF800000003FFFFE0
FFFFF800000003FFFFE0
FFFFF800000003FFFFE0
FFFFF800000003FFFFE0
FFFFF800000003FFFFE0
FFFFF800000003FFFFE0
FFFFF800000003FFFFE0
FFFFF800000003FFFFE0
FFFFF800000003FFFFE0
FFFFF800000003FFFFE0
7FFFF000000001FFFFC0
7FFFF000000001FFFFC0
3FFFE000000000FFFF80
3FFFE000000000FFFF00
1FFFC0000000007FFE00
07FF00000000001FFC00
01FC000000000007F000
ENDCHAR
STARTCHAR 006F
ENCODING 111
SWIDTH 461 0
DWIDTH 83 0
BBX 74 74 4 0
BITMAP
00000001FFF000000000
0000003FFFFF80000000
000001FFFFFFF0000000
000007FFFFFFFC000000
00001FFFFFFFFF000000
00007FFFFFFFFFC00000
0000FFFFFFFFFFE00000
0003FFFFFFFFFFF80000
0007FFFFFFFFFFFC0000
000FFFFFFFFFFFFE0000
001FFFFFFFFFFFFF0000
003FFFFFFFFFFFFF8000
007FFFFFFFFFFFFFC000
00FFFFFFFFFFFFFFE000
00FFFFFFFFFFFFFFE000
01FFFFFFFFFFFFFFF000
03FFFFFFFFFFFFFFF800
03FFFFFFFFFFFFFFF800
07FFFFFFFFFFFFFFFC00
07FFFFFFFFFFFFFFFC00
0FFFFFFFFFFFFFFFFE00
0FFFFFFF803FFFFFFE00
1FFFFFFC0007FFFFFF00
1FFFFFF00001FFFFFF00
3FFFFFC000007FFFFF00
3FFFFF8000003FFFFF80
3FFFFF8000001FFFFF80
3FFFFF0000001FFFFF80
7FFFFE0000000FFFFF80
7FFFFE0000000FFFFFC0
7FFFFC00000007FFFFC0
7FFFFC00000007FFFFC0
7FFFFC00000007FFFFC0
7FFFF800000007FFFFC0
7FFFF800000003FFFFC0
7FFFF800000003FFFFC0
FFFFF800000003FFFFC0
FFFFF800000003FFFFC0
FFFFF800000003FFFFC0
7FFFF800000003FFFFC0
7FFFF800000007FFFFC0
7FFFFC00000007FFFFC0
7FFFFC00000007FFFFC0
7FFFFC00000007FFFFC0
7FFFFE0000000FFFFFC0
7FFFFE0000000FFFFF80
3FFFFF0000001FFFFF80
3FFFFF0000003FFFFF80
3FFFFF8000003FFFFF80
3FFFFFC000007FFFFF00
1FFFFFF00001FFFFFF00
1FFFFFF80007FFFFFF00
0FFFFFFF803FFFFFFE00
0FFFFFFFFFFFFFFFFE00
0FFFFFFFFFFFFFFFFC00
07FFFFFFFFFFFFFFFC00
03FFFFFFFFFFFFFFF800
03FFFFFFFFFFFFFFF800
01FFFFFFFFFFFFFFF000
01FFFFFFFFFFFFFFE000
00FFFFFFFFFFFFFFE000
007FFFFFFFFFFFFFC000
003FFFFFFFFFFFFF8000
001FFFFFFFFFFFFF0000
000FFFFFFFFFFFFE0000
0007FFFFFFFFFFFC0000
0003FFFFFFFFFFF80000
0001FFFFFFFFFFE00000
00007FFFFFFFFFC00000
00003FFFFFFFFF000000
00000FFFFFFFFC000000
000001FFFFFFF0000000
0000003FFFFF80000000
00000003FFF000000000
ENDCHAR
STARTCHAR 0070
ENCODING 112
SWIDTH 461 0
DWIDTH 83 0
BBX 75 101 4 -27
BITMAP
0001FFFFFFF000000000
000FFFFFFFFF80000000
003FFFFFFFFFF0000000
00FFFFFFFFFFFC000000
01FFFFFFFFFFFF000000
03FFFFFFFFFFFFC00000
07FFFFFFFFFFFFF00000
0FFFFFFFFFFFFFF80000
1FFFFFFFFFFFFFFC0000
3FFFFFFFFFFFFFFE0000
3FFFFFFFFFFFFFFF8000
7FFFFFFFFFFFFFFFC000
7FFFFFFFFFFFFFFFC000
7FFFFFFFFFFFFFFFE000
7FFFFFFFFFFFFFFFF000
FFFFFFFFFFFFFFFFF800
FFFFFFFFFFFFFFFFF800
FFFFFFFFFFFFFFFFFC00
FFFFFFFFFFFFFFFFFE00
FFFFFFFFFFFFFFFFFE00
FFFFFFFFFFFFFFFFFF00
FFFFF800003FFFFFFF00
FFFFF8000007FFFFFF00
FFFFF8000001FFFFFF80
FFFFF80000007FFFFF80
FFFFF80000003FFFFF80
FFFFF80000001FFFFFC0
FFFFF80000001FFFFFC0
FFFFF80000000FFFFFC0
FFFFF800000007FFFFC0
FFFFF800000007FFFFE0
FFFFF800000007FFFFE0
FFFFF800000007FFFFE0
FFFFF800000003FFFFE0
FFFFF800000003FFFFE0
FFFFF800000003FFFFE0
FFFFF800000003FFFFE0
FFFFF800000003FFFFE0
FFFFF800000003FFFFE0
FFFFF800000003FFFFE0
FFFFF800000003FFFFE0
FFFFF800000003FFFFE0
FFFFF800000007FFFFE0
FFFFF800000007FFFFE0
FFFFF800000007FFFFC0
FFFFF80000000FFFFFC0
FFFFF80000000FFFFFC0
FFFFF80000001FFFFFC0
FFFFF80000003FFFFFC0
FFFFF80000007FFFFF80
FFFFF8000001FFFFFF80
FFFFF8000007FFFFFF80
FFFFF800003FFFFFFF00
FFFFFFFFFFFFFFFFFF00
FFFFFFFFFFFFFFFFFE00
FFFFFFFFFFFFFFFFFE00
FFFFFFFFFFFFFFFFFC00
FFFFFFFFFFFFFFFFFC00
FFFFFFFFFFFFFFFFF800
7FFFFFFFFFFFFFFFF000
7FFFFFFFFFFFFFFFE000
7FFFFFFFFFFFFFFFC000
3FFFFFFFFFFFFFFFC000
3FFFFFFFFFFFFFFF8000
3FFFFFFFFFFFFFFE0000
7FFFFFFFFFFFFFFC0000
7FFFFFFFFFFFFFF80000
7FFFFFFFFFFFFFE00000
FFFFFFFFFFFFFFC00000
FFFFFFFFFFFFFF000000
FFFFFFFFFFFFFC000000
FFFFFFFFFFFFF0000000
FFFFFFFFFFFF80000000
FFFFFFFFFFF000000000
FFFFF800000000000000
FFFFF800000000000000
FFFFF800000000000000
FFFFF800000000000000
FFFFF800000000000000
FFFFF800000000000000
FFFFF800000000000000
FFFFF800000000000000
FFFFF800000000000000
FFFFF800000000000000
FFFFF800000000000000
FFFFF800000000000000
FFFFF800000000000000
FFFFF800000000000000
FFFFF800000000000000
FFFFF800000000000000
FFFFF800000000000000
FFFFF800000000000000
FFFFF800000000000000
FFFFF800000000000000
7FFFF000000000000000
7FFFF000000000000000
3FFFE000000000000000
1FFFC000000000000000
0FFF8000000000000000
07FF0000000000000000
01FC0000000000000000
ENDCHAR
STARTCHAR 0071
ENCODING 113
SWIDTH 461 0
DWIDTH 83 0
BBX 75 101 4 -27
BITMAP
00000001FFFFFFF00000
0000003FFFFFFFFF0000
000001FFFFFFFFFFC000
000007FFFFFFFFFFE000
00001FFFFFFFFFFFF000
00007FFFFFFFFFFFF800
0000FFFFFFFFFFFFFC00
0003FFFFFFFFFFFFFE00
0007FFFFFFFFFFFFFF00
000FFFFFFFFFFFFFFF00
003FFFFFFFFFFFFFFF80
007FFFFFFFFFFFFFFF80
007FFFFFFFFFFFFFFFC0
00FFFFFFFFFFFFFFFFC0
01FFFFFFFFFFFFFFFFC0
03FFFFFFFFFFFFFFFFE0
07FFFFFFFFFFFFFFFFE0
07FFFFFFFFFFFFFFFFE0
0FFFFFFFFFFFFFFFFFE0
0FFFFFFFFFFFFFFFFFE0
1FFFFFFFFFFFFFFFFFE0
1FFFFFFF800003FFFFE0
3FFFFFFC000003FFFFE0
3FFFFFF0000003FFFFE0
3FFFFFC0000003FFFFE0
7FFFFF80000003FFFFE0
7FFFFF00000003FFFFE0
7FFFFF00000003FFFFE0
7FFFFE00000003FFFFE0
7FFFFC00000003FFFFE0
FFFFFC00000003FFFFE0
FFFFFC00000003FFFFE0
FFFFF800000003FFFFE0
FFFFF800000003FFFFE0
FFFFF800000003FFFFE0
FFFFF800000003FFFFE0
FFFFF800000003FFFFE0
FFFFF800000003FFFFE0
FFFFF800000003FFFFE0
FFFFF800000003FFFFE0
FFFFF800000003FFFFE0
FFFFF800000003FFFFE0
FFFFFC00000003FFFFE0
FFFFFC00000003FFFFE0
7FFFFC00000003FFFFE0
7FFFFE00000003FFFFE0
7FFFFF00000003FFFFE0
7FFFFF00000003FFFFE0
7FFFFF80000003FFFFE0
3FFFFFC0000003FFFFE0
3FFFFFF0000003FFFFE0
3FFFFFFC000003FFFFE0
1FFFFFFF800003FFFFE0
1FFFFFFFFFFFFFFFFFE0
0FFFFFFFFFFFFFFFFFE0
0FFFFFFFFFFFFFFFFFE0
07FFFFFFFFFFFFFFFFE0
07FFFFFFFFFFFFFFFFE0
03FFFFFFFFFFFFFFFFE0
01FFFFFFFFFFFFFFFFC0
01FFFFFFFFFFFFFFFFC0
00FFFFFFFFFFFFFFFFC0
007FFFFFFFFFFFFFFFC0
003FFFFFFFFFFFFFFF80
001FFFFFFFFFFFFFFF80
0007FFFFFFFFFFFFFFC0
0003FFFFFFFFFFFFFFC0
0001FFFFFFFFFFFFFFC0
00007FFFFFFFFFFFFFE0
00001FFFFFFFFFFFFFE0
000007FFFFFFFFFFFFE0
000001FFFFFFFFFFFFE0
0000003FFFFFFFFFFFE0
00000001FFFFFFFFFFE0
00000000000003FFFFE0
00000000000003FFFFE0
00000000000003FFFFE0
00000000000003FFFFE0
00000000000003FFFFE0
00000000000003FFFFE0
00000000000003FFFFE0
00000000000003FFFFE0
00000000000003FFFFE0
00000000000003FFFFE0
00000000000003FFFFE0
00000000000003FFFFE0
00000000000003FFFFE0
00000000000003FFFFE0
00000000000003FFFFE0
00000000000003FFFFE0
00000000000003FFFFE0
00000000000003FFFFE0
00000000000003FFFFE0
00000000000003FFFFE0
00000000000001FFFFC0
00000000000001FFFFC0
00000000000000FFFF80
000000000000007FFF00
000000000000003FFE00
000000000000001FFC00
0000000000000007F000
ENDCHAR
STARTCHAR 0072
ENCODING 114
SWIDTH 461 0
DWIDTH 83 0
BBX 74 74 4 0
BITMAP
00000003FFFFFFFFE000
0000003FFFFFFFFFF800
000001FFFFFFFFFFFE00
00000FFFFFFFFFFFFF00
00003FFFFFFFFFFFFF00
00007FFFFFFFFFFFFF80
0001FFFFFFFFFFFFFF80
0003FFFFFFFFFFFFFFC0
0007FFFFFFFFFFFFFFC0
000FFFFFFFFFFFFFFFC0
001FFFFFFFFFFFFFFFC0
003FFFFFFFFFFFFFFFC0
007FFFFFFFFFFFFFFFC0
00FFFFFFFFFFFFFFFFC0
01FFFFFFFFFFFFFFFF80
01FFFFFFFFFFFFFFFF80
03FFFFFFFFFFFFFFFF00
07FFFFFFFFFFFFFFFF00
07FFFFFFFFFFFFFFFE00
0FFFFFFFFFFFFFFFF800
0FFFFFFFFFFFFFFFE000
1FFFFFFF800000000000
1FFFFFF8000000000000
3FFFFFF0000000000000
3FFFFFC0000000000000
3FFFFF80000000000000
7FFFFF00000000000000
7FFFFF00000000000000
7FFFFE00000000000000
7FFFFE00000000000000
7FFFFC00000000000000
FFFFFC00000000000000
FFFFFC00000000000000
FFFFF800000000000000
FFFFF800000000000000
FFFFF800000000000000
FFFFF800000000000000
FFFFF800000000000000
FFFFF800000000000000
FFFFF800000000000000
FFFFF800000000000000
FFFFF800000000000000
FFFFF800000000000000
FFFFF800000000000000
FFFFF800000000000000
FFFFF800000000000000
FFFFF800000000000000
FFFFF800000000000000
FFFFF800000000000000
FFFFF800000000000000
FFFFF800000000000000
FFFFF800000000000000
FFFFF800000000000000
FFFFF800000000000000
FFFFF800000000000000
FFFFF800000000000000
FFFFF800000000000000
FFFFF800000000000000
FFFFF800000000000000
FFFFF800000000000000
FFFFF800000000000000
FFFFF800000000000000
FFFFF800000000000000
FFFFF800000000000000
FFFFF800000000000000
FFFFF800000000000000
FFFFF800000000000000
7FFFF000000000000000
7FFFF000000000000000
3FFFE000000000000000
3FFFE000000000000000
1FFFC000000000000000
07FF0000000000000000
01FC0000000000000000
ENDCHAR
STARTCHAR 0073
ENCODING 115
SWIDTH 461 0
DWIDTH 83 0
BBX 74 74 4 0
BITMAP
000001FFFFFFFFFFE000
00001FFFFFFFFFFFF800
00007FFFFFFFFFFFFE00
0001FFFFFFFFFFFFFF00
0007FFFFFFFFFFFFFF80
001FFFFFFFFFFFFFFF80
003FFFFFFFFFFFFFFFC0
007FFFFFFFFFFFFFFFC0
00FFFFFFFFFFFFFFFFC0
01FFFFFFFFFFFFFFFFC0
03FFFFFFFFFFFFFFFFC0
07FFFFFFFFFFFFFFFFC0
07FFFFFFFFFFFFFFFFC0
0FFFFFFFFFFFFFFFFFC0
0FFFFFFFFFFFFFFFFFC0
1FFFFFFFFFFFFFFFFF80
1FFFFFFFFFFFFFFFFF80
3FFFFFFFFFFFFFFFFF00
3FFFFFFFFFFFFFFFFE00
3FFFFFFFFFFFFFFFF800
7FFFFFFFFFFFFFFFE000
7FFFFF80000000000000
7FFFFE00000000000000
7FFFFC00000000000000
7FFFFC00000000000000
7FFFFC00000000000000
7FFFF800000000000000
FFFFFFFFFFFFFFF00000
FFFFFFFFFFFFFFFE0000
7FFFFFFFFFFFFFFF8000
7FFFFFFFFFFFFFFFC000
7FFFFFFFFFFFFFFFF000
7FFFFFFFFFFFFFFFF800
7FFFFFFFFFFFFFFFFC00
7FFFFFFFFFFFFFFFFE00
3FFFFFFFFFFFFFFFFE00
3FFFFFFFFFFFFFFFFF00
1FFFFFFFFFFFFFFFFF00
1FFFFFFFFFFFFFFFFF80
0FFFFFFFFFFFFFFFFF80
0FFFFFFFFFFFFFFFFFC0
07FFFFFFFFFFFFFFFFC0
03FFFFFFFFFFFFFFFFC0
01FFFFFFFFFFFFFFFFC0
007FFFFFFFFFFFFFFFC0
003FFFFFFFFFFFFFFFC0
000FFFFFFFFFFFFFFFC0
0001FFFFFFFFFFFFFFC0
00000000000007FFFFC0
00000000000007FFFFC0
00000000000007FFFFC0
0000000000000FFFFFC0
0000000000003FFFFFC0
00FFFFFFFFFFFFFFFF80
03FFFFFFFFFFFFFFFF80
0FFFFFFFFFFFFFFFFF80
1FFFFFFFFFFFFFFFFF00
3FFFFFFFFFFFFFFFFF00
3FFFFFFFFFFFFFFFFF00
7FFFFFFFFFFFFFFFFE00
7FFFFFFFFFFFFFFFFE00
7FFFFFFFFFFFFFFFFC00
7FFFFFFFFFFFFFFFF800
FFFFFFFFFFFFFFFFF800
7FFFFFFFFFFFFFFFF000
7FFFFFFFFFFFFFFFE000
7FFFFFFFFFFFFFFFC000
7FFFFFFFFFFFFFFF8000
3FFFFFFFFFFFFFFF0000
3FFFFFFFFFFFFFFC0000
1FFFFFFFFFFFFFF80000
0FFFFFFFFFFFFFE00000
07FFFFFFFFFFFF000000
00FFFFFFFFFFF0000000
ENDCHAR
STARTCHAR 0074
ENCODING 116
SWIDTH 461 0
DWIDTH 83 0
BBX 74 100 4 0
BITMAP
000000003F8000000000
00000000FFE000000000
00000001FFF000000000
00000003FFF800000000
00000007FFFC00000000
0000000FFFFE00000000
0000000FFFFE00000000
0000001FFFFF00000000
0000001FFFFF00000000
0000001FFFFF00000000
0000001FFFFF00000000
0000001FFFFF00000000
0000001FFFFF00000000
0000001FFFFF00000000
0000001FFFFF00000000
0000001FFFFF00000000
0000001FFFFF00000000
0000001FFFFF00000000
0000001FFFFF00000000
0000001FFFFF00000000
0000001FFFFF00000000
0000001FFFFF00000000
0000001FFFFF00000000
0000001FFFFF00000000
0000001FFFFF00000000
0000001FFFFF00000000
00FFFFFFFFFFFFFFE000
07FFFFFFFFFFFFFFFC00
0FFFFFFFFFFFFFFFFE00
1FFFFFFFFFFFFFFFFF00
3FFFFFFFFFFFFFFFFF80
3FFFFFFFFFFFFFFFFF80
7FFFFFFFFFFFFFFFFFC0
7FFFFFFFFFFFFFFFFFC0
7FFFFFFFFFFFFFFFFFC0
FFFFFFFFFFFFFFFFFFC0
FFFFFFFFFFFFFFFFFFC0
FFFFFFFFFFFFFFFFFFC0
FFFFFFFFFFFFFFFFFFC0
7FFFFFFFFFFFFFFFFFC0
7FFFFFFFFFFFFFFFFFC0
7FFFFFFFFFFFFFFFFF80
3FFFFFFFFFFFFFFFFF80
1FFFFFFFFFFFFFFFFF00
0FFFFFFFFFFFFFFFFE00
07FFFFFFFFFFFFFFFC00
01FFFFFFFFFFFFFFE000
0000001FFFFF00000000
0000001FFFFF00000000
0000001FFFFF00000000
0000001FFFFF00000000
0000001FFFFF00000000
0000001FFFFF00000000
0000001FFFFF00000000
0000001FFFFF00000000
0000001FFFFF00000000
0000001FFFFF00000000
0000001FFFFF00000000
0000001FFFFF00000000
0000001FFFFF00000000
0000001FFFFF00000000
0000001FFFFF00000000
0000001FFFFF00000000
0000001FFFFF00000000
0000001FFFFF00000000
0000001FFFFF00000000
0000001FFFFF00000000
0000001FFFFF00000000
0000001FFFFF00000000
0000001FFFFF00000000
0000001FFFFF00000000
0000001FFFFF00000000
0000001FFFFF00000000
0000001FFFFF00000000
0000001FFFFF00000000
0000001FFFFF00000000
0000001FFFFF00000000
0000001FFFFF00000000
0000001FFFFF00000000
0000001FFFFF00000000
0000001FFFFF00000000
0000001FFFFF00000000
0000001FFFFF00000000
0000001FFFFF00000000
0000001FFFFF00000000
0000001FFFFF00000000
0000001FFFFF00000000
0000001FFFFF00000000
0000001FFFFF00000000
0000001FFFFF00000000
0000001FFFFF00000000
0000001FFFFF00000000
0000001FFFFF00000000
0000000FFFFE00000000
0000000FFFFE00000000
00000007FFFC00000000
00000007FFF800000000
00000003FFF000000000
00000000FFE000000000
000000003F8000000000
ENDCHAR
STARTCHAR 0075
ENCODING 117
SWIDTH 461 0
DWIDTH 83 0
BBX 75 74 4 0
BITMAP
01FC000000000007F000
07FF00000000001FFC00
0FFF80000000003FFE00
1FFFC0000000007FFF00
3FFFE000000000FFFF80
7FFFF000000001FFFFC0
7FFFF000000001FFFFC0
FFFFF800000003FFFFE0
FFFFF800000003FFFFE0
FFFFF800000003FFFFE0
FFFFF800000003FFFFE0
FFFFF800000003FFFFE0
FFFFF800000003FFFFE0
FFFFF800000003FFFFE0
FFFFF800000003FFFFE0
FFFFF800000003FFFFE0
FFFFF800000003FFFFE0
FFFFF800000003FFFFE0
FFFFF800000003FFFFE0
FFFFF800000003FFFFE0
FFFFF800000003FFFFE0
FFFFF800000003FFFFE0
FFFFF800000003FFFFE0
FFFFF800000003FFFFE0
FFFFF800000003FFFFE0
FFFFF800000003FFFFE0
FFFFF800000003FFFFE0
FFFFF800000003FFFFE0
FFFFF800000003FFFFE0
FFFFF800000003FFFFE0
FFFFF800000003FFFFE0
FFFFF800000003FFFFE0
FFFFF800000003FFFFE0
FFFFF800000003FFFFE0
FFFFF800000003FFFFE0
FFFFF800000003FFFFE0
FFFFF800000003FFFFE0
FFFFF800000003FFFFE0
FFFFF800000003FFFFE0
FFFFF800000003FFFFE0
FFFFF800000003FFFFE0
FFFFFC00000007FFFFE0
FFFFFC00000007FFFFE0
FFFFFC00000007FFFFE0
7FFFFE0000000FFFFFC0
7FFFFE0000000FFFFFC0
7FFFFF0000001FFFFFC0
7FFFFF0000001FFFFFC0
3FFFFF8000003FFFFF80
3FFFFFC000007FFFFF80
3FFFFFF00001FFFFFF80
1FFFFFF80007FFFFFF00
1FFFFFFF003FFFFFFF00
0FFFFFFFFFFFFFFFFE00
0FFFFFFFFFFFFFFFFE00
07FFFFFFFFFFFFFFFC00
07FFFFFFFFFFFFFFFC00
03FFFFFFFFFFFFFFF800
03FFFFFFFFFFFFFFF800
01FFFFFFFFFFFFFFF000
00FFFFFFFFFFFFFFE000
007FFFFFFFFFFFFFC000
003FFFFFFFFFFFFFC000
003FFFFFFFFFFFFF8000
001FFFFFFFFFFFFF0000
0007FFFFFFFFFFFC0000
0003FFFFFFFFFFF80000
0001FFFFFFFFFFF00000
00007FFFFFFFFFC00000
00003FFFFFFFFF800000
00000FFFFFFFFE000000
000001FFFFFFF0000000
0000003FFFFF80000000
00000003FFF000000000
ENDCHAR
STARTCHAR 0076
ENCODING 118
SWIDTH 461 0
DWIDTH 83 0
BBX 75 74 4 0
BITMAP
01FC000000000007F000
07FF00000000001FFC00
0FFF80000000003FFE00
1FFFC0000000007FFF00
3FFFE000000000FFFF80
7FFFF000000001FFFFC0
7FFFF000000001FFFFC0
FFFFF800000003FFFFE0
FFFFF800000003FFFFE0
FFFFF800000003FFFFE0
FFFFF800000003FFFFE0
FFFFF800000003FFFFE0
FFFFF800000003FFFFE0
FFFFF800000003FFFFE0
FFFFF800000003FFFFE0
FFFFF800000003FFFFE0
FFFFF800000003FFFFE0
FFFFF800000003FFFFE0
FFFFF800000003FFFFE0
FFFFF800000007FFFFE0
FFFFFC00000007FFFFE0
7FFFFC00000007FFFFC0
7FFFFC00000007FFFFC0
7FFFFC00000007FFFFC0
7FFFFC00000007FFFFC0
7FFFFC00000007FFFFC0
7FFFFE0000000FFFFFC0
7FFFFE0000000FFFFFC0
3FFFFE0000000FFFFF80
3FFFFE0000001FFFFF80
3FFFFF0000001FFFFF80
3FFFFF0000001FFFFF80
3FFFFF0000003FFFFF00
1FFFFF8000003FFFFF00
1FFFFF8000007FFFFF00
1FFFFFC000007FFFFF00
0FFFFFC00000FFFFFE00
0FFFFFE00000FFFFFE00
0FFFFFF00001FFFFFE00
07FFFFF00003FFFFFC00
07FFFFF80007FFFFFC00
03FFFFFC000FFFFFF800
03FFFFFE000FFFFFF800
03FFFFFF003FFFFFF800
01FFFFFF807FFFFFF000
01FFFFFFC0FFFFFFF000
00FFFFFFF1FFFFFFE000
007FFFFFFBFFFFFFC000
007FFFFFFFFFFFFFC000
003FFFFFFFFFFFFF8000
001FFFFFFFFFFFFF8000
001FFFFFFFFFFFFF0000
000FFFFFFFFFFFFE0000
0007FFFFFFFFFFFC0000
0003FFFFFFFFFFF80000
0001FFFFFFFFFFF00000
0000FFFFFFFFFFF00000
00007FFFFFFFFFE00000
00003FFFFFFFFF800000
00001FFFFFFFFF000000
00000FFFFFFFFE000000
000007FFFFFFFC000000
000003FFFFFFF8000000
000000FFFFFFF0000000
0000007FFFFFC0000000
0000003FFFFF80000000
0000001FFFFF00000000
0000000FFFFE00000000
0000000FFFFE00000000
00000007FFFC00000000
00000003FFFC00000000
00000003FFF800000000
00000000FFE000000000
000000003F8000000000
ENDCHAR
STARTCHAR 0077
ENCODING 119
SWIDTH 655 0
DWIDTH 118 0
BBX 110 74 4 0
BITMAP
01FC000000000FE000000000FE00
07FF000000003FF800000003FF80
0FFF800000007FFC00000007FFC0
1FFFC0000000FFFE0000000FFFE0
3FFFE0000001FFFF0000001FFFF0
7FFFF0000003FFFF8000003FFFF8
7FFFF0000003FFFF8000003FFFF8
FFFFF8000007FFFFC000007FFFFC
FFFFF8000007FFFFC000007FFFFC
FFFFF8000007FFFFC000007FFFFC
FFFFF8000007FFFFC000007FFFFC
FFFFF8000007FFFFC000007FFFFC
FFFFF8000007FFFFC000007FFFFC
FFFFF8000007FFFFC000007FFFFC
FFFFF8000007FFFFC000007FFFFC
FFFFF8000007FFFFC000007FFFFC
FFFFF8000007FFFFC000007FFFFC
FFFFF8000007FFFFC000007FFFFC
FFFFF8000007FFFFC000007FFFFC
FFFFF8000007FFFFC000007FFFFC
FFFFF8000007FFFFC000007FFFFC
FFFFF8000007FFFFC000007FFFFC
FFFFF8000007FFFFC000007FFFFC
FFFFF8000007FFFFC000007FFFFC
FFFFF8000007FFFFC000007FFFFC
FFFFF8000007FFFFC000007FFFFC
FFFFF8000007FFFFC000007FFFFC
FFFFF8000007FFFFC000007FFFFC
FFFFF8000007FFFFC000007FFFFC
FFFFF8000007FFFFC000007FFFFC
FFFFF8000007FFFFC000007FFFFC
FFFFF8000007FFFFC000007FFFFC
FFFFF8000007FFFFC000007FFFFC
FFFFF8000007FFFFC000007FFFFC
FFFFF8000007FFFFC000007FFFFC
FFFFF8000007FFFFC000007FFFFC
FFFFF8000007FFFFC000007FFFFC
FFFFF8000007FFFFC000007FFFFC
FFFFF8000007FFFFC000007FFFFC
FFFFF8000007FFFFC000007FFFFC
FFFFF8000007FFFFC000007FFFFC
FFFFFC000007FFFFC000007FFFFC
FFFFFC000007FFFFC00000FFFFFC
FFFFFC000007FFFFC00000FFFFFC
7FFFFE000007FFFFC00000FFFFF8
7FFFFE000007FFFFC00001FFFFF8
7FFFFF000007FFFFC00001FFFFF8
7FFFFF000007FFFFC00003FFFFF8
3FFFFF800007FFFFC00007FFFFF8
3FFFFFC00007FFFFC0000FFFFFF0
3FFFFFF00007FFFFC0001FFFFFF0
1FFFFFF80007FFFFC0007FFFFFF0
1FFFFFFF0007FFFFC003FFFFFFE0
0FFFFFFFFFFFFFFFFFFFFFFFFFE0
0FFFFFFFFFFFFFFFFFFFFFFFFFC0
07FFFFFFFFFFFFFFFFFFFFFFFFC0
07FFFFFFFFFFFFFFFFFFFFFFFF80
03FFFFFFFFFFFFFFFFFFFFFFFF80
03FFFFFFFFFFFFFFFFFFFFFFFF00
01FFFFFFFFFFFFFFFFFFFFFFFE00
00FFFFFFFFFFFFFFFFFFFFFFFC00
007FFFFFFFFFFFFFFFFFFFFFFC00
007FFFFFFFFFFFFFFFFFFFFFF800
003FFFFFFFFFFFFFFFFFFFFFF000
001FFFFFFFFFFFFFFFFFFFFFE000
000FFFFFFFFFFFFFFFFFFFFF8000
0003FFFFFFFFFFFFFFFFFFFF0000
0001FFFFFFFFFFFFFFFFFFFE0000
0000FFFFFFFFFFFFFFFFFFF80000
00003FFFFFFFFFFFFFFFFFE00000
00000FFFFFFFFFFFFFFFFF800000
000003FFFFFFFFFFFFFFFE000000
0000007FFFFFFCFFFFFFF0000000
00000003FFFFE01FFFFE00000000
ENDCHAR
STARTCHAR 0078
ENCODING 120
SWIDTH 461 0
DWIDTH 83 0
BBX 75 74 4 0
BITMAP
01FC000000000007F000
07FF00000000001FFC00
0FFF80000000007FFE00
1FFFC000000000FFFF00
3FFFE000000000FFFF80
7FFFF000000001FFFFC0
7FFFF000000001FFFFC0
FFFFF800000003FFFFE0
FFFFF800000003FFFFE0
FFFFF800000003FFFFE0
FFFFF800000003FFFFE0
FFFFF800000003FFFFE0
FFFFF800000003FFFFE0
FFFFF800000003FFFFE0
FFFFF800000003FFFFE0
FFFFFC00000007FFFFE0
7FFFFC00000007FFFFE0
7FFFFC00000007FFFFC0
7FFFFE0000000FFFFFC0
7FFFFE0000000FFFFFC0
7FFFFF0000001FFFFFC0
3FFFFF0000003FFFFF80
3FFFFF8000003FFFFF80
3FFFFFC000007FFFFF80
1FFFFFF00001FFFFFF00
1FFFFFF80007FFFFFF00
0FFFFFFF003FFFFFFF00
0FFFFFFFFFFFFFFFFE00
07FFFFFFFFFFFFFFFE00
07FFFFFFFFFFFFFFFC00
03FFFFFFFFFFFFFFFC00
03FFFFFFFFFFFFFFF800
01FFFFFFFFFFFFFFF000
00FFFFFFFFFFFFFFF000
00FFFFFFFFFFFFFFE000
007FFFFFFFFFFFFFC000
003FFFFFFFFFFFFF8000
003FFFFFFFFFFFFF8000
007FFFFFFFFFFFFFC000
00FFFFFFFFFFFFFFE000
00FFFFFFFFFFFFFFE000
01FFFFFFFFFFFFFFF000
03FFFFFFFFFFFFFFF800
03FFFFFFFFFFFFFFF800
07FFFFFFFFFFFFFFFC00
0FFFFFFFFFFFFFFFFC00
0FFFFFFFFFFFFFFFFE00
0FFFFFFFFFFFFFFFFE00
1FFFFFFF803FFFFFFF00
1FFFFFF80003FFFFFF00
3FFFFFF00001FFFFFF80
3FFFFFC000007FFFFF80
3FFFFF8000003FFFFF80
7FFFFF0000001FFFFF80
7FFFFF0000001FFFFFC0
7FFFFE0000000FFFFFC0
7FFFFE0000000FFFFFC0
7FFFFC00000007FFFFC0
FFFFFC00000007FFFFE0
FFFFF800000007FFFFE0
FFFFF800000003FFFFE0
FFFFF800000003FFFFE0
FFFFF800000003FFFFE0
FFFFF800000003FFFFE0
FFFFF800000003FFFFE0
FFFFF800000003FFFFE0
FFFFF800000003FFFFE0
7FFFF000000001FFFFC0
7FFFF000000001FFFFC0
3FFFE000000000FFFF80
3FFFE000000000FFFF00
1FFFC0000000007FFE00
07FF00000000001FFC00
01FC000000000007F000
ENDCHAR
STARTCHAR 0079
ENCODING 121
SWIDTH 461 0
DWIDTH 83 0
BBX 75 101 4 -27
BITMAP
01FC000000000007F000
07FF00000000001FFC00
0FFF80000000003FFE00
1FFFC0000000007FFF00
3FFFE000000000FFFF80
7FFFF000000001FFFFC0
7FFFF000000001FFFFC0
FFFFF800000003FFFFE0
FFFFF800000003FFFFE0
FFFFF800000003FFFFE0
FFFFF800000003FFFFE0
FFFFF800000003FFFFE0
FFFFF800000003FFFFE0
FFFFF800000003FFFFE0
FFFFF800000003FFFFE0
FFFFF800000003FFFFE0
FFFFF800000003FFFFE0
FFFFF800000003FFFFE0
FFFFF800000003FFFFE0
FFFFF800000003FFFFE0
FFFFF800000003FFFFE0
FFFFF800000003FFFFE0
FFFFF800000003FFFFE0
FFFFF800000003FFFFE0
FFFFF800000003FFFFE0
FFFFF800000003FFFFE0
FFFFF800000003FFFFE0
FFFFF800000003FFFFE0
FFFFF800000003FFFFE0
FFFFF800000003FFFFE0
FFFFF800000003FFFFE0
FFFFF800000003FFFFE0
FFFFF800000003FFFFE0
FFFFF800000003FFFFE0
FFFFF800000003FFFFE0
FFFFF800000003FFFFE0
FFFFF800000003FFFFE0
FFFFF800000003FFFFE0
FFFFF800000003FFFFE0
FFFFF800000003FFFFE0
FFFFF800000003FFFFE0
FFFFFC00000003FFFFE0
FFFFFC00000003FFFFE0
FFFFFC00000003FFFFE0
7FFFFE00000003FFFFE0
7FFFFE00000003FFFFE0
7FFFFF00000003FFFFE0
7FFFFF00000003FFFFE0
3FFFFF80000003FFFFE0
3FFFFFC0000003FFFFE0
3FFFFFF0000003FFFFE0
1FFFFFF8000003FFFFE0
1FFFFFFF000003FFFFE0
0FFFFFFFFFFFFFFFFFE0
0FFFFFFFFFFFFFFFFFE0
07FFFFFFFFFFFFFFFFE0
07FFFFFFFFFFFFFFFFE0
03FFFFFFFFFFFFFFFFE0
03FFFFFFFFFFFFFFFFC0
01FFFFFFFFFFFFFFFFC0
00FFFFFFFFFFFFFFFFC0
007FFFFFFFFFFFFFFF80
007FFFFFFFFFFFFFFF80
003FFFFFFFFFFFFFFF80
001FFFFFFFFFFFFFFF80
000FFFFFFFFFFFFFFF80
0003FFFFFFFFFFFFFFC0
0001FFFFFFFFFFFFFFC0
0000FFFFFFFFFFFFFFC0
00003FFFFFFFFFFFFFC0
00000FFFFFFFFFFFFFC0
000003FFFFFFFFFFFFC0
0000007FFFFFFFFFFFE0
00000003FFFFFFFFFFC0
00000000000007FFFFC0
00000000000007FFFFC0
00000000000007FFFFC0
0000000000000FFFFFC0
0000000000001FFFFFC0
0000000000003FFFFFC0
000000003FFFFFFFFFC0
00000000FFFFFFFFFF80
00000001FFFFFFFFFF80
00000003FFFFFFFFFF80
00000007FFFFFFFFFF00
0000000FFFFFFFFFFF00
0000000FFFFFFFFFFE00
0000001FFFFFFFFFFE00
0000001FFFFFFFFFFC00
0000001FFFFFFFFFF800
0000001FFFFFFFFFF800
0000001FFFFFFFFFF000
0000001FFFFFFFFFE000
0000001FFFFFFFFFC000
0000000FFFFFFFFF8000
0000000FFFFFFFFF0000
00000007FFFFFFFE0000
00000003FFFFFFF80000
00000001FFFFFFE00000
00000000FFFFFF000000
000000003FFFF0000000
ENDCHAR
STARTCHAR 007A
ENCODING 122
SWIDTH 461 0
DWIDTH 83 0
BBX 74 74 4 0
BITMAP
00FFFFFFFFFFFFF00000
03FFFFFFFFFFFFFE0000
0FFFFFFFFFFFFFFF8000
1FFFFFFFFFFFFFFFC000
3FFFFFFFFFFFFFFFF000
3FFFFFFFFFFFFFFFF800
7FFFFFFFFFFFFFFFFC00
7FFFFFFFFFFFFFFFFE00
7FFFFFFFFFFFFFFFFE00
7FFFFFFFFFFFFFFFFF00
FFFFFFFFFFFFFFFFFF00
7FFFFFFFFFFFFFFFFF80
7FFFFFFFFFFFFFFFFF80
7FFFFFFFFFFFFFFFFFC0
7FFFFFFFFFFFFFFFFFC0
3FFFFFFFFFFFFFFFFFC0
3FFFFFFFFFFFFFFFFFC0
1FFFFFFFFFFFFFFFFFC0
0FFFFFFFFFFFFFFFFFC0
07FFFFFFFFFFFFFFFFC0
00FFFFFFFFFFFFFFFFC0
000000000007FFFFFFC0
00000000000FFFFFFFC0
00000000003FFFFFFF80
0000000000FFFFFFFF00
0000000003FFFFFFFF00
000000000FFFFFFFFE00
000000003FFFFFFFFC00
00000000FFFFFFFFF800
00000003FFFFFFFFF000
0000000FFFFFFFFFE000
0000003FFFFFFFFFC000
000000FFFFFFFFFF8000
000003FFFFFFFFFE0000
00000FFFFFFFFFFC0000
00003FFFFFFFFFF00000
00007FFFFFFFFFE00000
0001FFFFFFFFFF800000
0007FFFFFFFFFF000000
000FFFFFFFFFFC000000
003FFFFFFFFFF0000000
007FFFFFFFFFE0000000
00FFFFFFFFFF80000000
03FFFFFFFFFE00000000
07FFFFFFFFF800000000
07FFFFFFFFE000000000
0FFFFFFFFF8000000000
1FFFFFFFFE0000000000
3FFFFFFFF80000000000
3FFFFFFFE00000000000
7FFFFFFF800000000000
7FFFFFFE000000000000
7FFFFFFC000000000000
7FFFFFFFFFFFFFFFE000
7FFFFFFFFFFFFFFFF800
FFFFFFFFFFFFFFFFFE00
7FFFFFFFFFFFFFFFFF00
7FFFFFFFFFFFFFFFFF80
7FFFFFFFFFFFFFFFFF80
7FFFFFFFFFFFFFFFFFC0
7FFFFFFFFFFFFFFFFFC0
7FFFFFFFFFFFFFFFFFC0
3FFFFFFFFFFFFFFFFFC0
3FFFFFFFFFFFFFFFFFC0
1FFFFFFFFFFFFFFFFFC0
1FFFFFFFFFFFFFFFFFC0
0FFFFFFFFFFFFFFFFFC0
07FFFFFFFFFFFFFFFFC0
03FFFFFFFFFFFFFFFF80
01FFFFFFFFFFFFFFFF80
00FFFFFFFFFFFFFFFF00
003FFFFFFFFFFFFFFE00
000FFFFFFFFFFFFFF800
0001FFFFFFFFFFFFE000
ENDCHAR
ENDFONT
